<svg width="50" height="50" viewBox="0 0 50 50" fill="none" xmlns="http://www.w3.org/2000/svg">
<path d="M31.897 12.9942C33.2432 12.9942 34.3384 11.899 34.3384 10.5528C34.3384 9.20664 33.2432 8.11133 31.897 8.11133C30.5508 8.11133 29.4556 9.20664 29.4556 10.5528C29.4556 11.1026 29.6384 11.6104 29.9463 12.019L25.935 17.6246C25.6956 17.546 25.4402 17.5028 25.1748 17.5028C24.5333 17.5028 23.9491 17.752 23.513 18.158L20.8393 16.6408C20.8749 16.4752 20.894 16.3035 20.894 16.1274C20.894 14.7812 19.7988 13.686 18.4526 13.686C17.1064 13.686 16.0112 14.7812 16.0112 16.1274C16.0112 16.3035 16.0304 16.4752 16.066 16.6408L13.3923 18.158C12.9562 17.752 12.372 17.5029 11.7305 17.5029C10.3843 17.5029 9.28906 18.5982 9.28906 19.9444C9.28906 21.2906 10.3843 22.3859 11.7305 22.3859C13.0767 22.3859 14.1719 21.2906 14.1719 19.9444C14.1719 19.7684 14.1527 19.5967 14.1171 19.4311L16.7908 17.9139C17.227 18.3199 17.8111 18.569 18.4526 18.569C19.0941 18.569 19.6782 18.3199 20.1145 17.914L22.7882 19.4312C22.7525 19.5968 22.7334 19.7685 22.7334 19.9445C22.7334 21.2907 23.8286 22.386 25.1748 22.386C26.5211 22.386 27.6163 21.2907 27.6163 19.9445C27.6163 19.3946 27.4334 18.8867 27.1255 18.4781L31.1368 12.8726C31.3761 12.9511 31.6315 12.9942 31.897 12.9942ZM31.897 9.57617C32.4354 9.57617 32.8735 10.0143 32.8735 10.5528C32.8735 11.0913 32.4354 11.5294 31.897 11.5294C31.3585 11.5294 30.9204 11.0913 30.9204 10.5528C30.9203 10.0143 31.3584 9.57617 31.897 9.57617ZM11.7302 20.9209C11.1917 20.9209 10.7536 20.4828 10.7536 19.9442C10.7536 19.4057 11.1917 18.9676 11.7302 18.9676C12.2687 18.9676 12.7067 19.4057 12.7067 19.9442C12.7067 20.4828 12.2687 20.9209 11.7302 20.9209ZM18.4524 17.104C17.914 17.104 17.4759 16.6659 17.4759 16.1273C17.4759 15.5889 17.914 15.1508 18.4524 15.1508C18.9909 15.1508 19.429 15.5889 19.429 16.1273C19.4291 16.6659 18.9909 17.104 18.4524 17.104ZM25.1747 20.9209C24.6362 20.9209 24.1981 20.4828 24.1981 19.9442C24.1981 19.4057 24.6362 18.9676 25.1747 18.9676C25.7133 18.9676 26.1514 19.4057 26.1514 19.9442C26.1514 20.4828 25.7132 20.9209 25.1747 20.9209Z" fill="#02B2EE"/>
<path d="M40.898 36.8129H35.7725H7.8543H2.07178C1.73711 36.8129 1.46484 36.5406 1.46484 36.206V5.98926C1.46484 5.65459 1.73711 5.38232 2.07178 5.38232H5.52451C5.929 5.38232 6.25693 5.05449 6.25693 4.6499C6.25693 4.24531 5.929 3.91748 5.52451 3.91748H2.07178C0.929395 3.91748 0 4.84687 0 5.98926V36.206C0 37.3483 0.929395 38.2777 2.07178 38.2777H7.12188V39.8896C7.12188 40.8079 7.86895 41.555 8.78721 41.555H16.1187L12.6675 48.2931C12.4831 48.6531 12.6254 49.0944 12.9854 49.2789C13.0923 49.3337 13.2063 49.3596 13.3188 49.3596C13.5849 49.3596 13.8416 49.2141 13.9712 48.9608L17.7645 41.555H25.8623L29.6556 48.9608C29.7853 49.2141 30.0419 49.3596 30.308 49.3596C30.4204 49.3596 30.5345 49.3335 30.6413 49.2789C31.0014 49.0944 31.1438 48.6531 30.9593 48.2931L27.5081 41.555H34.8396C35.7578 41.555 36.5049 40.808 36.5049 39.8896V38.2777H40.898C41.3025 38.2777 41.6305 37.9499 41.6305 37.5453C41.6305 37.1407 41.3025 36.8129 40.898 36.8129ZM35.04 39.8896C35.04 40.0002 34.9501 40.0901 34.8396 40.0901H8.78721C8.67666 40.0901 8.58672 40.0002 8.58672 39.8896V38.2777H35.04V39.8896Z" fill="#02B2EE"/>
<path d="M8.4541 5.38237H18.4807H25.1458H41.5548C41.8895 5.38237 42.1617 5.65464 42.1617 5.98931V12.9533C42.1617 13.3579 42.4897 13.6857 42.8941 13.6857C43.2986 13.6857 43.6266 13.3579 43.6266 12.9533V5.98931C43.6266 4.84692 42.6972 3.91753 41.5548 3.91753H25.8783V2.47788C25.8783 1.4647 25.054 0.640381 24.0407 0.640381H19.5858C18.5727 0.640381 17.7482 1.4647 17.7482 2.47788V3.91753H8.4541C8.04961 3.91753 7.72168 4.24536 7.72168 4.64995C7.72168 5.05454 8.04961 5.38237 8.4541 5.38237ZM19.2131 2.47788C19.2131 2.27241 19.3803 2.10522 19.5858 2.10522H24.0407C24.2462 2.10522 24.4135 2.27241 24.4135 2.47788V3.91753H19.2132V2.47788H19.2131Z" fill="#02B2EE"/>
<path d="M10.2441 26.1304C9.83965 26.1304 9.51172 26.4582 9.51172 26.8628V33.3347C9.51172 33.7393 9.83965 34.0671 10.2441 34.0671H13.2155C13.62 34.0671 13.9479 33.7393 13.9479 33.3347V26.8628C13.9479 26.4582 13.62 26.1304 13.2155 26.1304H10.2441ZM12.4831 32.6023H10.9766V27.5953H12.4831V32.6023Z" fill="#02B2EE"/>
<path d="M16.9658 22.3875C16.5613 22.3875 16.2334 22.7153 16.2334 23.1199V33.3348C16.2334 33.7394 16.5613 34.0672 16.9658 34.0672H19.9372C20.3417 34.0672 20.6696 33.7394 20.6696 33.3348V23.1199C20.6696 22.7153 20.3417 22.3875 19.9372 22.3875H16.9658ZM19.2049 32.6024H17.6983V23.8523H19.2049V32.6024Z" fill="#02B2EE"/>
<path d="M23.6885 26.1304C23.284 26.1304 22.9561 26.4582 22.9561 26.8628V33.3347C22.9561 33.7393 23.284 34.0671 23.6885 34.0671H26.6599C27.0644 34.0671 27.3923 33.7393 27.3923 33.3347V26.8628C27.3923 26.4582 27.0644 26.1304 26.6599 26.1304H23.6885ZM25.9274 32.6023H24.4209V27.5953H25.9274V32.6023Z" fill="#02B2EE"/>
<path d="M30.4111 30.4524C30.0066 30.4524 29.6787 30.7802 29.6787 31.1848V33.3349C29.6787 33.7395 30.0066 34.0673 30.4111 34.0673H33.3825C33.787 34.0673 34.1149 33.7395 34.1149 33.3349C34.1149 32.9303 33.787 32.6025 33.3825 32.6025H31.1436V31.1848C31.1436 30.7802 30.8156 30.4524 30.4111 30.4524Z" fill="#02B2EE"/>
<path d="M49.6262 37.5017L45.4243 30.2238C46.4889 29.0891 47.2641 27.7027 47.6781 26.1573C48.3399 23.6875 48.0003 21.1077 46.7218 18.8933C44.0825 14.3217 38.2162 12.7501 33.6449 15.3893C29.0735 18.0284 27.5018 23.8948 30.141 28.4661C31.4195 30.6806 33.4839 32.2646 35.9537 32.9265C36.7785 33.1475 37.6153 33.2568 38.4469 33.2568C39.1736 33.2568 39.8962 33.1732 40.6028 33.0077L44.8038 40.2859C45.3188 41.1781 46.2564 41.6775 47.2195 41.6774C47.6915 41.6774 48.1696 41.5573 48.607 41.305C49.466 40.8092 49.9997 39.8847 49.9997 38.8923C49.9997 38.4061 49.8706 37.9253 49.6262 37.5017ZM36.3328 31.5115C34.2409 30.951 32.4924 29.6093 31.4095 27.7337C29.1741 23.8618 30.5055 18.8933 34.3772 16.6578C35.651 15.9225 37.0429 15.5733 38.4177 15.5733C41.2219 15.5733 43.9531 17.0277 45.4531 19.6257C46.5359 21.5013 46.8236 23.6863 46.2631 25.7782C45.7025 27.8702 44.3608 29.6186 42.4853 30.7015C40.6098 31.7844 38.4248 32.0719 36.3328 31.5115ZM47.8749 40.0363C47.2447 40.4001 46.4361 40.1835 46.0726 39.5536L42.0308 32.5513C42.4358 32.386 42.8325 32.1926 43.2179 31.9701C43.6035 31.7475 43.9688 31.4996 44.3146 31.2313L48.3575 38.2339C48.4735 38.4352 48.5349 38.6629 48.5349 38.8924C48.5349 39.3629 48.2819 39.8013 47.8749 40.0363Z" fill="#02B2EE"/>
<path d="M45.0724 25.7433C45.5895 24.0777 45.4664 22.2945 44.7257 20.7223C44.5532 20.3562 44.1169 20.1994 43.751 20.3718C43.3849 20.5442 43.2281 20.9806 43.4006 21.3465C43.9848 22.5867 44.0818 23.9938 43.6735 25.3089C43.263 26.6311 42.3761 27.7408 41.1762 28.4336C39.9064 29.1668 38.427 29.3613 37.0109 28.9819C35.5947 28.6024 34.4109 27.6941 33.6779 26.4244C32.1645 23.8032 33.0659 20.4395 35.6871 18.9262C37.6036 17.8198 39.982 17.9677 41.7468 19.3028C42.0694 19.547 42.5287 19.4834 42.7727 19.1607C43.0168 18.8382 42.9532 18.3788 42.6306 18.1348C40.3951 16.4433 37.382 16.256 34.9546 17.6575C33.346 18.5862 32.1953 20.0858 31.7145 21.88C31.2338 23.6741 31.4806 25.5481 32.4093 27.1567C33.338 28.7654 34.8376 29.916 36.6317 30.3969C37.2309 30.5574 37.8389 30.6368 38.4429 30.6368C39.6477 30.6368 40.8371 30.3208 41.9085 29.7021C43.4287 28.8246 44.5523 27.4187 45.0724 25.7433Z" fill="#02B2EE"/>
</svg>
