<svg width="27" height="27" viewBox="0 0 27 27" fill="none" xmlns="http://www.w3.org/2000/svg">
<path fill-rule="evenodd" clip-rule="evenodd" d="M23.4855 0.471214L24.2629 1.24904C24.912 1.89811 24.9123 2.95085 24.2637 3.60035L24.2629 3.60114L23.378 4.4865H24.75C25.9926 4.4865 27 5.49444 26.9999 6.73782V23.6076L27 23.623C27 24.8664 25.9926 25.8743 24.75 25.8743H23.0625C22.7518 25.8743 22.4999 25.6223 22.4999 25.3115V22.4973H17.5095L17.8352 22.8232C18.0547 23.043 18.0547 23.3992 17.8351 23.6191L14.621 26.8351C14.5155 26.9406 14.3725 26.9999 14.2233 27C14.0742 27 13.9311 26.9407 13.8256 26.8351L9.49041 22.4973H3.93737C3.0054 22.4973 2.24987 21.7413 2.24987 20.8088V15.2525L0.16469 13.166C-0.0548967 12.9462 -0.0548967 12.5899 0.16469 12.3702L2.24987 10.2837V6.17502C2.24987 5.24248 3.0054 4.4865 3.93737 4.4865H17.1219L21.1348 0.471214C21.7925 -0.157071 22.8277 -0.157071 23.4855 0.471214ZM15.7094 12.1597L22.253 5.61216H24.75C25.3713 5.61216 25.875 6.11613 25.875 6.73782V21.6728C25.544 21.4813 25.1598 21.3717 24.75 21.3717H16.3845L4.17421 9.15409C3.95457 8.93437 3.5985 8.93437 3.37881 9.15409L3.37486 9.15804V6.17502C3.37486 5.86417 3.62672 5.61216 3.93737 5.61216H15.9969L12.5814 9.02972C12.5174 9.09375 12.472 9.16937 12.4453 9.24983L12.4453 9.2498L11.2786 12.7512C11.2595 12.8086 11.2498 12.8687 11.2498 12.9292C11.2498 13.24 11.5017 13.492 11.8124 13.4919H11.8164H20.25V12.3662H15.2813L15.4872 12.2975L15.4869 12.2966C15.57 12.2693 15.6464 12.2227 15.7094 12.1597ZM14.2705 11.5157L13.226 10.4706L12.7034 12.0392L14.2705 11.5157ZM15.3117 10.9659L21.5146 4.75936L19.9775 3.22132L13.7744 9.42762L15.3117 10.9659ZM23.468 2.80474L22.3101 3.96341L20.773 2.4254L21.9307 1.26703C22.1431 1.06394 22.4777 1.06394 22.6901 1.26703L23.468 2.04433L23.4683 2.04459C23.678 2.25455 23.6779 2.59489 23.468 2.80474ZM24.75 22.4973C25.3713 22.4973 25.875 23.0013 25.875 23.623C25.875 24.2447 25.3713 24.7487 24.75 24.7487H23.625V22.4973H24.75ZM3.37486 16.3781L8.36542 21.3717H3.93737C3.62672 21.3717 3.37486 21.1196 3.37486 20.8088V16.3781ZM1.35776 12.7681L14.2233 25.6413L16.6421 23.2212L15.1076 21.6858L13.8976 22.8965L13.1021 22.1006L14.3121 20.8898L12.8565 19.4333L11.6466 20.644L10.8511 19.8481L12.0611 18.6374L10.6071 17.1826L9.39776 18.3927L8.60228 17.5967L9.81165 16.3866L8.35715 14.9312L7.14782 16.1413L6.35234 15.3453L7.56168 14.1353L6.10637 12.6791L4.89627 13.8899L4.10079 13.094L5.3109 11.8832L3.77653 10.3479L1.35776 12.7681ZM21.375 12.3662H22.4999V13.4919H21.375V12.3662ZM24.75 12.3662H23.625V13.4919H24.75V12.3662Z" fill="#02B2EE"/>
</svg>
