<svg width="69" height="63" viewBox="0 0 69 63" fill="none" xmlns="http://www.w3.org/2000/svg">
<path d="M66.2568 34.7977C67.4247 34.1719 68.8895 31.4675 68.8895 31.4675C68.8895 31.4675 65.8256 31.1969 64.6577 31.8248C64.5429 31.8876 64.4497 31.9807 64.3414 32.0543C64.4995 30.9652 64.6057 29.8587 64.649 28.735C65.3814 28.932 66.4367 28.6007 67.2015 27.923C68.1961 27.0439 69 24.0775 69 24.0775C69 24.0775 65.9578 24.5192 64.9632 25.3983C64.8397 25.5066 64.7552 25.643 64.6469 25.7664C64.5775 24.6015 64.4302 23.4583 64.2352 22.3323C64.9849 22.3367 65.9166 21.7716 66.5038 20.9509C67.2709 19.8705 67.3792 16.8001 67.3792 16.8001C67.3792 16.8001 64.5147 17.9174 63.7476 18.9979C63.6675 19.1105 63.6241 19.2404 63.557 19.3616C63.3078 18.476 63.0109 17.6099 62.6816 16.759C63.4313 16.6356 64.2568 15.9016 64.6707 14.9683C65.2167 13.7601 64.7314 10.7266 64.7314 10.7266C64.7314 10.7266 62.1355 12.3765 61.5938 13.5848C61.531 13.7212 61.5093 13.8684 61.466 14.0113C61.0045 13.0997 60.4953 12.2142 59.9471 11.3589C60.6274 11.0752 61.2753 10.2481 61.5288 9.31056C61.8799 8.0309 60.9286 5.11215 60.9286 5.11215C60.9286 5.11215 58.6231 7.14531 58.2743 8.42497C58.2288 8.58737 58.2288 8.75626 58.2093 8.92298C57.4964 8.02007 56.738 7.15614 55.9298 6.33984C56.5473 5.92195 57.0089 4.94326 57.0457 3.95157C57.0934 2.62861 55.5029 0 55.5029 0C55.5029 0 53.7218 2.50735 53.6698 3.83032C53.6655 3.98189 53.6698 4.13562 53.6871 4.28502C53.0219 3.73505 52.3372 3.20889 51.6265 2.71522C51.4336 2.06131 50.9093 1.36627 50.1877 0.931056C49.0545 0.249003 45.9819 0.365927 45.9819 0.365927C45.9819 0.365927 47.308 3.13528 48.4456 3.81949C48.9483 4.12263 49.5204 4.2742 50.0534 4.30884C50.5951 4.67693 51.1325 5.05801 51.646 5.46292C50.2636 5.61015 47.9906 6.97859 47.9906 6.97859C47.9906 6.97859 50.4954 8.75626 51.8215 8.80606C52.8377 8.84286 53.8648 8.4358 54.309 7.82736C54.855 8.37517 55.3707 8.95329 55.8734 9.5444C54.478 9.40583 52.0252 10.1983 52.0252 10.1983C52.0252 10.1983 54.0577 12.5 55.3404 12.8486C56.3393 13.1192 57.4422 12.9395 58.0034 12.422C58.4108 13.0478 58.7856 13.6887 59.1388 14.3469C57.8171 13.9442 55.1389 14.3642 55.1389 14.3642C55.1389 14.3642 56.7878 16.956 57.9969 17.4974C58.8983 17.9023 59.9687 17.9217 60.6166 17.5601C60.8354 18.1253 61.0326 18.7012 61.2146 19.2837C60.0077 18.619 57.2602 18.5129 57.2602 18.5129C57.2602 18.5129 58.3826 21.3731 59.4639 22.1396C60.2786 22.7178 61.3403 22.9473 62.051 22.7026C62.1854 23.4713 62.2894 24.2508 62.3652 25.0411C61.2905 24.1512 58.7575 23.4604 58.7575 23.4604C58.7575 23.4604 59.2017 26.5004 60.0836 27.49C60.7358 28.2261 61.7 28.683 62.4432 28.6202C62.4151 29.4084 62.3652 30.1922 62.2742 30.9652C61.4942 29.8328 59.0695 28.5098 59.0695 28.5098C59.0695 28.5098 58.7986 31.5715 59.4292 32.7364C59.9341 33.6761 60.8636 34.3516 61.6415 34.3646C61.4703 35.0488 61.2883 35.7331 61.0673 36.3978C60.5126 35.1679 58.1096 33.4682 58.1096 33.4682C58.1096 33.4682 57.4834 36.4779 57.9753 37.7078C58.3306 38.615 59.076 39.3707 59.7867 39.5677C59.4964 40.1805 59.1995 40.7846 58.868 41.3692C58.5538 40.0614 56.5062 37.9438 56.5062 37.9438C56.5062 37.9438 55.3296 40.7824 55.5788 42.0837C55.7564 43.0321 56.335 43.9025 56.9872 44.2446C56.5647 44.8163 56.1291 45.3771 55.6633 45.9162C55.6416 44.5803 53.9992 42.0491 53.9992 42.0491C53.9992 42.0491 52.2982 44.6084 52.2895 45.9292C52.2852 46.9122 52.6926 47.8952 53.2841 48.3456C52.7727 48.8111 52.2462 49.2658 51.7045 49.6946C51.7067 49.6686 51.7153 49.6491 51.7175 49.6231C51.8757 48.3088 50.5127 45.5524 50.5127 45.5524C50.5127 45.5524 48.5279 47.8952 48.3676 49.2074C48.2528 50.1125 48.5106 51.0348 48.9765 51.5762C48.3048 51.9854 47.6222 52.3708 46.9158 52.7216C46.9873 52.531 47.0502 52.3362 47.0892 52.1348C47.3427 50.8335 46.1791 47.9905 46.1791 47.9905C46.1791 47.9905 44.0296 50.1882 43.7783 51.4896C43.6028 52.3816 43.7956 53.3214 44.2203 53.8951C42.9831 54.3607 41.6982 54.7201 40.3894 55.0167C39.6202 52.4834 37.2887 50.6256 34.5043 50.6256C31.7178 50.6256 29.3885 52.4791 28.6193 55.0167C27.3105 54.7244 26.0256 54.3607 24.7883 53.8951C25.213 53.3192 25.4059 52.3816 25.2304 51.4896C24.979 50.1861 22.8295 47.9905 22.8295 47.9905C22.8295 47.9905 21.6638 50.8335 21.9195 52.1348C21.9585 52.3362 22.0213 52.531 22.0928 52.7216C21.3864 52.3708 20.7017 51.9854 20.0322 51.5762C20.4937 51.0348 20.7537 50.1125 20.6411 49.2074C20.4807 47.8952 18.4938 45.5524 18.4938 45.5524C18.4938 45.5524 17.133 48.3045 17.2912 49.6231C17.2933 49.6491 17.302 49.6686 17.3042 49.6946C16.7603 49.2658 16.2359 48.8133 15.7246 48.3456C16.3139 47.8952 16.7235 46.9101 16.717 45.9292C16.7105 44.6041 15.0073 42.0491 15.0073 42.0491C15.0073 42.0491 13.3671 44.5803 13.3454 45.9162C12.8817 45.3771 12.444 44.8141 12.0215 44.2446C12.6737 43.9025 13.2501 43.0321 13.4299 42.0837C13.6813 40.7781 12.5025 37.9438 12.5025 37.9438C12.5025 37.9438 10.4549 40.0635 10.1407 41.3692C9.81133 40.7824 9.51231 40.1805 9.22412 39.5677C9.93701 39.3685 10.6781 38.615 11.0356 37.7078C11.5253 36.4736 10.8991 33.4682 10.8991 33.4682C10.8991 33.4682 8.49391 35.1658 7.9392 36.3978C7.71819 35.7287 7.53618 35.0488 7.36717 34.3646C8.14288 34.3516 9.07245 33.6761 9.57731 32.7364C10.2079 31.5693 9.93917 28.5098 9.93917 28.5098C9.93917 28.5098 7.51017 29.8328 6.73229 30.9652C6.64128 30.1944 6.59145 29.4105 6.56328 28.6202C7.30433 28.683 8.27073 28.224 8.92294 27.49C9.80483 26.5004 10.249 23.4604 10.249 23.4604C10.249 23.4604 7.71819 24.1512 6.64128 25.0411C6.71279 24.2529 6.81896 23.4713 6.95547 22.7026C7.66402 22.9473 8.72792 22.7178 9.54265 22.1396C10.6239 21.3753 11.7441 18.5129 11.7441 18.5129C11.7441 18.5129 8.99661 18.619 7.78969 19.2837C7.97171 18.6991 8.17105 18.1253 8.3899 17.5601C9.03995 17.9217 10.1104 17.9001 11.0074 17.4974C12.2187 16.9582 13.8676 14.3642 13.8676 14.3642C13.8676 14.3642 11.1808 13.9507 9.85683 14.3534C10.2122 13.6952 10.5892 13.0521 10.9944 12.4285C11.5578 12.9438 12.6607 13.1257 13.6596 12.8551C14.9402 12.5065 16.9748 10.2048 16.9748 10.2048C16.9748 10.2048 14.5176 9.41449 13.1244 9.55307C13.6249 8.96195 14.1406 8.38383 14.6867 7.83603C15.133 8.44446 16.1623 8.84936 17.1763 8.81472C18.5003 8.76708 21.0073 6.98725 21.0073 6.98725C21.0073 6.98725 18.7343 5.61881 17.3518 5.47158C17.8675 5.06668 18.4027 4.68776 18.9466 4.31967C19.4775 4.28502 20.0517 4.13345 20.5544 3.83032C21.6898 3.1461 23.0159 0.376753 23.0159 0.376753C23.0159 0.376753 19.9455 0.257664 18.8101 0.939717C18.0886 1.37277 17.5642 2.06998 17.3692 2.72171C16.6585 3.21539 15.9737 3.74371 15.3107 4.29152C15.3237 4.13995 15.3302 3.98838 15.3259 3.83682C15.276 2.51169 13.4949 0.00649574 13.4949 0.00649574C13.4949 0.00649574 11.9001 2.63294 11.95 3.95807C11.9868 4.94975 12.4462 5.92844 13.0637 6.34417C12.2577 7.16263 11.4993 8.02657 10.7864 8.92947C10.7647 8.76275 10.7647 8.59386 10.7214 8.43147C10.3725 7.15181 8.06705 5.11864 8.06705 5.11864C8.06705 5.11864 7.11365 8.03956 7.46467 9.31705C7.72036 10.2568 8.36823 11.0839 9.05078 11.3675C8.50257 12.2228 7.99337 13.1041 7.53184 14.02C7.48851 13.8771 7.46684 13.7298 7.40617 13.5934C6.8623 12.3852 4.26646 10.7353 4.26646 10.7353C4.26646 10.7353 3.78109 13.7666 4.32713 14.9748C4.74532 15.9059 5.57088 16.6421 6.31626 16.7655C5.98907 17.6143 5.69222 18.4804 5.44087 19.366C5.3737 19.2447 5.33036 19.1148 5.25019 19.0022C4.48314 17.9196 1.61861 16.8023 1.61861 16.8023C1.61861 16.8023 1.72695 19.8726 2.49617 20.9531C3.08121 21.7715 4.01511 22.3388 4.76482 22.3345C4.56548 23.4604 4.4203 24.6037 4.35096 25.7686C4.24479 25.6452 4.15595 25.5088 4.03461 25.4005C3.04221 24.5192 0 24.0819 0 24.0819C0 24.0819 0.801721 27.0483 1.79629 27.9273C2.56117 28.6051 3.61641 28.9363 4.34879 28.7393C4.39213 29.8631 4.49397 30.9673 4.65648 32.0586C4.54814 31.985 4.45713 31.8919 4.34013 31.8291C3.17221 31.199 0.108341 31.4719 0.108341 31.4719C0.108341 31.4719 1.57311 34.1741 2.74102 34.8042C3.57741 35.2524 4.58498 35.3455 5.25886 35.0748C5.47554 35.9279 5.72255 36.7615 6.01074 37.5865C5.91323 37.5367 5.83089 37.4653 5.72905 37.4263C4.49614 36.9391 1.48643 37.5692 1.48643 37.5692C1.48643 37.5692 3.25672 40.0787 4.4918 40.5637C5.44953 40.9448 6.56328 40.8863 7.18082 40.4425C7.57301 41.2739 7.99554 42.0859 8.45707 42.8762C8.35957 42.8481 8.25989 42.8177 8.16022 42.8004C6.85796 42.5514 4.01727 43.7271 4.01727 43.7271C4.01727 43.7271 6.22525 45.8664 7.52968 46.1154C8.55458 46.3103 9.64665 46.0375 10.1624 45.4723C10.7192 46.2323 11.3064 46.962 11.9305 47.6701C11.846 47.6657 11.7636 47.6527 11.6791 47.6549C10.353 47.6636 7.79403 49.3676 7.79403 49.3676C7.79403 49.3676 10.3725 51.037 11.6986 51.0327C12.7214 51.024 13.7376 50.5672 14.1515 49.9327C14.7495 50.4827 15.3627 51.011 16.0019 51.5112C15.9456 51.5155 15.8892 51.5025 15.8329 51.509C14.5155 51.6714 12.1732 53.6591 12.1732 53.6591C12.1732 53.6591 14.9272 55.0211 16.2424 54.8587C17.3323 54.7244 18.3507 54.0792 18.6129 53.3343C19.1243 53.6505 19.627 53.9861 20.1579 54.2741C18.8556 54.8154 17.0962 56.5324 17.0962 56.5324C17.0962 56.5324 19.939 57.6865 21.2391 57.4288C22.29 57.2253 23.2369 56.5367 23.4774 55.8006C25.0462 56.422 26.6821 56.9092 28.3636 57.2643C28.5911 60.4667 31.2368 63 34.4978 63C37.7589 63 40.4046 60.4667 40.6321 57.2643C42.3135 56.9092 43.9495 56.422 45.5204 55.8006C45.7566 56.5367 46.7057 57.2253 47.7566 57.4288C49.0588 57.6865 51.9038 56.5238 51.9038 56.5238C51.9038 56.5238 50.1444 54.8067 48.8421 54.2654C49.373 53.9753 49.8757 53.6483 50.3871 53.3257C50.6493 54.0684 51.6698 54.7179 52.7576 54.85C54.0728 55.0124 56.829 53.6505 56.829 53.6505C56.829 53.6505 54.4845 51.6628 53.1693 51.4982C53.1151 51.4939 53.0566 51.5069 53.0003 51.5025C53.6395 51.0024 54.2527 50.4741 54.8507 49.9241C55.2646 50.5585 56.2808 51.0154 57.3057 51.024C58.6296 51.0327 61.2103 49.359 61.2103 49.359C61.2103 49.359 58.6513 47.6549 57.3252 47.6462C57.2407 47.6462 57.1584 47.6571 57.0739 47.6614C57.6979 46.9599 58.2851 46.2237 58.842 45.4637C59.3577 46.0288 60.4498 46.3038 61.4747 46.1068C62.7791 45.8599 64.9871 43.7185 64.9871 43.7185C64.9871 43.7185 62.1464 42.5428 60.8441 42.7896C60.7444 42.8091 60.6448 42.8372 60.5473 42.8675C61.0088 42.0816 61.4313 41.2696 61.8235 40.4338C62.4389 40.8777 63.5526 40.934 64.5125 40.5551C65.7476 40.07 67.5179 37.5584 67.5179 37.5584C67.5179 37.5584 64.5082 36.9304 63.2753 37.4176C63.1734 37.4609 63.0911 37.528 62.9936 37.5778C63.2818 36.7572 63.5266 35.9171 63.7455 35.0662C64.4129 35.339 65.4183 35.2459 66.2568 34.7977Z" fill="#02B2EE"/>
</svg>
