<svg width="50" height="50" viewBox="0 0 50 50" fill="none" xmlns="http://www.w3.org/2000/svg">
<g clip-path="url(#clip0)">
<path d="M49.0038 18.405H48.3363C47.686 15.1057 44.3507 9.29659 42.8741 6.83614C43.5664 6.35997 44.0215 5.56261 44.0215 4.66075C44.0215 3.20568 42.8376 2.02179 41.3825 2.02179C39.9274 2.02179 38.7436 3.20558 38.7436 4.66075C38.7436 5.56261 39.1987 6.35997 39.8911 6.83614C38.4146 9.29659 35.0793 15.1057 34.429 18.405H33.7616C33.2116 18.405 32.7656 18.8509 32.7656 19.401C32.7656 24.1525 36.6312 28.0181 41.3827 28.0181C46.1342 28.0181 49.9998 24.1525 49.9998 19.401C49.9998 18.8509 49.5538 18.405 49.0038 18.405ZM41.3826 4.01388C41.7393 4.01388 42.0295 4.30411 42.0295 4.66075C42.0295 5.0174 41.7393 5.30753 41.3826 5.30753C41.026 5.30753 40.7358 5.0174 40.7358 4.66075C40.7358 4.30411 41.0259 4.01388 41.3826 4.01388ZM41.3811 8.22286C43.0665 11.0678 45.6693 15.8067 46.3096 18.405H36.4588C37.0632 15.9722 39.4051 11.5438 41.3811 8.22286ZM41.3826 26.0261C38.0681 26.0261 35.3141 23.5793 34.8322 20.397H47.9331C47.4512 23.5793 44.6974 26.0261 41.3826 26.0261Z" fill="#02B2EE"/>
<path d="M33.8654 42.2533H31.2322V39.7238C31.2322 39.1737 30.7862 38.7278 30.2362 38.7278H27.7067V10.9053C28.3582 10.2613 28.7778 9.38328 28.8265 8.40897L33.038 7.50272C33.5758 7.38699 33.918 6.85721 33.8022 6.31942C33.6864 5.78162 33.1566 5.43983 32.6189 5.55526L28.3976 6.46375C27.7643 5.26141 26.5025 4.43924 25.0518 4.43924C23.0427 4.43924 21.3954 6.01502 21.2795 7.99549L10.7482 10.2617C10.2678 9.60457 9.4917 9.17664 8.61719 9.17664C7.16211 9.17664 5.97822 10.3604 5.97822 11.8156C5.97822 12.7175 6.4333 13.5149 7.12568 13.991C5.64912 16.4514 2.31387 22.2605 1.66357 25.5598H0.996192C0.445898 25.5598 0 26.0057 0 26.5558C0 31.3073 3.86563 35.1729 8.61709 35.1729C13.3686 35.1729 17.2342 31.3073 17.2342 26.5558C17.2342 26.0057 16.7883 25.5598 16.2382 25.5598H15.5708C14.9205 22.2604 11.5852 16.4514 10.1087 13.991C10.7019 13.5831 11.1204 12.9394 11.2283 12.1962L21.6913 9.94471C21.8754 10.3015 22.114 10.6258 22.3969 10.9055V38.7281H19.8675C19.3174 38.7281 18.8715 39.174 18.8715 39.7241V42.2536H16.2383C15.6882 42.2536 15.2423 42.6995 15.2423 43.2496V46.9821C15.2423 47.5322 15.6882 47.9781 16.2383 47.9781H33.8654C34.4154 47.9781 34.8614 47.5322 34.8614 46.9821V43.2493C34.8614 42.6992 34.4154 42.2533 33.8654 42.2533ZM8.61709 11.1685C8.97373 11.1685 9.26397 11.4588 9.26397 11.8154C9.26397 12.1721 8.97373 12.4622 8.61709 12.4622C8.26045 12.4622 7.97022 12.1721 7.97022 11.8154C7.97022 11.4588 8.26045 11.1685 8.61709 11.1685ZM8.61709 33.1807C5.30244 33.1807 2.54854 30.734 2.0667 27.5516H15.1675C14.6856 30.734 11.9317 33.1807 8.61709 33.1807ZM13.544 25.5596H3.69326C4.29775 23.1268 6.63965 18.6984 8.61563 15.3775C10.301 18.2223 12.9038 22.9612 13.544 25.5596ZM25.0519 6.43104C26.0375 6.43104 26.8393 7.23279 26.8393 8.21844C26.8393 9.20408 26.0374 10.0058 25.0519 10.0058C24.0663 10.0058 23.2645 9.20408 23.2645 8.21844C23.2645 7.23279 24.0662 6.43104 25.0519 6.43104ZM25.7148 11.9387V38.7279H24.3889V11.9386C24.6043 11.9769 24.8256 11.998 25.052 11.998C25.2783 11.998 25.4994 11.9768 25.7148 11.9387ZM20.8634 40.7198H29.2402V42.2533H20.8634V40.7198ZM32.8694 45.986H17.2343V44.2453H32.8694V45.986Z" fill="#02B2EE"/>
<path d="M37.6382 5.55555C37.5225 5.01776 36.9926 4.67567 36.4548 4.79139L35.729 4.94754C35.1913 5.06326 34.8492 5.59305 34.9649 6.13084C35.0656 6.59803 35.4785 6.91746 35.9377 6.91746C36.0072 6.91746 36.0777 6.91024 36.1483 6.895L36.8741 6.73885C37.4117 6.62313 37.7539 6.09334 37.6382 5.55555Z" fill="#02B2EE"/>
</g>
<defs>
<clipPath id="clip0">
<rect width="50" height="50" fill="white"/>
</clipPath>
</defs>
</svg>
