<svg width="27" height="19" viewBox="0 0 27 19" fill="none" xmlns="http://www.w3.org/2000/svg">
<path fill-rule="evenodd" clip-rule="evenodd" d="M24.3722 7.44937V7.47785C25.6717 7.62025 26.9134 8.47468 27 10.4399V13.7722C27 14.3418 26.538 14.7975 25.9604 14.7975H25.6139V17.4747C25.6139 18.0443 25.1519 18.5 24.5743 18.5H23.5925C23.015 18.5 22.5529 18.0443 22.5529 17.4747V14.7975H4.44706V17.4747C4.44706 18.0443 3.98503 18.5 3.40749 18.5H2.42567C1.84813 18.5 1.3861 18.0443 1.3861 17.4747V14.8259H1.03957C0.462032 14.8259 0 14.3703 0 13.8006V10.4399C0 8.47468 1.24171 7.62025 2.54118 7.47785V7.44937V3.14873C2.54118 1.18354 3.92727 0.5 5.22674 0.5H21.6866C22.9861 0.5 24.3722 1.21203 24.3722 3.14873V7.44937ZM3.58075 3.14873H3.52299V7.44937H4.47594V5C4.47594 4.43038 4.93797 3.97468 5.51551 3.97468H11.8684C12.446 3.97468 12.908 4.43038 12.908 5V7.44937H14.1209V5C14.1209 4.43038 14.5829 3.97468 15.1604 3.97468H21.5134C22.0909 3.97468 22.5529 4.43038 22.5529 5V7.44937H23.3326V3.14873C23.3326 1.81013 22.4374 1.52532 21.6866 1.52532H5.22674C4.47594 1.52532 3.58075 1.81013 3.58075 3.14873ZM21.5134 5V7.44937H15.1604V5H21.5134ZM11.9262 7.44937V5H5.57326V7.44937H11.9262ZM3.37861 17.4747H2.39679V14.7975H3.37861V17.4747ZM23.5348 17.4747H24.5166V14.7975H23.5348V17.4747ZM25.8738 13.8006H24.5166H23.5348H3.37861H2.39679H1.0107V12.2911H25.8738V13.8006ZM1.0107 11.2658H25.8738V10.4399C25.8738 8.73101 24.6321 8.47468 23.8813 8.47468H23.3326H21.5134H15.1604H11.8973H5.54438H3.55187H3.00321C2.28128 8.47468 1.0107 8.73101 1.0107 10.4399V11.2658Z" fill="#02B2EE"/>
</svg>
