<svg width="20" height="15" viewBox="0 0 20 15" fill="none" xmlns="http://www.w3.org/2000/svg">
<path id="Combined Shape" fill-rule="evenodd" clip-rule="evenodd" d="M19.2087 1.93711V0.672917L19.0275 0.60148C18.964 0.576604 17.4836 0 15.5094 0C13.3941 0 11.5725 0.646766 10.0896 1.92244C8.60739 0.646766 6.7851 0 4.6698 0C2.69497 0 1.21464 0.576604 1.15299 0.60148L0.969936 0.672917V1.84399C0.372465 1.95624 0 2.15716 0 2.48501V14.5516H8.85654C9.16291 14.8265 9.61101 15 10.1119 15C10.6134 15 11.0608 14.8265 11.3672 14.5516H20V2.48501C19.9994 2.2184 19.6975 2.04427 19.2087 1.93711ZM9.99364 13.5999C9.25888 13.2944 6.72663 12.3294 4.19055 12.3294C3.1882 12.3294 2.30026 12.4837 1.54452 12.7886V1.0722C1.98564 0.924225 3.1882 0.575328 4.66917 0.575328C6.61667 0.575328 8.29022 1.1666 9.65677 2.31854V9.31241L9.99364 8.93992V13.5999ZM15.8565 12.2994C16.8893 12.2994 17.8218 12.464 18.6334 12.7918V1.0722C18.1917 0.924863 16.9847 0.575328 15.5088 0.575328C13.5613 0.575328 11.8878 1.16597 10.5218 2.31854V9.31241L10.1831 8.93864V13.5942C10.9096 13.274 13.3217 12.2994 15.8565 12.2994ZM2.68035 2.61322L2.79921 3.06417C5.76862 2.27377 8.44224 3.72085 8.50662 3.75569L8.5076 3.75622L8.73324 3.34864C8.61819 3.28422 5.85521 1.76872 2.68035 2.61322ZM2.79921 4.38449L2.68035 3.93354C5.85521 3.08904 8.61819 4.6039 8.73324 4.66896L8.5076 5.0759L8.50662 5.07537C8.44222 5.04052 5.76861 3.59346 2.79921 4.38449ZM2.68035 5.17413L2.79921 5.62508C5.76895 4.83523 8.44283 6.28209 8.50664 6.31662L8.5076 6.31713L8.73324 5.90955C8.61819 5.84513 5.85521 4.33027 2.68035 5.17413ZM2.79921 6.98495L2.68035 6.534C5.85521 5.68886 8.61819 7.20436 8.73324 7.27006L8.5076 7.677L8.50662 7.67647C8.44226 7.64164 5.76863 6.19455 2.79921 6.98495ZM2.68035 7.79372L2.79921 8.24467C5.78974 7.44929 8.48026 8.92206 8.5076 8.93736L8.73324 8.52915C8.61819 8.46537 5.85521 6.94987 2.68035 7.79372ZM2.79921 9.53884L2.68035 9.08789C5.85521 8.24404 8.61819 9.75826 8.73324 9.82268L8.5076 10.2303L8.50664 10.2297C8.44284 10.1952 5.76895 8.74836 2.79921 9.53884ZM2.68035 10.3859L2.79921 10.8362C5.76863 10.0458 8.44226 11.4929 8.50662 11.5277L8.5076 11.5283L8.73324 11.122C8.61819 11.0563 5.85521 9.54076 2.68035 10.3859ZM11.8093 3.79014L11.8083 3.79066L11.5827 3.38372C11.6977 3.3193 14.4601 1.8038 17.6355 2.64766L17.516 3.09861C14.5465 2.30881 11.8734 3.75541 11.8093 3.79014ZM11.5827 4.70404L11.8083 5.11098L11.8093 5.11045C11.874 5.07541 14.5469 3.62859 17.516 4.41957L17.6355 3.96798C14.4601 3.12349 11.6977 4.63835 11.5827 4.70404ZM11.8083 6.35158L11.5827 5.944C11.6977 5.87958 14.4601 4.36472 17.6355 5.20793L17.516 5.65889C14.5255 4.8635 11.8356 6.33627 11.8083 6.35158ZM11.5827 7.3045L11.8083 7.71144L11.8093 7.71092C11.8734 7.67621 14.5465 6.2296 17.516 7.02003L17.6355 6.56908C14.4601 5.72331 11.6977 7.23881 11.5827 7.3045ZM11.8083 8.97245L11.5827 8.56423C11.6977 8.49917 14.4601 6.98495 17.6355 7.8288L17.516 8.27976C14.5468 7.49004 11.874 8.93688 11.8093 8.97191L11.8083 8.97245ZM11.5827 9.8584L11.8083 10.2653L11.8093 10.2648C11.8734 10.2301 14.5465 8.78349 17.516 9.57393L17.6355 9.12297C14.4601 8.27848 11.6977 9.79334 11.5827 9.8584ZM11.8083 11.5621L11.5827 11.1558C11.6977 11.0913 14.4601 9.5752 17.6355 10.4197L17.516 10.8706C14.5878 10.0906 11.9477 11.4883 11.8134 11.5594C11.8106 11.5609 11.8089 11.5618 11.8083 11.5621Z" fill="#646270"/>
</svg>
