<svg width="50" height="50" viewBox="0 0 50 50" fill="none" xmlns="http://www.w3.org/2000/svg">
<path d="M46.8469 42.6C46.8657 42.4633 46.8751 42.3255 46.8751 42.1875C46.8765 41.4973 46.6489 40.8262 46.228 40.2792C45.8071 39.7322 45.2166 39.3403 44.5491 39.1649C43.8817 38.9894 43.1748 39.0404 42.5394 39.3097C41.9039 39.579 41.3757 40.0515 41.0376 40.6531C40.9008 40.6356 40.7629 40.6278 40.6251 40.6297V10.1562H41.4063C41.6135 10.1562 41.8122 10.0739 41.9587 9.92743C42.1053 9.78091 42.1876 9.5822 42.1876 9.375V6.25C42.1876 6.0428 42.1053 5.84409 41.9587 5.69757C41.8122 5.55106 41.6135 5.46875 41.4063 5.46875H8.59382C8.38662 5.46875 8.1879 5.55106 8.04139 5.69757C7.89488 5.84409 7.81257 6.0428 7.81257 6.25V9.375C7.81257 9.5822 7.89488 9.78091 8.04139 9.92743C8.1879 10.0739 8.38662 10.1562 8.59382 10.1562H9.37507V40.6297C9.2372 40.6282 9.09938 40.636 8.96257 40.6531C8.62441 40.0515 8.09624 39.579 7.46078 39.3097C6.82532 39.0404 6.11848 38.9894 5.45098 39.1649C4.78349 39.3403 4.19304 39.7322 3.77214 40.2792C3.35124 40.8262 3.12367 41.4973 3.12507 42.1875C3.12505 42.3255 3.13444 42.4633 3.15319 42.6C2.55154 42.9382 2.07905 43.4663 1.80974 44.1018C1.54043 44.7372 1.48951 45.4441 1.66496 46.1116C1.84041 46.7791 2.23232 47.3695 2.77929 47.7904C3.32626 48.2113 3.9974 48.4389 4.68757 48.4375H45.3126C46.0027 48.4389 46.6739 48.2113 47.2208 47.7904C47.7678 47.3695 48.1597 46.7791 48.3352 46.1116C48.5106 45.4441 48.4597 44.7372 48.1904 44.1018C47.9211 43.4663 47.4486 42.9382 46.8469 42.6ZM15.6251 45.3125H18.7501V46.875H15.1907C15.4719 46.4021 15.6218 45.8627 15.6251 45.3125ZM20.3126 40.625H24.2188V46.875H20.3126V40.625ZM25.7813 40.625H29.6876V46.875H25.7813V40.625ZM31.2501 45.3125H34.3751C34.3783 45.8627 34.5282 46.4021 34.8094 46.875H31.2501V45.3125ZM34.8094 43.75H31.2501V40.625H32.8126V39.0625H17.1876V40.625H18.7501V43.75H15.1907C14.9185 43.2766 14.5267 42.883 14.0544 42.6087C13.5822 42.3345 13.0462 42.1892 12.5001 42.1875C12.3621 42.1875 12.2243 42.1969 12.0876 42.2156C11.8121 41.7373 11.4155 41.3401 10.9376 41.0641V36.7187H39.0626V41.0641C38.5845 41.3399 38.1878 41.7372 37.9126 42.2156C37.7759 42.1969 37.638 42.1875 37.5001 42.1875C36.954 42.1892 36.4179 42.3345 35.9457 42.6087C35.4734 42.883 35.0816 43.2766 34.8094 43.75ZM10.9376 20.3125H39.0626V21.875H10.9376V20.3125ZM19.5313 18.75H17.9688V14.0625H19.5313V18.75ZM16.4063 18.75H14.8438V14.0625H16.4063V18.75ZM35.1563 18.75H33.5938V14.0625H35.1563V18.75ZM32.0313 18.75H30.4688V14.0625H32.0313V18.75ZM30.4688 32.0312V27.3437H32.0313V32.0312H30.4688ZM33.5938 27.3437H35.1563V32.0312H33.5938V27.3437ZM35.9376 25.7812H29.6876C29.4804 25.7812 29.2817 25.8636 29.1351 26.0101C28.9886 26.1566 28.9063 26.3553 28.9063 26.5625V32.0312H25.7813V23.4375H39.0626V32.0312H36.7188V26.5625C36.7188 26.3553 36.6365 26.1566 36.49 26.0101C36.3435 25.8636 36.1448 25.7812 35.9376 25.7812ZM10.9376 23.4375H24.2188V32.0312H21.0938V26.5625C21.0938 26.3553 21.0115 26.1566 20.865 26.0101C20.7185 25.8636 20.5198 25.7812 20.3126 25.7812H14.0626C13.8554 25.7812 13.6567 25.8636 13.5101 26.0101C13.3636 26.1566 13.2813 26.3553 13.2813 26.5625V32.0312H10.9376V23.4375ZM14.8438 32.0312V27.3437H16.4063V32.0312H14.8438ZM17.9688 27.3437H19.5313V32.0312H17.9688V27.3437ZM10.9376 33.5937H39.0626V35.1562H10.9376V33.5937ZM39.0626 18.75H36.7188V13.2812C36.7188 13.074 36.6365 12.8753 36.49 12.7288C36.3435 12.5823 36.1448 12.5 35.9376 12.5H29.6876C29.4804 12.5 29.2817 12.5823 29.1351 12.7288C28.9886 12.8753 28.9063 13.074 28.9063 13.2812V18.75H25.7813V10.1562H39.0626V18.75ZM9.37507 7.03125H40.6251V8.59375H9.37507V7.03125ZM24.2188 10.1562V18.75H21.0938V13.2812C21.0938 13.074 21.0115 12.8753 20.865 12.7288C20.7185 12.5823 20.5198 12.5 20.3126 12.5H14.0626C13.8554 12.5 13.6567 12.5823 13.5101 12.7288C13.3636 12.8753 13.2813 13.074 13.2813 13.2812V18.75H10.9376V10.1562H24.2188ZM4.68757 46.875C4.30913 46.8763 3.9432 46.7396 3.65817 46.4907C3.37314 46.2418 3.18852 45.8975 3.13884 45.5224C3.08916 45.1472 3.1778 44.7668 3.38821 44.4523C3.59862 44.1377 3.91638 43.9106 4.2821 43.8133C4.38853 43.7845 4.48765 43.7335 4.57295 43.6636C4.65825 43.5937 4.7278 43.5066 4.77702 43.4079C4.82624 43.3093 4.85402 43.2013 4.85853 43.0911C4.86304 42.981 4.84418 42.8711 4.80319 42.7687C4.7239 42.5719 4.6857 42.361 4.69094 42.1488C4.69617 41.9367 4.74474 41.7279 4.83365 41.5352C4.92256 41.3425 5.04993 41.1701 5.20794 41.0284C5.36595 40.8868 5.55126 40.7789 5.75247 40.7115C5.95368 40.6442 6.16656 40.6186 6.378 40.6365C6.58944 40.6544 6.79499 40.7154 6.98201 40.8156C7.16903 40.9159 7.33357 41.0534 7.46552 41.2195C7.59747 41.3857 7.69404 41.5771 7.74929 41.782C7.7781 41.8885 7.82912 41.9876 7.89898 42.0729C7.96884 42.1582 8.05597 42.2277 8.15463 42.2769C8.25329 42.3262 8.36126 42.3539 8.47142 42.3585C8.58159 42.363 8.69146 42.3441 8.79382 42.3031C8.99801 42.2226 9.21688 42.186 9.43616 42.1957C9.65545 42.2054 9.87023 42.2612 10.0665 42.3594C10.2628 42.4577 10.4362 42.5962 10.5754 42.7659C10.7145 42.9356 10.8164 43.1328 10.8743 43.3445C10.9031 43.451 10.9541 43.5501 11.024 43.6354C11.0938 43.7207 11.181 43.7902 11.2796 43.8394C11.3783 43.8887 11.4863 43.9164 11.5964 43.921C11.7066 43.9255 11.8165 43.9066 11.9188 43.8656C12.1328 43.7784 12.3634 43.7397 12.5941 43.7524C12.8247 43.765 13.0497 43.8286 13.2529 43.9387C13.456 44.0487 13.6322 44.2024 13.7688 44.3887C13.9054 44.5751 13.999 44.7894 14.0428 45.0162C14.0866 45.243 14.0796 45.4768 14.0222 45.7006C13.9648 45.9244 13.8585 46.1326 13.711 46.3104C13.5634 46.4882 13.3783 46.631 13.1689 46.7287C12.9595 46.8263 12.7311 46.8763 12.5001 46.875H4.68757ZM45.3126 46.875H37.5001C37.269 46.8763 37.0406 46.8263 36.8312 46.7287C36.6218 46.631 36.4367 46.4882 36.2892 46.3104C36.1416 46.1326 36.0353 45.9244 35.9779 45.7006C35.9206 45.4768 35.9135 45.243 35.9573 45.0162C36.0012 44.7894 36.0947 44.5751 36.2313 44.3887C36.3679 44.2024 36.5441 44.0487 36.7472 43.9387C36.9504 43.8286 37.1754 43.765 37.4061 43.7524C37.6368 43.7397 37.8674 43.7784 38.0813 43.8656C38.1837 43.9066 38.2935 43.9255 38.4037 43.921C38.5139 43.9164 38.6218 43.8887 38.7205 43.8394C38.8192 43.7902 38.9063 43.7207 38.9762 43.6354C39.046 43.5501 39.097 43.451 39.1258 43.3445C39.1837 43.1328 39.2856 42.9356 39.4248 42.7659C39.564 42.5962 39.7373 42.4577 39.9336 42.3594C40.1299 42.2612 40.3447 42.2054 40.564 42.1957C40.7833 42.186 41.0021 42.2226 41.2063 42.3031C41.3087 42.3441 41.4185 42.363 41.5287 42.3585C41.6389 42.3539 41.7468 42.3262 41.8455 42.2769C41.9442 42.2277 42.0313 42.1582 42.1012 42.0729C42.171 41.9876 42.222 41.8885 42.2508 41.782C42.3048 41.5756 42.4005 41.3825 42.5322 41.2146C42.6639 41.0468 42.8286 40.9078 43.0163 40.8062C43.2039 40.7047 43.4104 40.6428 43.6229 40.6244C43.8355 40.606 44.0495 40.6314 44.2518 40.6992C44.4541 40.7669 44.6403 40.8755 44.7989 41.0182C44.9575 41.1609 45.085 41.3347 45.1736 41.5288C45.2623 41.7228 45.3101 41.933 45.3141 42.1463C45.3181 42.3596 45.2782 42.5715 45.1969 42.7687C45.156 42.8711 45.1371 42.981 45.1416 43.0911C45.1461 43.2013 45.1739 43.3093 45.2231 43.4079C45.2723 43.5066 45.3419 43.5937 45.4272 43.6636C45.5125 43.7335 45.6116 43.7845 45.718 43.8133C46.0837 43.9106 46.4015 44.1377 46.6119 44.4523C46.8223 44.7668 46.911 45.1472 46.8613 45.5224C46.8116 45.8975 46.627 46.2418 46.342 46.4907C46.0569 46.7396 45.691 46.8763 45.3126 46.875Z" fill="#02B2EE"/>
<path d="M14.0625 38.2812H12.5V39.8438H14.0625V38.2812Z" fill="#02B2EE"/>
<path d="M37.5 38.2812H35.9375V39.8438H37.5V38.2812Z" fill="#02B2EE"/>
<path d="M7.8125 14.0625H6.25V28.125H7.8125V14.0625Z" fill="#02B2EE"/>
<path d="M43.75 25H42.1875V36.7188H43.75V25Z" fill="#02B2EE"/>
<path d="M35.9375 2.34375H21.0938V3.90625H35.9375V2.34375Z" fill="#02B2EE"/>
<path d="M39.0625 2.34375H37.5V3.90625H39.0625V2.34375Z" fill="#02B2EE"/>
</svg>
