<svg width="28" height="27" viewBox="0 0 28 27" fill="none" xmlns="http://www.w3.org/2000/svg">
<path fill-rule="evenodd" clip-rule="evenodd" d="M26.7467 23.4152C26.7467 24.0471 26.2356 24.5593 25.6051 24.5593H2.52045C1.88994 24.5593 1.37891 24.0471 1.37891 23.4152V5.20547C1.37891 4.57356 1.88994 4.0614 2.52045 4.0614H25.6051C26.2356 4.0614 26.7467 4.57356 26.7467 5.20547V23.4152Z" stroke="#02B2EE" stroke-width="1.14154"/>
<path d="M18.312 8.16101H24.1464" stroke="#02B2EE" stroke-width="1.14154"/>
<path d="M10.5112 8.16101H17.0431" stroke="#02B2EE" stroke-width="1.14154"/>
<path d="M3.88379 8.16101H9.24258" stroke="#02B2EE" stroke-width="1.14154"/>
<path d="M7.30842 2.44067V5.58686" stroke="#02B2EE" stroke-width="1.14154"/>
<path d="M13.3968 2.44067V5.58686" stroke="#02B2EE" stroke-width="1.14154"/>
<path d="M19.8656 2.44067V5.58686" stroke="#02B2EE" stroke-width="1.14154"/>
<rect x="9.21094" y="11.7839" width="2.1404" height="2.14513" stroke="#02B2EE" stroke-width="0.761029"/>
<rect x="13.0161" y="11.7839" width="2.1404" height="2.14513" stroke="#02B2EE" stroke-width="0.761029"/>
<rect x="16.8213" y="11.7839" width="2.1404" height="2.14513" stroke="#02B2EE" stroke-width="0.761029"/>
<rect x="20.6265" y="11.7839" width="2.1404" height="2.14513" stroke="#02B2EE" stroke-width="0.761029"/>
<rect x="5.40576" y="15.5974" width="2.1404" height="2.14513" stroke="#02B2EE" stroke-width="0.761029"/>
<rect x="9.21094" y="15.5974" width="2.1404" height="2.14513" stroke="#02B2EE" stroke-width="0.761029"/>
<rect x="13.0161" y="15.5974" width="2.1404" height="2.14513" stroke="#02B2EE" stroke-width="0.761029"/>
<rect x="16.8213" y="15.5974" width="2.1404" height="2.14513" stroke="#02B2EE" stroke-width="0.761029"/>
<rect x="20.6265" y="15.5974" width="2.1404" height="2.14513" stroke="#02B2EE" stroke-width="0.761029"/>
<rect x="5.40576" y="19.411" width="2.1404" height="2.14513" stroke="#02B2EE" stroke-width="0.761029"/>
<rect x="9.21094" y="19.411" width="2.1404" height="2.14513" stroke="#02B2EE" stroke-width="0.761029"/>
<rect x="13.0161" y="19.411" width="2.1404" height="2.14513" stroke="#02B2EE" stroke-width="0.761029"/>
<rect x="16.8213" y="19.411" width="2.1404" height="2.14513" stroke="#02B2EE" stroke-width="0.761029"/>
</svg>
