<svg width="15" height="15" viewBox="0 0 15 15" fill="none" xmlns="http://www.w3.org/2000/svg">
<path d="M13.9815 11.4487L11.8856 9.34782C11.4682 8.93109 10.7769 8.94375 10.3448 9.3769L9.28892 10.435C9.22221 10.3981 9.15316 10.3596 9.08056 10.3188C8.41376 9.94849 7.50112 9.44095 6.54077 8.47771C5.57756 7.51244 5.0707 6.59633 4.7001 5.92759C4.66099 5.85674 4.62352 5.78843 4.58652 5.72356L5.2952 5.01433L5.64361 4.6647C6.07628 4.23093 6.08821 3.53823 5.67172 3.12029L3.57583 1.01918C3.15934 0.601827 2.4677 0.614488 2.03503 1.04825L1.44434 1.64369L1.46048 1.65975C1.26241 1.91305 1.0969 2.2052 0.973729 2.52025C0.860191 2.82014 0.789502 3.1063 0.75718 3.39306C0.48043 5.69257 1.52887 7.79415 4.37418 10.646C8.30728 14.5877 11.4768 14.2899 11.6136 14.2754C11.9114 14.2397 12.1968 14.1684 12.4868 14.0555C12.7984 13.9335 13.0897 13.7678 13.3423 13.5697L13.3552 13.5812L13.9536 12.9939C14.3854 12.5602 14.3978 11.8673 13.9815 11.4487Z" fill="#02B2EE"/>
</svg>
