<svg width="41" height="41" viewBox="0 0 41 41" fill="none" xmlns="http://www.w3.org/2000/svg">
<g id="phone-call copy">
<path id="Combined Shape" fill-rule="evenodd" clip-rule="evenodd" d="M29.3648 2.34113C26.4788 0.803854 23.262 0 19.9955 0C8.94953 0.0028255 -0.00281113 9.00112 6.62173e-07 20.0984C0.00130711 25.3275 2.0317 30.3503 5.66006 34.0997L4.85651 40.0575C4.78218 40.497 5.07648 40.9139 5.51402 40.9886C5.71601 41.0231 5.92343 40.9788 6.09398 40.8647L10.6261 37.8455C20.3851 43.044 32.4911 39.3104 37.6657 29.5062C42.8403 19.7019 39.1237 7.53964 29.3648 2.34113ZM33.1187 33.1407C29.6439 36.642 24.9171 38.5984 19.9955 38.5721C16.8221 38.5621 13.7052 37.7278 10.9475 36.1502C10.6989 36.006 10.3925 36.006 10.1439 36.1502L6.69665 38.4429L7.3395 33.8656C7.37415 33.6127 7.28777 33.3582 7.10647 33.1794C-0.0872852 25.9737 -0.104562 14.2736 7.0679 7.04649C14.2404 -0.18063 25.8864 -0.197987 33.0801 7.00774C40.2737 14.2135 40.2911 25.9135 33.1187 33.1407ZM25.185 24.4381C24.9515 24.3146 24.6725 24.3146 24.4389 24.4381L22.8343 25.2463C22.5053 25.2463 20.7563 25.0524 18.8708 21.3345C17.2662 17.4308 18.1247 15.9517 18.3172 15.6769L19.986 14.9333C20.2282 14.8261 20.4023 14.6053 20.4514 14.3433C21.5345 8.68574 20.0181 6.52777 18.5579 5.69529C17.9679 5.40009 17.3149 5.25572 16.6564 5.27501C15.1453 5.20662 13.761 6.12214 13.2225 7.54614C12.1956 10.1567 11.0001 15.685 14.5865 23.3793C18.1728 31.0737 23.2595 33.5549 25.9232 34.3874C26.279 34.4995 26.6496 34.5566 27.0223 34.5571C28.8305 34.4486 30.3344 33.1168 30.6729 31.3242C30.9537 29.6916 30.2236 27.1376 25.185 24.4381ZM29.0923 31.0898C28.8749 32.0958 28.0393 32.8462 27.0223 32.9488C26.8127 32.9477 26.6045 32.9149 26.4046 32.8518C23.9976 32.092 19.4244 29.7563 15.9745 22.6843C12.5245 15.6123 13.72 10.5123 14.6587 8.13614C14.9717 7.3165 15.7886 6.80752 16.6564 6.89147C17.0394 6.88238 17.4189 6.96553 17.7636 7.13394C19.1276 7.94217 19.5367 10.2214 18.943 13.6563L17.4587 14.2948C17.3925 14.324 17.3304 14.362 17.2742 14.408C17.0415 14.602 15.0919 16.4286 17.3544 22.0377C19.5769 26.4183 21.8875 26.8871 22.7781 26.8871C22.9168 26.9024 23.0566 26.9024 23.1953 26.8871C23.2596 26.8706 23.3216 26.8461 23.3798 26.8143L24.7678 26.095C27.8247 27.7599 29.349 29.538 29.0923 31.0898Z" fill="#02B2EE"/>
</g>
</svg>
