<svg width="41" height="41" viewBox="0 0 41 41" fill="none" xmlns="http://www.w3.org/2000/svg">
<g id="phone-call copy">
<path id="Shape" fill-rule="evenodd" clip-rule="evenodd" d="M26.7008 27.5929V28.2818C29.5982 28.8359 41.1651 31.5239 40.9684 39.1614C40.9684 39.5749 40.6297 39.9101 40.2119 39.9101H1.75898C1.3412 39.9101 1.00248 39.5749 1.00248 39.1614C0.805788 31.5239 12.3727 28.8359 15.2701 28.2818V27.5929C15.0722 27.433 14.8829 27.2631 14.7027 27.0837C13.2453 25.4981 12.3271 23.5 12.0777 21.3706C10.7682 21.1664 9.59056 20.4655 8.79444 19.4164C7.69751 17.8814 7.59917 15.6875 8.51454 12.9021C8.56834 12.7423 8.67491 12.6051 8.81714 12.5127L9.23321 12.2357C9.17184 9.7359 10.0447 7.30166 11.6843 5.39941C13.7193 3.16059 16.8512 2 20.9817 2C25.1197 2.01498 28.2441 3.16059 30.2791 5.42936C31.9187 7.33161 32.7915 9.76585 32.7301 12.2656L33.1462 12.5427C33.2884 12.635 33.395 12.7723 33.4488 12.932C34.3642 15.7025 34.2658 17.9113 33.1689 19.4463C32.3698 20.4881 31.1922 21.1811 29.8857 21.3781C29.6373 23.5041 28.7219 25.4994 27.2682 27.0837C27.0866 27.2634 26.8975 27.4357 26.7008 27.5929ZM10.02 18.5403C10.4206 19.0818 10.9809 19.4872 11.6238 19.7009C10.7105 18.6737 10.2645 17.3197 10.3907 15.957C10.5381 15.1379 10.9752 14.3974 11.6238 13.868C11.9717 6.36532 17.2673 5.54167 19.5368 5.54167C20.0204 5.54027 20.5035 5.57528 20.9817 5.6465C21.46 5.57537 21.943 5.54027 22.4266 5.54167C24.7112 5.54167 30.0143 6.3803 30.3396 13.868C30.984 14.4017 31.4158 15.1447 31.5576 15.9645C31.6829 17.3271 31.237 18.6807 30.3245 19.7084C30.9697 19.4952 31.5324 19.0898 31.9358 18.5478C32.715 17.4546 32.7604 15.7923 32.0871 13.6134L31.5349 13.2465C31.3025 13.093 31.1746 12.8253 31.202 12.5501C31.3293 10.3123 30.5939 8.10986 29.1443 6.38778C27.4044 4.47094 24.6583 3.48256 20.9817 3.49754C17.3051 3.51251 14.559 4.47094 12.8493 6.38778C11.3997 8.10986 10.6643 10.3123 10.7916 12.5501C10.819 12.8253 10.6911 13.093 10.4587 13.2465L9.9065 13.6134C9.23321 15.7998 9.3013 17.4546 10.0578 18.5478L10.02 18.5403ZM28.8342 13.561C25.6598 13.7426 22.5053 12.9587 19.794 11.3147C19.4871 11.1014 19.0687 11.1428 18.8105 11.412C17.2975 13.0219 14.5363 13.3963 13.2048 13.4786C13.6134 8.18483 16.8512 7.03172 19.5746 7.03172C20.0081 7.02864 20.441 7.06373 20.8682 7.13655C20.9681 7.15677 21.0709 7.15677 21.1708 7.13655C21.598 7.06392 22.0309 7.02882 22.4644 7.03172C25.1651 7.03172 28.4181 8.21478 28.7963 13.5535L28.8342 13.561ZM13.4999 19.8506L13.4696 19.8432L13.4696 19.8456C13.4688 19.9604 13.4417 23.724 15.8072 26.0579C17.1487 27.3297 18.96 27.9986 20.8152 27.9074H21.1935C23.0527 28.0005 24.868 27.3284 26.2091 26.0504C27.2373 24.9408 27.9385 23.5734 28.2365 22.0969L24.7642 23.9389C24.7676 24.0063 24.7676 24.0737 24.7642 24.1411C24.7645 24.6929 24.5509 25.2239 24.1676 25.6247C23.3404 26.4895 21.9613 26.5268 21.0876 25.7081C20.2138 24.8893 20.1761 23.5244 21.0033 22.6596C21.8306 21.7947 23.2096 21.7574 24.0833 22.5762L28.4862 20.24V19.8506C28.4846 19.6661 28.5519 19.4874 28.6753 19.349C29.7117 18.1734 30.1883 17.0877 30.0597 16.2191C29.9918 15.7412 29.7496 15.3045 29.3788 14.9911C28.8417 15.0735 28.3273 15.0735 27.8204 15.0735C24.8723 15.0555 21.9792 14.2816 19.4233 12.8272C17.1538 14.7665 13.6134 14.9537 12.6148 14.9537C12.2336 15.2756 11.988 15.727 11.9264 16.2191C11.7978 17.1027 12.2743 18.1734 13.3108 19.349C13.4342 19.4874 13.5015 19.6661 13.4999 19.8506ZM23.2512 24.1411C23.2512 24.5091 22.9497 24.8075 22.5779 24.8075C22.2061 24.8075 21.9046 24.5091 21.9046 24.1411C21.9046 23.7731 22.2061 23.4747 22.5779 23.4747C22.9497 23.4747 23.2512 23.7731 23.2512 24.1411ZM2.53818 38.3677H20.2252V34.3393C17.3505 34.1222 15.2625 32.8268 15.2625 31.1271V29.7868C12.3727 30.3933 3.13581 32.7444 2.53818 38.3677ZM16.7755 31.1271V31.1046V28.5438C18.033 29.121 19.4066 29.4078 20.7925 29.3825H21.1708C22.5567 29.4078 23.9303 29.121 25.1878 28.5438V31.1271C25.1878 31.8384 23.5462 32.8642 20.9817 32.8642C18.4171 32.8642 16.7755 31.8384 16.7755 31.1271ZM21.7382 34.3318V38.3901H39.4252C38.8048 32.7594 29.6134 30.4083 26.7008 29.8093V31.1196C26.7008 32.8343 24.6129 34.1371 21.7382 34.3318Z" fill="#02B2EE"/>
</g>
</svg>
