<svg width="80" height="70" viewBox="0 0 80 70" fill="none" xmlns="http://www.w3.org/2000/svg">
<g id="Group 11">
<path id="Combined Shape" fill-rule="evenodd" clip-rule="evenodd" d="M61.7333 23.3244L64.6549 20.3807C66.2421 18.7823 66.2421 16.1803 64.6549 14.5808C63.0676 12.9819 60.4848 12.9819 58.8976 14.5808L55.7783 17.7232C52.5243 15.4401 48.815 13.8599 44.9286 13.1015V9.02344H47.6429C48.3925 9.02344 49 8.41141 49 7.65625V4.10156C49 1.83983 47.1737 0 44.9286 0H34.0714C31.8263 0 30 1.83983 30 4.10156V7.65625C30 8.41141 30.6075 9.02344 31.3571 9.02344H34.0714V13.1015C30.1855 13.8593 26.4757 15.4401 23.2217 17.7232L20.1024 14.5808C18.5157 12.9819 15.9329 12.9819 14.3451 14.5808C12.7579 16.1798 12.7579 18.7817 14.3451 20.3807L17.2667 23.3244C13.217 28.406 11 34.7356 11 41.2891C11 57.1201 23.7852 70 39.5 70C55.2148 70 68 57.1201 68 41.2891C68 34.7356 65.783 28.406 61.7333 23.3244ZM60.8167 16.5141C61.3463 15.9811 62.2067 15.9817 62.7358 16.5141C63.2643 17.0471 63.2643 17.9144 62.7358 18.4474L59.9314 21.272C59.2994 20.6184 58.6368 19.9951 57.9476 19.405L60.8167 16.5141ZM34.0714 2.73438C33.3229 2.73438 32.7143 3.34747 32.7143 4.10156V6.28906H46.2857V4.10156C46.2857 3.34747 45.6771 2.73438 44.9286 2.73438H34.0714ZM42.2143 9.02344V12.7074C40.4155 12.5375 38.585 12.5375 36.7857 12.7074V9.02344H42.2143ZM18.1833 16.5141C17.6542 15.9811 16.7933 15.9817 16.2642 16.5141C15.7357 17.0471 15.7357 17.9144 16.2642 18.4474L19.0686 21.272C19.7006 20.6184 20.3632 19.9951 21.0524 19.405L18.1833 16.5141ZM39.5 67.2656C25.2818 67.2656 13.7143 55.6125 13.7143 41.2891C13.7143 34.9706 15.9912 28.8829 20.1252 24.1463C21.2639 22.8416 22.5347 21.6496 23.9019 20.6018C27.3281 17.9753 31.3836 16.2466 35.63 15.602C36.9008 15.4102 38.2028 15.3125 39.5 15.3125C40.7972 15.3125 42.0992 15.4102 43.3694 15.602C47.6164 16.2466 51.6719 17.9753 55.0987 20.6018C56.4653 21.6496 57.7361 22.8416 58.8748 24.1463C63.0088 28.8829 65.2857 34.9706 65.2857 41.2891C65.2857 55.6125 53.7182 67.2656 39.5 67.2656ZM39.5 45.3906C41.7451 45.3906 43.5714 43.5508 43.5714 41.2891C43.5714 39.5069 42.4369 37.987 40.8571 37.4225V27.6172C40.8571 26.862 40.2496 26.25 39.5 26.25C38.7504 26.25 38.1429 26.862 38.1429 27.6172V37.4225C36.5631 37.987 35.4286 39.5069 35.4286 41.2891C35.4286 43.5508 37.2549 45.3906 39.5 45.3906ZM39.5 39.9219C40.2486 39.9219 40.8571 40.535 40.8571 41.2891C40.8571 42.0432 40.2486 42.6562 39.5 42.6562C38.7515 42.6562 38.1429 42.0432 38.1429 41.2891C38.1429 40.535 38.7515 39.9219 39.5 39.9219ZM53.9573 26.8652C53.9361 26.8401 53.9149 26.815 53.891 26.7915C53.8656 26.7654 53.8385 26.7419 53.8115 26.7184C51.4195 24.3343 48.4646 22.5703 45.2578 21.6165C44.5384 21.4029 43.784 21.8163 43.572 22.5404C43.3599 23.2646 43.7702 24.0251 44.4891 24.2387C46.8652 24.9458 49.0816 26.1678 50.971 27.7993L50.0555 28.7216C49.5259 29.2557 49.5259 30.1214 50.0555 30.6554C50.3206 30.9225 50.6678 31.056 51.0156 31.056C51.3628 31.056 51.71 30.9225 51.9751 30.6554L52.8928 29.731C55.3484 32.6074 56.8068 36.1482 57.0909 39.9219H55.7857C55.0361 39.9219 54.4286 40.5344 54.4286 41.2891C54.4286 42.0442 55.0361 42.6562 55.7857 42.6562H57.0909C56.8068 46.4304 55.3484 49.9707 52.8928 52.8471L51.9751 51.9227C51.445 51.3892 50.5856 51.3892 50.0555 51.9227C49.5254 52.4567 49.5254 53.3224 50.0555 53.8565L50.9732 54.781C48.1179 57.2547 44.6031 58.7239 40.8571 59.0107V57.6953C40.8571 56.9402 40.2496 56.3281 39.5 56.3281C38.7504 56.3281 38.1429 56.9402 38.1429 57.6953V59.0102C34.3969 58.7239 30.8821 57.2547 28.0268 54.781L28.9445 53.8565C29.4746 53.3224 29.4746 52.4567 28.9445 51.9227C28.4144 51.3892 27.555 51.3892 27.0249 51.9227L26.1072 52.8471C23.6516 49.9707 22.1932 46.4299 21.9091 42.6562H23.2143C23.9639 42.6562 24.5714 42.0442 24.5714 41.2891C24.5714 40.5339 23.9639 39.9219 23.2143 39.9219H21.9091C22.1932 36.1482 23.6516 32.6074 26.1072 29.731L27.0249 30.6554C27.29 30.9225 27.6372 31.056 27.9844 31.056C28.3322 31.056 28.6794 30.9225 28.9445 30.6554C29.4741 30.1214 29.4741 29.2557 28.9445 28.7216L28.029 27.7993C29.9184 26.1672 32.1348 24.9458 34.5109 24.2387C35.2298 24.0251 35.6401 23.2646 35.428 22.5404C35.216 21.8163 34.4621 21.4034 33.7422 21.6165C30.536 22.5698 27.5821 24.3333 25.1906 26.7162C25.1625 26.7403 25.135 26.7648 25.109 26.791C25.0887 26.8114 25.0704 26.8327 25.052 26.8541L25.0438 26.8636C21.2379 30.7334 19.1429 35.8518 19.1429 41.2891C19.1429 46.7258 21.2379 51.8436 25.0427 55.7129C25.0639 55.738 25.0851 55.7631 25.109 55.7866C25.1323 55.8106 25.1567 55.8315 25.1811 55.8528C29.0224 59.6863 34.1027 61.7969 39.5 61.7969C44.8968 61.7969 49.977 59.6868 53.8179 55.8539C53.8428 55.832 53.8677 55.8106 53.891 55.7866C53.9011 55.7767 53.9107 55.7663 53.9201 55.7559C53.927 55.748 53.9339 55.7401 53.9407 55.7323L53.9562 55.7145C57.7621 51.8447 59.8571 46.7263 59.8571 41.2891C59.8571 35.8524 57.7621 30.7345 53.9573 26.8652ZM40.8571 22.1484C40.8571 22.9031 40.2491 23.5156 39.5 23.5156C38.7509 23.5156 38.1429 22.9031 38.1429 22.1484C38.1429 21.3938 38.7509 20.7812 39.5 20.7812C40.2491 20.7812 40.8571 21.3938 40.8571 22.1484Z" fill="#02B2EE"/>
</g>
</svg>
