<svg width="60" height="60" viewBox="0 0 60 60" fill="none" xmlns="http://www.w3.org/2000/svg">
<path d="M49.8655 41.2106C49.4269 41.2106 48.9893 41.2417 48.5558 41.2975V37.4844C48.5558 36.9991 48.1626 36.6055 47.6769 36.6055C47.1917 36.6055 46.798 36.9991 46.798 37.4844V45.6605C46.7371 45.6586 46.6767 45.6559 46.6154 45.6559C45.9489 45.6559 45.3043 45.7529 44.6941 45.9306V37.5736C44.6941 36.4251 43.7598 35.4908 42.6113 35.4908H40.4447C39.2962 35.4908 38.3619 36.4251 38.3619 37.5736V46.9299H35.6675V37.5736C35.6675 36.4251 34.7332 35.4908 33.5851 35.4908H24.2266C23.0781 35.4908 22.1438 36.4251 22.1438 37.5736V46.9299H19.4499V37.5736C19.4499 36.4251 18.5151 35.4908 17.3671 35.4908H15.2005C14.0519 35.4908 13.1177 36.4251 13.1177 37.5736V46.9299H11.0133V28.9283L28.9054 12.8641L46.798 28.9283V33.657C46.798 34.1422 47.1917 34.5359 47.6769 34.5359C48.1626 34.5359 48.5558 34.1422 48.5558 33.657V30.5067L48.8795 30.7969C49.7341 31.5641 51.0534 31.4932 51.8206 30.6385L53.8311 28.3992C54.5983 27.5445 54.5273 26.2252 53.6727 25.458L44.0652 16.8324C43.704 16.5079 43.1483 16.5381 42.8237 16.8988C42.4996 17.2604 42.5294 17.8157 42.8905 18.1402L52.4985 26.7663C52.6317 26.8858 52.6427 27.0918 52.5232 27.225L50.5123 29.4644C50.3928 29.5976 50.1868 29.6086 50.0536 29.4891L29.4927 11.0289C29.1586 10.7291 28.6527 10.7291 28.3186 11.0289L7.75771 29.4886C7.67027 29.5669 7.57277 29.5742 7.52287 29.5715C7.47298 29.5687 7.37685 29.5513 7.29857 29.4639L5.28808 27.225C5.1686 27.0913 5.17959 26.8858 5.31279 26.7659L27.6832 6.68106C28.3799 6.05575 29.4314 6.05575 30.1281 6.68106L40.0414 15.5813C40.4026 15.9059 40.9583 15.8757 41.2824 15.515C41.607 15.1533 41.5768 14.5981 41.216 14.2735L31.3023 5.37323C29.9359 4.14642 27.8755 4.14642 26.509 5.37323L4.13863 25.458C3.28399 26.2252 3.21304 27.5445 3.98025 28.3992L5.99074 30.6385C6.36244 31.0523 6.87285 31.2968 7.42857 31.3265C7.46703 31.3288 7.50502 31.3298 7.54302 31.3298C8.05708 31.3298 8.54643 31.1425 8.93187 30.7969L9.25551 30.5062V41.2486C7.35762 41.4101 5.56685 42.0945 4.03152 43.2545C3.64425 43.547 3.56735 44.0981 3.86031 44.4854C4.03289 44.7143 4.2961 44.8347 4.56206 44.8347C4.74654 44.8347 4.93285 44.7765 5.09124 44.6571C6.31804 43.7301 7.74352 43.1712 9.25551 43.0151V53.8695H2.14508C1.88781 53.0566 1.75781 52.2097 1.75781 51.3445C1.75781 49.9186 2.12402 48.5091 2.81661 47.2686C3.05328 46.8447 2.90176 46.3096 2.47787 46.0725C2.05398 45.8363 1.5184 45.9878 1.28219 46.4117C0.443114 47.9136 0 49.6192 0 51.3445C0 52.6313 0.238037 53.8856 0.707701 55.0721C0.840452 55.4076 1.16455 55.6278 1.52527 55.6278H58.4746C58.8353 55.6278 59.1594 55.4076 59.2922 55.0721C59.7618 53.8856 59.9999 52.6313 59.9999 51.3445C59.9999 45.7566 55.4534 41.2106 49.8655 41.2106ZM40.1197 37.5736C40.1197 37.3947 40.2653 37.2491 40.4447 37.2491H42.6113C42.7903 37.2491 42.9363 37.3947 42.9363 37.5736V46.7257C42.8333 46.7912 42.7322 46.8594 42.6333 46.9299H40.1197V37.5736ZM40.913 48.6877C40.1673 49.7877 39.7311 51.1138 39.7311 52.5402C39.7311 52.9902 39.775 53.4347 39.8606 53.87H35.6675V48.6877H40.913ZM24.2262 37.2491H33.5847C33.7637 37.2491 33.9097 37.3947 33.9097 37.5736V53.87H23.9016V37.5736C23.9016 37.3947 24.0472 37.2491 24.2262 37.2491ZM14.875 37.5736C14.875 37.3947 15.021 37.2491 15.2 37.2491H17.3666C17.5456 37.2491 17.6916 37.3947 17.6916 37.5736V46.9299H14.875V37.5736ZM11.0133 53.87V48.6877H22.1438V53.87H11.0133ZM47.6769 53.87H41.6628C41.5475 53.4388 41.4893 52.9934 41.4893 52.5402C41.4893 49.7135 43.7887 47.4137 46.6154 47.4137C49.442 47.4137 51.7418 49.7135 51.7418 52.5402C51.7418 52.9938 51.6837 53.4388 51.5683 53.87H47.6769ZM57.8548 53.87H53.3706C53.4557 53.4347 53.4996 52.9902 53.4996 52.5402C53.4996 49.4178 51.4095 46.776 48.5558 45.9361V43.0709C48.987 43.0032 49.426 42.9684 49.8655 42.9684C54.4843 42.9684 58.2421 46.7257 58.2421 51.3445C58.2421 52.2097 58.1121 53.0566 57.8548 53.87Z" fill="#02B2EE"/>
<path d="M31.915 47.4352C32.4007 47.4352 32.7939 47.0416 32.7939 46.5563V45.5593C32.7939 45.0741 32.4007 44.6804 31.915 44.6804C31.4294 44.6804 31.0361 45.0741 31.0361 45.5593V46.5563C31.0361 47.0416 31.4294 47.4352 31.915 47.4352Z" fill="#02B2EE"/>
<path d="M23.2168 26.8181C23.2168 29.9552 25.7688 32.5072 28.9054 32.5072C32.0425 32.5072 34.5945 29.9552 34.5945 26.8181C34.5945 23.6815 32.0425 21.1295 28.9054 21.1295C25.7688 21.1295 23.2168 23.6815 23.2168 26.8181ZM32.8367 26.8181C32.8367 28.9861 31.0734 30.7494 28.9054 30.7494C26.7379 30.7494 24.9746 28.9861 24.9746 26.8181C24.9746 24.6506 26.7379 22.8873 28.9054 22.8873C31.0734 22.8873 32.8367 24.6506 32.8367 26.8181Z" fill="#02B2EE"/>
</svg>
