<svg width="83" height="83" viewBox="0 0 83 83" fill="none" xmlns="http://www.w3.org/2000/svg">
<mask id="mask0" mask-type="alpha" maskUnits="userSpaceOnUse" x="0" y="0" width="83" height="83">
<rect width="83" height="83" fill="white"/>
</mask>
<g mask="url(#mask0)">
<path opacity="0.324847" d="M1.10204 16.3264C1.71068 16.3264 2.20408 15.833 2.20408 15.2244C2.20408 14.6157 1.71068 14.1223 1.10204 14.1223C0.4934 14.1223 0 14.6157 0 15.2244C0 15.833 0.4934 16.3264 1.10204 16.3264Z" fill="#02B2EE"/>
<path opacity="0.324847" d="M1.10204 64.2654C1.71068 64.2654 2.20408 63.772 2.20408 63.1633C2.20408 62.5547 1.71068 62.0613 1.10204 62.0613C0.4934 62.0613 0 62.5547 0 63.1633C0 63.772 0.4934 64.2654 1.10204 64.2654Z" fill="#02B2EE"/>
<path opacity="0.324847" d="M49.041 16.3264C49.6496 16.3264 50.143 15.833 50.143 15.2244C50.143 14.6157 49.6496 14.1223 49.041 14.1223C48.4324 14.1223 47.939 14.6157 47.939 15.2244C47.939 15.833 48.4324 16.3264 49.041 16.3264Z" fill="#02B2EE"/>
<path opacity="0.324847" d="M49.041 64.2654C49.6496 64.2654 50.143 63.772 50.143 63.1633C50.143 62.5547 49.6496 62.0613 49.041 62.0613C48.4324 62.0613 47.939 62.5547 47.939 63.1633C47.939 63.772 48.4324 64.2654 49.041 64.2654Z" fill="#02B2EE"/>
<path opacity="0.324847" d="M25.3472 16.3264C25.9558 16.3264 26.4492 15.833 26.4492 15.2244C26.4492 14.6157 25.9558 14.1223 25.3472 14.1223C24.7385 14.1223 24.2451 14.6157 24.2451 15.2244C24.2451 15.833 24.7385 16.3264 25.3472 16.3264Z" fill="#02B2EE"/>
<path opacity="0.324847" d="M25.3472 64.2654C25.9558 64.2654 26.4492 63.772 26.4492 63.1633C26.4492 62.5547 25.9558 62.0613 25.3472 62.0613C24.7385 62.0613 24.2451 62.5547 24.2451 63.1633C24.2451 63.772 24.7385 64.2654 25.3472 64.2654Z" fill="#02B2EE"/>
<path opacity="0.324847" d="M73.2856 16.3264C73.8943 16.3264 74.3877 15.833 74.3877 15.2244C74.3877 14.6157 73.8943 14.1223 73.2856 14.1223C72.677 14.1223 72.1836 14.6157 72.1836 15.2244C72.1836 15.833 72.677 16.3264 73.2856 16.3264Z" fill="#02B2EE"/>
<path opacity="0.324847" d="M73.2856 64.2654C73.8943 64.2654 74.3877 63.772 74.3877 63.1633C74.3877 62.5547 73.8943 62.0613 73.2856 62.0613C72.677 62.0613 72.1836 62.5547 72.1836 63.1633C72.1836 63.772 72.677 64.2654 73.2856 64.2654Z" fill="#02B2EE"/>
<path opacity="0.324847" d="M1.10204 40.5713C1.71068 40.5713 2.20408 40.0779 2.20408 39.4692C2.20408 38.8606 1.71068 38.3672 1.10204 38.3672C0.4934 38.3672 0 38.8606 0 39.4692C0 40.0779 0.4934 40.5713 1.10204 40.5713Z" fill="#02B2EE"/>
<path opacity="0.324847" d="M49.041 40.5713C49.6496 40.5713 50.143 40.0779 50.143 39.4692C50.143 38.8606 49.6496 38.3672 49.041 38.3672C48.4324 38.3672 47.939 38.8606 47.939 39.4692C47.939 40.0779 48.4324 40.5713 49.041 40.5713Z" fill="#02B2EE"/>
<path opacity="0.324847" d="M25.3472 40.5713C25.9558 40.5713 26.4492 40.0779 26.4492 39.4692C26.4492 38.8606 25.9558 38.3672 25.3472 38.3672C24.7385 38.3672 24.2451 38.8606 24.2451 39.4692C24.2451 40.0779 24.7385 40.5713 25.3472 40.5713Z" fill="#02B2EE"/>
<path opacity="0.324847" d="M73.2856 40.5713C73.8943 40.5713 74.3877 40.0779 74.3877 39.4692C74.3877 38.8606 73.8943 38.3672 73.2856 38.3672C72.677 38.3672 72.1836 38.8606 72.1836 39.4692C72.1836 40.0779 72.677 40.5713 73.2856 40.5713Z" fill="#02B2EE"/>
<path opacity="0.324847" d="M1.10204 28.449C1.71068 28.449 2.20408 27.9556 2.20408 27.3469C2.20408 26.7383 1.71068 26.2449 1.10204 26.2449C0.4934 26.2449 0 26.7383 0 27.3469C0 27.9556 0.4934 28.449 1.10204 28.449Z" fill="#02B2EE"/>
<path opacity="0.324847" d="M1.10204 76.3877C1.71068 76.3877 2.20408 75.8943 2.20408 75.2856C2.20408 74.677 1.71068 74.1836 1.10204 74.1836C0.4934 74.1836 0 74.677 0 75.2856C0 75.8943 0.4934 76.3877 1.10204 76.3877Z" fill="#02B2EE"/>
<path opacity="0.324847" d="M49.041 28.449C49.6496 28.449 50.143 27.9556 50.143 27.3469C50.143 26.7383 49.6496 26.2449 49.041 26.2449C48.4324 26.2449 47.939 26.7383 47.939 27.3469C47.939 27.9556 48.4324 28.449 49.041 28.449Z" fill="#02B2EE"/>
<path opacity="0.324847" d="M49.041 76.3877C49.6496 76.3877 50.143 75.8943 50.143 75.2856C50.143 74.677 49.6496 74.1836 49.041 74.1836C48.4324 74.1836 47.939 74.677 47.939 75.2856C47.939 75.8943 48.4324 76.3877 49.041 76.3877Z" fill="#02B2EE"/>
<path opacity="0.324847" d="M25.3472 28.449C25.9558 28.449 26.4492 27.9556 26.4492 27.3469C26.4492 26.7383 25.9558 26.2449 25.3472 26.2449C24.7385 26.2449 24.2451 26.7383 24.2451 27.3469C24.2451 27.9556 24.7385 28.449 25.3472 28.449Z" fill="#02B2EE"/>
<path opacity="0.324847" d="M25.3472 76.3877C25.9558 76.3877 26.4492 75.8943 26.4492 75.2856C26.4492 74.677 25.9558 74.1836 25.3472 74.1836C24.7385 74.1836 24.2451 74.677 24.2451 75.2856C24.2451 75.8943 24.7385 76.3877 25.3472 76.3877Z" fill="#02B2EE"/>
<path opacity="0.324847" d="M73.2856 28.449C73.8943 28.449 74.3877 27.9556 74.3877 27.3469C74.3877 26.7383 73.8943 26.2449 73.2856 26.2449C72.677 26.2449 72.1836 26.7383 72.1836 27.3469C72.1836 27.9556 72.677 28.449 73.2856 28.449Z" fill="#02B2EE"/>
<path opacity="0.324847" d="M73.2856 76.3877C73.8943 76.3877 74.3877 75.8943 74.3877 75.2856C74.3877 74.677 73.8943 74.1836 73.2856 74.1836C72.677 74.1836 72.1836 74.677 72.1836 75.2856C72.1836 75.8943 72.677 76.3877 73.2856 76.3877Z" fill="#02B2EE"/>
<path opacity="0.324847" d="M1.10204 4.20408C1.71068 4.20408 2.20408 3.71068 2.20408 3.10204C2.20408 2.4934 1.71068 2 1.10204 2C0.4934 2 0 2.4934 0 3.10204C0 3.71068 0.4934 4.20408 1.10204 4.20408Z" fill="#02B2EE"/>
<path opacity="0.324847" d="M1.10204 52.1428C1.71068 52.1428 2.20408 51.6494 2.20408 51.0408C2.20408 50.4321 1.71068 49.9387 1.10204 49.9387C0.4934 49.9387 0 50.4321 0 51.0408C0 51.6494 0.4934 52.1428 1.10204 52.1428Z" fill="#02B2EE"/>
<path opacity="0.324847" d="M49.041 4.20408C49.6496 4.20408 50.143 3.71068 50.143 3.10204C50.143 2.4934 49.6496 2 49.041 2C48.4324 2 47.939 2.4934 47.939 3.10204C47.939 3.71068 48.4324 4.20408 49.041 4.20408Z" fill="#02B2EE"/>
<path opacity="0.324847" d="M49.041 52.1428C49.6496 52.1428 50.143 51.6494 50.143 51.0408C50.143 50.4321 49.6496 49.9387 49.041 49.9387C48.4324 49.9387 47.939 50.4321 47.939 51.0408C47.939 51.6494 48.4324 52.1428 49.041 52.1428Z" fill="#02B2EE"/>
<path opacity="0.324847" d="M25.3472 4.20408C25.9558 4.20408 26.4492 3.71068 26.4492 3.10204C26.4492 2.4934 25.9558 2 25.3472 2C24.7385 2 24.2451 2.4934 24.2451 3.10204C24.2451 3.71068 24.7385 4.20408 25.3472 4.20408Z" fill="#02B2EE"/>
<path opacity="0.324847" d="M25.3472 52.1428C25.9558 52.1428 26.4492 51.6494 26.4492 51.0408C26.4492 50.4321 25.9558 49.9387 25.3472 49.9387C24.7385 49.9387 24.2451 50.4321 24.2451 51.0408C24.2451 51.6494 24.7385 52.1428 25.3472 52.1428Z" fill="#02B2EE"/>
<path opacity="0.324847" d="M73.2856 4.20408C73.8943 4.20408 74.3877 3.71068 74.3877 3.10204C74.3877 2.4934 73.8943 2 73.2856 2C72.677 2 72.1836 2.4934 72.1836 3.10204C72.1836 3.71068 72.677 4.20408 73.2856 4.20408Z" fill="#02B2EE"/>
<path opacity="0.324847" d="M73.2856 52.1428C73.8943 52.1428 74.3877 51.6494 74.3877 51.0408C74.3877 50.4321 73.8943 49.9387 73.2856 49.9387C72.677 49.9387 72.1836 50.4321 72.1836 51.0408C72.1836 51.6494 72.677 52.1428 73.2856 52.1428Z" fill="#02B2EE"/>
<path opacity="0.324847" d="M1.10204 22.3877C1.71068 22.3877 2.20408 21.8943 2.20408 21.2856C2.20408 20.677 1.71068 20.1836 1.10204 20.1836C0.4934 20.1836 0 20.677 0 21.2856C0 21.8943 0.4934 22.3877 1.10204 22.3877Z" fill="#02B2EE"/>
<path opacity="0.324847" d="M1.10204 70.3264C1.71068 70.3264 2.20408 69.833 2.20408 69.2244C2.20408 68.6157 1.71068 68.1223 1.10204 68.1223C0.4934 68.1223 0 68.6157 0 69.2244C0 69.833 0.4934 70.3264 1.10204 70.3264Z" fill="#02B2EE"/>
<path opacity="0.324847" d="M49.041 22.3877C49.6496 22.3877 50.143 21.8943 50.143 21.2856C50.143 20.677 49.6496 20.1836 49.041 20.1836C48.4324 20.1836 47.939 20.677 47.939 21.2856C47.939 21.8943 48.4324 22.3877 49.041 22.3877Z" fill="#02B2EE"/>
<path opacity="0.324847" d="M49.041 70.3264C49.6496 70.3264 50.143 69.833 50.143 69.2244C50.143 68.6157 49.6496 68.1223 49.041 68.1223C48.4324 68.1223 47.939 68.6157 47.939 69.2244C47.939 69.833 48.4324 70.3264 49.041 70.3264Z" fill="#02B2EE"/>
<path opacity="0.324847" d="M25.3472 22.3877C25.9558 22.3877 26.4492 21.8943 26.4492 21.2856C26.4492 20.677 25.9558 20.1836 25.3472 20.1836C24.7385 20.1836 24.2451 20.677 24.2451 21.2856C24.2451 21.8943 24.7385 22.3877 25.3472 22.3877Z" fill="#02B2EE"/>
<path opacity="0.324847" d="M25.3472 70.3264C25.9558 70.3264 26.4492 69.833 26.4492 69.2244C26.4492 68.6157 25.9558 68.1223 25.3472 68.1223C24.7385 68.1223 24.2451 68.6157 24.2451 69.2244C24.2451 69.833 24.7385 70.3264 25.3472 70.3264Z" fill="#02B2EE"/>
<path opacity="0.324847" d="M73.2856 22.3877C73.8943 22.3877 74.3877 21.8943 74.3877 21.2856C74.3877 20.677 73.8943 20.1836 73.2856 20.1836C72.677 20.1836 72.1836 20.677 72.1836 21.2856C72.1836 21.8943 72.677 22.3877 73.2856 22.3877Z" fill="#02B2EE"/>
<path opacity="0.324847" d="M73.2856 70.3264C73.8943 70.3264 74.3877 69.833 74.3877 69.2244C74.3877 68.6157 73.8943 68.1223 73.2856 68.1223C72.677 68.1223 72.1836 68.6157 72.1836 69.2244C72.1836 69.833 72.677 70.3264 73.2856 70.3264Z" fill="#02B2EE"/>
<path opacity="0.324847" d="M1.10204 46.6325C1.71068 46.6325 2.20408 46.1391 2.20408 45.5305C2.20408 44.9219 1.71068 44.4285 1.10204 44.4285C0.4934 44.4285 0 44.9219 0 45.5305C0 46.1391 0.4934 46.6325 1.10204 46.6325Z" fill="#02B2EE"/>
<path opacity="0.324847" d="M49.041 46.6325C49.6496 46.6325 50.143 46.1391 50.143 45.5305C50.143 44.9219 49.6496 44.4285 49.041 44.4285C48.4324 44.4285 47.939 44.9219 47.939 45.5305C47.939 46.1391 48.4324 46.6325 49.041 46.6325Z" fill="#02B2EE"/>
<path opacity="0.324847" d="M25.3472 46.6325C25.9558 46.6325 26.4492 46.1391 26.4492 45.5305C26.4492 44.9219 25.9558 44.4285 25.3472 44.4285C24.7385 44.4285 24.2451 44.9219 24.2451 45.5305C24.2451 46.1391 24.7385 46.6325 25.3472 46.6325Z" fill="#02B2EE"/>
<path opacity="0.324847" d="M73.2856 46.6325C73.8943 46.6325 74.3877 46.1391 74.3877 45.5305C74.3877 44.9219 73.8943 44.4285 73.2856 44.4285C72.677 44.4285 72.1836 44.9219 72.1836 45.5305C72.1836 46.1391 72.677 46.6325 73.2856 46.6325Z" fill="#02B2EE"/>
<path opacity="0.324847" d="M1.10204 34.5102C1.71068 34.5102 2.20408 34.0168 2.20408 33.4082C2.20408 32.7996 1.71068 32.3062 1.10204 32.3062C0.4934 32.3062 0 32.7996 0 33.4082C0 34.0168 0.4934 34.5102 1.10204 34.5102Z" fill="#02B2EE"/>
<path opacity="0.324847" d="M1.10204 82.449C1.71068 82.449 2.20408 81.9556 2.20408 81.3469C2.20408 80.7383 1.71068 80.2449 1.10204 80.2449C0.4934 80.2449 0 80.7383 0 81.3469C0 81.9556 0.4934 82.449 1.10204 82.449Z" fill="#02B2EE"/>
<path opacity="0.324847" d="M49.041 34.5102C49.6496 34.5102 50.143 34.0168 50.143 33.4082C50.143 32.7996 49.6496 32.3062 49.041 32.3062C48.4324 32.3062 47.939 32.7996 47.939 33.4082C47.939 34.0168 48.4324 34.5102 49.041 34.5102Z" fill="#02B2EE"/>
<path opacity="0.324847" d="M49.041 82.449C49.6496 82.449 50.143 81.9556 50.143 81.3469C50.143 80.7383 49.6496 80.2449 49.041 80.2449C48.4324 80.2449 47.939 80.7383 47.939 81.3469C47.939 81.9556 48.4324 82.449 49.041 82.449Z" fill="#02B2EE"/>
<path opacity="0.324847" d="M25.3472 34.5102C25.9558 34.5102 26.4492 34.0168 26.4492 33.4082C26.4492 32.7996 25.9558 32.3062 25.3472 32.3062C24.7385 32.3062 24.2451 32.7996 24.2451 33.4082C24.2451 34.0168 24.7385 34.5102 25.3472 34.5102Z" fill="#02B2EE"/>
<path opacity="0.324847" d="M25.3472 82.449C25.9558 82.449 26.4492 81.9556 26.4492 81.3469C26.4492 80.7383 25.9558 80.2449 25.3472 80.2449C24.7385 80.2449 24.2451 80.7383 24.2451 81.3469C24.2451 81.9556 24.7385 82.449 25.3472 82.449Z" fill="#02B2EE"/>
<path opacity="0.324847" d="M73.2856 34.5102C73.8943 34.5102 74.3877 34.0168 74.3877 33.4082C74.3877 32.7996 73.8943 32.3062 73.2856 32.3062C72.677 32.3062 72.1836 32.7996 72.1836 33.4082C72.1836 34.0168 72.677 34.5102 73.2856 34.5102Z" fill="#02B2EE"/>
<path opacity="0.324847" d="M73.2856 82.449C73.8943 82.449 74.3877 81.9556 74.3877 81.3469C74.3877 80.7383 73.8943 80.2449 73.2856 80.2449C72.677 80.2449 72.1836 80.7383 72.1836 81.3469C72.1836 81.9556 72.677 82.449 73.2856 82.449Z" fill="#02B2EE"/>
<path opacity="0.324847" d="M1.10204 10.2654C1.71068 10.2654 2.20408 9.77196 2.20408 9.16332C2.20408 8.55468 1.71068 8.06128 1.10204 8.06128C0.4934 8.06128 0 8.55468 0 9.16332C0 9.77196 0.4934 10.2654 1.10204 10.2654Z" fill="#02B2EE"/>
<path opacity="0.324847" d="M1.10204 58.2041C1.71068 58.2041 2.20408 57.7107 2.20408 57.102C2.20408 56.4934 1.71068 56 1.10204 56C0.4934 56 0 56.4934 0 57.102C0 57.7107 0.4934 58.2041 1.10204 58.2041Z" fill="#02B2EE"/>
<path opacity="0.324847" d="M49.041 10.2654C49.6496 10.2654 50.143 9.77196 50.143 9.16332C50.143 8.55468 49.6496 8.06128 49.041 8.06128C48.4324 8.06128 47.939 8.55468 47.939 9.16332C47.939 9.77196 48.4324 10.2654 49.041 10.2654Z" fill="#02B2EE"/>
<path opacity="0.324847" d="M49.041 58.2041C49.6496 58.2041 50.143 57.7107 50.143 57.102C50.143 56.4934 49.6496 56 49.041 56C48.4324 56 47.939 56.4934 47.939 57.102C47.939 57.7107 48.4324 58.2041 49.041 58.2041Z" fill="#02B2EE"/>
<path opacity="0.324847" d="M25.3472 10.2654C25.9558 10.2654 26.4492 9.77196 26.4492 9.16332C26.4492 8.55468 25.9558 8.06128 25.3472 8.06128C24.7385 8.06128 24.2451 8.55468 24.2451 9.16332C24.2451 9.77196 24.7385 10.2654 25.3472 10.2654Z" fill="#02B2EE"/>
<path opacity="0.324847" d="M25.3472 58.2041C25.9558 58.2041 26.4492 57.7107 26.4492 57.102C26.4492 56.4934 25.9558 56 25.3472 56C24.7385 56 24.2451 56.4934 24.2451 57.102C24.2451 57.7107 24.7385 58.2041 25.3472 58.2041Z" fill="#02B2EE"/>
<path opacity="0.324847" d="M73.2856 10.2654C73.8943 10.2654 74.3877 9.77196 74.3877 9.16332C74.3877 8.55468 73.8943 8.06128 73.2856 8.06128C72.677 8.06128 72.1836 8.55468 72.1836 9.16332C72.1836 9.77196 72.677 10.2654 73.2856 10.2654Z" fill="#02B2EE"/>
<path opacity="0.324847" d="M73.2856 58.2041C73.8943 58.2041 74.3877 57.7107 74.3877 57.102C74.3877 56.4934 73.8943 56 73.2856 56C72.677 56 72.1836 56.4934 72.1836 57.102C72.1836 57.7107 72.677 58.2041 73.2856 58.2041Z" fill="#02B2EE"/>
<path opacity="0.324847" d="M7.16308 16.3264C7.77172 16.3264 8.26512 15.833 8.26512 15.2244C8.26512 14.6157 7.77172 14.1223 7.16308 14.1223C6.55444 14.1223 6.06104 14.6157 6.06104 15.2244C6.06104 15.833 6.55444 16.3264 7.16308 16.3264Z" fill="#02B2EE"/>
<path opacity="0.324847" d="M7.16308 64.2654C7.77172 64.2654 8.26512 63.772 8.26512 63.1633C8.26512 62.5547 7.77172 62.0613 7.16308 62.0613C6.55444 62.0613 6.06104 62.5547 6.06104 63.1633C6.06104 63.772 6.55444 64.2654 7.16308 64.2654Z" fill="#02B2EE"/>
<path opacity="0.324847" d="M55.102 16.3264C55.7107 16.3264 56.2041 15.833 56.2041 15.2244C56.2041 14.6157 55.7107 14.1223 55.102 14.1223C54.4934 14.1223 54 14.6157 54 15.2244C54 15.833 54.4934 16.3264 55.102 16.3264Z" fill="#02B2EE"/>
<path opacity="0.324847" d="M55.102 64.2654C55.7107 64.2654 56.2041 63.772 56.2041 63.1633C56.2041 62.5547 55.7107 62.0613 55.102 62.0613C54.4934 62.0613 54 62.5547 54 63.1633C54 63.772 54.4934 64.2654 55.102 64.2654Z" fill="#02B2EE"/>
<path opacity="0.324847" d="M30.8569 16.3264C31.4656 16.3264 31.959 15.833 31.959 15.2244C31.959 14.6157 31.4656 14.1223 30.8569 14.1223C30.2483 14.1223 29.7549 14.6157 29.7549 15.2244C29.7549 15.833 30.2483 16.3264 30.8569 16.3264Z" fill="#02B2EE"/>
<path opacity="0.324847" d="M30.8569 64.2654C31.4656 64.2654 31.959 63.772 31.959 63.1633C31.959 62.5547 31.4656 62.0613 30.8569 62.0613C30.2483 62.0613 29.7549 62.5547 29.7549 63.1633C29.7549 63.772 30.2483 64.2654 30.8569 64.2654Z" fill="#02B2EE"/>
<path opacity="0.324847" d="M79.3472 16.3264C79.9558 16.3264 80.4492 15.833 80.4492 15.2244C80.4492 14.6157 79.9558 14.1223 79.3472 14.1223C78.7385 14.1223 78.2451 14.6157 78.2451 15.2244C78.2451 15.833 78.7385 16.3264 79.3472 16.3264Z" fill="#02B2EE"/>
<path opacity="0.324847" d="M79.3472 64.2654C79.9558 64.2654 80.4492 63.772 80.4492 63.1633C80.4492 62.5547 79.9558 62.0613 79.3472 62.0613C78.7385 62.0613 78.2451 62.5547 78.2451 63.1633C78.2451 63.772 78.7385 64.2654 79.3472 64.2654Z" fill="#02B2EE"/>
<path opacity="0.324847" d="M7.16308 40.5713C7.77172 40.5713 8.26512 40.0779 8.26512 39.4692C8.26512 38.8606 7.77172 38.3672 7.16308 38.3672C6.55444 38.3672 6.06104 38.8606 6.06104 39.4692C6.06104 40.0779 6.55444 40.5713 7.16308 40.5713Z" fill="#02B2EE"/>
<path opacity="0.324847" d="M55.102 40.5713C55.7107 40.5713 56.2041 40.0779 56.2041 39.4692C56.2041 38.8606 55.7107 38.3672 55.102 38.3672C54.4934 38.3672 54 38.8606 54 39.4692C54 40.0779 54.4934 40.5713 55.102 40.5713Z" fill="#02B2EE"/>
<path opacity="0.324847" d="M30.8569 40.5713C31.4656 40.5713 31.959 40.0779 31.959 39.4692C31.959 38.8606 31.4656 38.3672 30.8569 38.3672C30.2483 38.3672 29.7549 38.8606 29.7549 39.4692C29.7549 40.0779 30.2483 40.5713 30.8569 40.5713Z" fill="#02B2EE"/>
<path opacity="0.324847" d="M79.3472 40.5713C79.9558 40.5713 80.4492 40.0779 80.4492 39.4692C80.4492 38.8606 79.9558 38.3672 79.3472 38.3672C78.7385 38.3672 78.2451 38.8606 78.2451 39.4692C78.2451 40.0779 78.7385 40.5713 79.3472 40.5713Z" fill="#02B2EE"/>
<path opacity="0.324847" d="M7.16308 28.449C7.77172 28.449 8.26512 27.9556 8.26512 27.3469C8.26512 26.7383 7.77172 26.2449 7.16308 26.2449C6.55444 26.2449 6.06104 26.7383 6.06104 27.3469C6.06104 27.9556 6.55444 28.449 7.16308 28.449Z" fill="#02B2EE"/>
<path opacity="0.324847" d="M7.16308 76.3877C7.77172 76.3877 8.26512 75.8943 8.26512 75.2856C8.26512 74.677 7.77172 74.1836 7.16308 74.1836C6.55444 74.1836 6.06104 74.677 6.06104 75.2856C6.06104 75.8943 6.55444 76.3877 7.16308 76.3877Z" fill="#02B2EE"/>
<path opacity="0.324847" d="M55.102 28.449C55.7107 28.449 56.2041 27.9556 56.2041 27.3469C56.2041 26.7383 55.7107 26.2449 55.102 26.2449C54.4934 26.2449 54 26.7383 54 27.3469C54 27.9556 54.4934 28.449 55.102 28.449Z" fill="#02B2EE"/>
<path opacity="0.324847" d="M55.102 76.3877C55.7107 76.3877 56.2041 75.8943 56.2041 75.2856C56.2041 74.677 55.7107 74.1836 55.102 74.1836C54.4934 74.1836 54 74.677 54 75.2856C54 75.8943 54.4934 76.3877 55.102 76.3877Z" fill="#02B2EE"/>
<path opacity="0.324847" d="M30.8569 28.449C31.4656 28.449 31.959 27.9556 31.959 27.3469C31.959 26.7383 31.4656 26.2449 30.8569 26.2449C30.2483 26.2449 29.7549 26.7383 29.7549 27.3469C29.7549 27.9556 30.2483 28.449 30.8569 28.449Z" fill="#02B2EE"/>
<path opacity="0.324847" d="M30.8569 76.3877C31.4656 76.3877 31.959 75.8943 31.959 75.2856C31.959 74.677 31.4656 74.1836 30.8569 74.1836C30.2483 74.1836 29.7549 74.677 29.7549 75.2856C29.7549 75.8943 30.2483 76.3877 30.8569 76.3877Z" fill="#02B2EE"/>
<path opacity="0.324847" d="M79.3472 28.449C79.9558 28.449 80.4492 27.9556 80.4492 27.3469C80.4492 26.7383 79.9558 26.2449 79.3472 26.2449C78.7385 26.2449 78.2451 26.7383 78.2451 27.3469C78.2451 27.9556 78.7385 28.449 79.3472 28.449Z" fill="#02B2EE"/>
<path opacity="0.324847" d="M79.3472 76.3877C79.9558 76.3877 80.4492 75.8943 80.4492 75.2856C80.4492 74.677 79.9558 74.1836 79.3472 74.1836C78.7385 74.1836 78.2451 74.677 78.2451 75.2856C78.2451 75.8943 78.7385 76.3877 79.3472 76.3877Z" fill="#02B2EE"/>
<path opacity="0.324847" d="M7.16308 4.20408C7.77172 4.20408 8.26512 3.71068 8.26512 3.10204C8.26512 2.4934 7.77172 2 7.16308 2C6.55444 2 6.06104 2.4934 6.06104 3.10204C6.06104 3.71068 6.55444 4.20408 7.16308 4.20408Z" fill="#02B2EE"/>
<path opacity="0.324847" d="M7.16308 52.1428C7.77172 52.1428 8.26512 51.6494 8.26512 51.0408C8.26512 50.4321 7.77172 49.9387 7.16308 49.9387C6.55444 49.9387 6.06104 50.4321 6.06104 51.0408C6.06104 51.6494 6.55444 52.1428 7.16308 52.1428Z" fill="#02B2EE"/>
<path opacity="0.324847" d="M55.102 4.20408C55.7107 4.20408 56.2041 3.71068 56.2041 3.10204C56.2041 2.4934 55.7107 2 55.102 2C54.4934 2 54 2.4934 54 3.10204C54 3.71068 54.4934 4.20408 55.102 4.20408Z" fill="#02B2EE"/>
<path opacity="0.324847" d="M55.102 52.1428C55.7107 52.1428 56.2041 51.6494 56.2041 51.0408C56.2041 50.4321 55.7107 49.9387 55.102 49.9387C54.4934 49.9387 54 50.4321 54 51.0408C54 51.6494 54.4934 52.1428 55.102 52.1428Z" fill="#02B2EE"/>
<path opacity="0.324847" d="M30.8569 4.20408C31.4656 4.20408 31.959 3.71068 31.959 3.10204C31.959 2.4934 31.4656 2 30.8569 2C30.2483 2 29.7549 2.4934 29.7549 3.10204C29.7549 3.71068 30.2483 4.20408 30.8569 4.20408Z" fill="#02B2EE"/>
<path opacity="0.324847" d="M30.8569 52.1428C31.4656 52.1428 31.959 51.6494 31.959 51.0408C31.959 50.4321 31.4656 49.9387 30.8569 49.9387C30.2483 49.9387 29.7549 50.4321 29.7549 51.0408C29.7549 51.6494 30.2483 52.1428 30.8569 52.1428Z" fill="#02B2EE"/>
<path opacity="0.324847" d="M79.3472 4.20408C79.9558 4.20408 80.4492 3.71068 80.4492 3.10204C80.4492 2.4934 79.9558 2 79.3472 2C78.7385 2 78.2451 2.4934 78.2451 3.10204C78.2451 3.71068 78.7385 4.20408 79.3472 4.20408Z" fill="#02B2EE"/>
<path opacity="0.324847" d="M79.3472 52.1428C79.9558 52.1428 80.4492 51.6494 80.4492 51.0408C80.4492 50.4321 79.9558 49.9387 79.3472 49.9387C78.7385 49.9387 78.2451 50.4321 78.2451 51.0408C78.2451 51.6494 78.7385 52.1428 79.3472 52.1428Z" fill="#02B2EE"/>
<path opacity="0.324847" d="M7.16308 22.3877C7.77172 22.3877 8.26512 21.8943 8.26512 21.2856C8.26512 20.677 7.77172 20.1836 7.16308 20.1836C6.55444 20.1836 6.06104 20.677 6.06104 21.2856C6.06104 21.8943 6.55444 22.3877 7.16308 22.3877Z" fill="#02B2EE"/>
<path opacity="0.324847" d="M7.16308 70.3264C7.77172 70.3264 8.26512 69.833 8.26512 69.2244C8.26512 68.6157 7.77172 68.1223 7.16308 68.1223C6.55444 68.1223 6.06104 68.6157 6.06104 69.2244C6.06104 69.833 6.55444 70.3264 7.16308 70.3264Z" fill="#02B2EE"/>
<path opacity="0.324847" d="M55.102 22.3877C55.7107 22.3877 56.2041 21.8943 56.2041 21.2856C56.2041 20.677 55.7107 20.1836 55.102 20.1836C54.4934 20.1836 54 20.677 54 21.2856C54 21.8943 54.4934 22.3877 55.102 22.3877Z" fill="#02B2EE"/>
<path opacity="0.324847" d="M55.102 70.3264C55.7107 70.3264 56.2041 69.833 56.2041 69.2244C56.2041 68.6157 55.7107 68.1223 55.102 68.1223C54.4934 68.1223 54 68.6157 54 69.2244C54 69.833 54.4934 70.3264 55.102 70.3264Z" fill="#02B2EE"/>
<path opacity="0.324847" d="M30.8569 22.3877C31.4656 22.3877 31.959 21.8943 31.959 21.2856C31.959 20.677 31.4656 20.1836 30.8569 20.1836C30.2483 20.1836 29.7549 20.677 29.7549 21.2856C29.7549 21.8943 30.2483 22.3877 30.8569 22.3877Z" fill="#02B2EE"/>
<path opacity="0.324847" d="M30.8569 70.3264C31.4656 70.3264 31.959 69.833 31.959 69.2244C31.959 68.6157 31.4656 68.1223 30.8569 68.1223C30.2483 68.1223 29.7549 68.6157 29.7549 69.2244C29.7549 69.833 30.2483 70.3264 30.8569 70.3264Z" fill="#02B2EE"/>
<path opacity="0.324847" d="M79.3472 22.3877C79.9558 22.3877 80.4492 21.8943 80.4492 21.2856C80.4492 20.677 79.9558 20.1836 79.3472 20.1836C78.7385 20.1836 78.2451 20.677 78.2451 21.2856C78.2451 21.8943 78.7385 22.3877 79.3472 22.3877Z" fill="#02B2EE"/>
<path opacity="0.324847" d="M79.3472 70.3264C79.9558 70.3264 80.4492 69.833 80.4492 69.2244C80.4492 68.6157 79.9558 68.1223 79.3472 68.1223C78.7385 68.1223 78.2451 68.6157 78.2451 69.2244C78.2451 69.833 78.7385 70.3264 79.3472 70.3264Z" fill="#02B2EE"/>
<path opacity="0.324847" d="M7.16308 46.6325C7.77172 46.6325 8.26512 46.1391 8.26512 45.5305C8.26512 44.9219 7.77172 44.4285 7.16308 44.4285C6.55444 44.4285 6.06104 44.9219 6.06104 45.5305C6.06104 46.1391 6.55444 46.6325 7.16308 46.6325Z" fill="#02B2EE"/>
<path opacity="0.324847" d="M55.102 46.6325C55.7107 46.6325 56.2041 46.1391 56.2041 45.5305C56.2041 44.9219 55.7107 44.4285 55.102 44.4285C54.4934 44.4285 54 44.9219 54 45.5305C54 46.1391 54.4934 46.6325 55.102 46.6325Z" fill="#02B2EE"/>
<path opacity="0.324847" d="M30.8569 46.6325C31.4656 46.6325 31.959 46.1391 31.959 45.5305C31.959 44.9219 31.4656 44.4285 30.8569 44.4285C30.2483 44.4285 29.7549 44.9219 29.7549 45.5305C29.7549 46.1391 30.2483 46.6325 30.8569 46.6325Z" fill="#02B2EE"/>
<path opacity="0.324847" d="M79.3472 46.6325C79.9558 46.6325 80.4492 46.1391 80.4492 45.5305C80.4492 44.9219 79.9558 44.4285 79.3472 44.4285C78.7385 44.4285 78.2451 44.9219 78.2451 45.5305C78.2451 46.1391 78.7385 46.6325 79.3472 46.6325Z" fill="#02B2EE"/>
<path opacity="0.324847" d="M7.16308 34.5102C7.77172 34.5102 8.26512 34.0168 8.26512 33.4082C8.26512 32.7996 7.77172 32.3062 7.16308 32.3062C6.55444 32.3062 6.06104 32.7996 6.06104 33.4082C6.06104 34.0168 6.55444 34.5102 7.16308 34.5102Z" fill="#02B2EE"/>
<path opacity="0.324847" d="M7.16308 82.449C7.77172 82.449 8.26512 81.9556 8.26512 81.3469C8.26512 80.7383 7.77172 80.2449 7.16308 80.2449C6.55444 80.2449 6.06104 80.7383 6.06104 81.3469C6.06104 81.9556 6.55444 82.449 7.16308 82.449Z" fill="#02B2EE"/>
<path opacity="0.324847" d="M55.102 34.5102C55.7107 34.5102 56.2041 34.0168 56.2041 33.4082C56.2041 32.7996 55.7107 32.3062 55.102 32.3062C54.4934 32.3062 54 32.7996 54 33.4082C54 34.0168 54.4934 34.5102 55.102 34.5102Z" fill="#02B2EE"/>
<path opacity="0.324847" d="M55.102 82.449C55.7107 82.449 56.2041 81.9556 56.2041 81.3469C56.2041 80.7383 55.7107 80.2449 55.102 80.2449C54.4934 80.2449 54 80.7383 54 81.3469C54 81.9556 54.4934 82.449 55.102 82.449Z" fill="#02B2EE"/>
<path opacity="0.324847" d="M30.8569 34.5102C31.4656 34.5102 31.959 34.0168 31.959 33.4082C31.959 32.7996 31.4656 32.3062 30.8569 32.3062C30.2483 32.3062 29.7549 32.7996 29.7549 33.4082C29.7549 34.0168 30.2483 34.5102 30.8569 34.5102Z" fill="#02B2EE"/>
<path opacity="0.324847" d="M30.8569 82.449C31.4656 82.449 31.959 81.9556 31.959 81.3469C31.959 80.7383 31.4656 80.2449 30.8569 80.2449C30.2483 80.2449 29.7549 80.7383 29.7549 81.3469C29.7549 81.9556 30.2483 82.449 30.8569 82.449Z" fill="#02B2EE"/>
<path opacity="0.324847" d="M79.3472 34.5102C79.9558 34.5102 80.4492 34.0168 80.4492 33.4082C80.4492 32.7996 79.9558 32.3062 79.3472 32.3062C78.7385 32.3062 78.2451 32.7996 78.2451 33.4082C78.2451 34.0168 78.7385 34.5102 79.3472 34.5102Z" fill="#02B2EE"/>
<path opacity="0.324847" d="M79.3472 82.449C79.9558 82.449 80.4492 81.9556 80.4492 81.3469C80.4492 80.7383 79.9558 80.2449 79.3472 80.2449C78.7385 80.2449 78.2451 80.7383 78.2451 81.3469C78.2451 81.9556 78.7385 82.449 79.3472 82.449Z" fill="#02B2EE"/>
<path opacity="0.324847" d="M7.16308 10.2654C7.77172 10.2654 8.26512 9.77196 8.26512 9.16332C8.26512 8.55468 7.77172 8.06128 7.16308 8.06128C6.55444 8.06128 6.06104 8.55468 6.06104 9.16332C6.06104 9.77196 6.55444 10.2654 7.16308 10.2654Z" fill="#02B2EE"/>
<path opacity="0.324847" d="M7.16308 58.2041C7.77172 58.2041 8.26512 57.7107 8.26512 57.102C8.26512 56.4934 7.77172 56 7.16308 56C6.55444 56 6.06104 56.4934 6.06104 57.102C6.06104 57.7107 6.55444 58.2041 7.16308 58.2041Z" fill="#02B2EE"/>
<path opacity="0.324847" d="M55.102 10.2654C55.7107 10.2654 56.2041 9.77196 56.2041 9.16332C56.2041 8.55468 55.7107 8.06128 55.102 8.06128C54.4934 8.06128 54 8.55468 54 9.16332C54 9.77196 54.4934 10.2654 55.102 10.2654Z" fill="#02B2EE"/>
<path opacity="0.324847" d="M55.102 58.2041C55.7107 58.2041 56.2041 57.7107 56.2041 57.102C56.2041 56.4934 55.7107 56 55.102 56C54.4934 56 54 56.4934 54 57.102C54 57.7107 54.4934 58.2041 55.102 58.2041Z" fill="#02B2EE"/>
<path opacity="0.324847" d="M30.8569 10.2654C31.4656 10.2654 31.959 9.77196 31.959 9.16332C31.959 8.55468 31.4656 8.06128 30.8569 8.06128C30.2483 8.06128 29.7549 8.55468 29.7549 9.16332C29.7549 9.77196 30.2483 10.2654 30.8569 10.2654Z" fill="#02B2EE"/>
<path opacity="0.324847" d="M30.8569 58.2041C31.4656 58.2041 31.959 57.7107 31.959 57.102C31.959 56.4934 31.4656 56 30.8569 56C30.2483 56 29.7549 56.4934 29.7549 57.102C29.7549 57.7107 30.2483 58.2041 30.8569 58.2041Z" fill="#02B2EE"/>
<path opacity="0.324847" d="M79.3472 10.2654C79.9558 10.2654 80.4492 9.77196 80.4492 9.16332C80.4492 8.55468 79.9558 8.06128 79.3472 8.06128C78.7385 8.06128 78.2451 8.55468 78.2451 9.16332C78.2451 9.77196 78.7385 10.2654 79.3472 10.2654Z" fill="#02B2EE"/>
<path opacity="0.324847" d="M79.3472 58.2041C79.9558 58.2041 80.4492 57.7107 80.4492 57.102C80.4492 56.4934 79.9558 56 79.3472 56C78.7385 56 78.2451 56.4934 78.2451 57.102C78.2451 57.7107 78.7385 58.2041 79.3472 58.2041Z" fill="#02B2EE"/>
<path opacity="0.324847" d="M13.2246 16.3264C13.8332 16.3264 14.3266 15.833 14.3266 15.2244C14.3266 14.6157 13.8332 14.1223 13.2246 14.1223C12.616 14.1223 12.1226 14.6157 12.1226 15.2244C12.1226 15.833 12.616 16.3264 13.2246 16.3264Z" fill="#02B2EE"/>
<path opacity="0.324847" d="M13.2246 64.2654C13.8332 64.2654 14.3266 63.772 14.3266 63.1633C14.3266 62.5547 13.8332 62.0613 13.2246 62.0613C12.616 62.0613 12.1226 62.5547 12.1226 63.1633C12.1226 63.772 12.616 64.2654 13.2246 64.2654Z" fill="#02B2EE"/>
<path opacity="0.324847" d="M61.1631 16.3264C61.7717 16.3264 62.2651 15.833 62.2651 15.2244C62.2651 14.6157 61.7717 14.1223 61.1631 14.1223C60.5544 14.1223 60.061 14.6157 60.061 15.2244C60.061 15.833 60.5544 16.3264 61.1631 16.3264Z" fill="#02B2EE"/>
<path opacity="0.324847" d="M61.1631 64.2654C61.7717 64.2654 62.2651 63.772 62.2651 63.1633C62.2651 62.5547 61.7717 62.0613 61.1631 62.0613C60.5544 62.0613 60.061 62.5547 60.061 63.1633C60.061 63.772 60.5544 64.2654 61.1631 64.2654Z" fill="#02B2EE"/>
<path opacity="0.324847" d="M36.9184 16.3264C37.5271 16.3264 38.0205 15.833 38.0205 15.2244C38.0205 14.6157 37.5271 14.1223 36.9184 14.1223C36.3098 14.1223 35.8164 14.6157 35.8164 15.2244C35.8164 15.833 36.3098 16.3264 36.9184 16.3264Z" fill="#02B2EE"/>
<path opacity="0.324847" d="M36.9184 64.2654C37.5271 64.2654 38.0205 63.772 38.0205 63.1633C38.0205 62.5547 37.5271 62.0613 36.9184 62.0613C36.3098 62.0613 35.8164 62.5547 35.8164 63.1633C35.8164 63.772 36.3098 64.2654 36.9184 64.2654Z" fill="#02B2EE"/>
<path opacity="0.324847" d="M13.2246 40.5713C13.8332 40.5713 14.3266 40.0779 14.3266 39.4692C14.3266 38.8606 13.8332 38.3672 13.2246 38.3672C12.616 38.3672 12.1226 38.8606 12.1226 39.4692C12.1226 40.0779 12.616 40.5713 13.2246 40.5713Z" fill="#02B2EE"/>
<path opacity="0.324847" d="M61.1631 40.5713C61.7717 40.5713 62.2651 40.0779 62.2651 39.4692C62.2651 38.8606 61.7717 38.3672 61.1631 38.3672C60.5544 38.3672 60.061 38.8606 60.061 39.4692C60.061 40.0779 60.5544 40.5713 61.1631 40.5713Z" fill="#02B2EE"/>
<path opacity="0.324847" d="M36.9184 40.5713C37.5271 40.5713 38.0205 40.0779 38.0205 39.4692C38.0205 38.8606 37.5271 38.3672 36.9184 38.3672C36.3098 38.3672 35.8164 38.8606 35.8164 39.4692C35.8164 40.0779 36.3098 40.5713 36.9184 40.5713Z" fill="#02B2EE"/>
<path opacity="0.324847" d="M13.2246 28.449C13.8332 28.449 14.3266 27.9556 14.3266 27.3469C14.3266 26.7383 13.8332 26.2449 13.2246 26.2449C12.616 26.2449 12.1226 26.7383 12.1226 27.3469C12.1226 27.9556 12.616 28.449 13.2246 28.449Z" fill="#02B2EE"/>
<path opacity="0.324847" d="M13.2246 76.3877C13.8332 76.3877 14.3266 75.8943 14.3266 75.2856C14.3266 74.677 13.8332 74.1836 13.2246 74.1836C12.616 74.1836 12.1226 74.677 12.1226 75.2856C12.1226 75.8943 12.616 76.3877 13.2246 76.3877Z" fill="#02B2EE"/>
<path opacity="0.324847" d="M61.1631 28.449C61.7717 28.449 62.2651 27.9556 62.2651 27.3469C62.2651 26.7383 61.7717 26.2449 61.1631 26.2449C60.5544 26.2449 60.061 26.7383 60.061 27.3469C60.061 27.9556 60.5544 28.449 61.1631 28.449Z" fill="#02B2EE"/>
<path opacity="0.324847" d="M61.1631 76.3877C61.7717 76.3877 62.2651 75.8943 62.2651 75.2856C62.2651 74.677 61.7717 74.1836 61.1631 74.1836C60.5544 74.1836 60.061 74.677 60.061 75.2856C60.061 75.8943 60.5544 76.3877 61.1631 76.3877Z" fill="#02B2EE"/>
<path opacity="0.324847" d="M36.9184 28.449C37.5271 28.449 38.0205 27.9556 38.0205 27.3469C38.0205 26.7383 37.5271 26.2449 36.9184 26.2449C36.3098 26.2449 35.8164 26.7383 35.8164 27.3469C35.8164 27.9556 36.3098 28.449 36.9184 28.449Z" fill="#02B2EE"/>
<path opacity="0.324847" d="M36.9184 76.3877C37.5271 76.3877 38.0205 75.8943 38.0205 75.2856C38.0205 74.677 37.5271 74.1836 36.9184 74.1836C36.3098 74.1836 35.8164 74.677 35.8164 75.2856C35.8164 75.8943 36.3098 76.3877 36.9184 76.3877Z" fill="#02B2EE"/>
<path opacity="0.324847" d="M13.2246 4.20408C13.8332 4.20408 14.3266 3.71068 14.3266 3.10204C14.3266 2.4934 13.8332 2 13.2246 2C12.616 2 12.1226 2.4934 12.1226 3.10204C12.1226 3.71068 12.616 4.20408 13.2246 4.20408Z" fill="#02B2EE"/>
<path opacity="0.324847" d="M13.2246 52.1428C13.8332 52.1428 14.3266 51.6494 14.3266 51.0408C14.3266 50.4321 13.8332 49.9387 13.2246 49.9387C12.616 49.9387 12.1226 50.4321 12.1226 51.0408C12.1226 51.6494 12.616 52.1428 13.2246 52.1428Z" fill="#02B2EE"/>
<path opacity="0.324847" d="M61.1631 4.20408C61.7717 4.20408 62.2651 3.71068 62.2651 3.10204C62.2651 2.4934 61.7717 2 61.1631 2C60.5544 2 60.061 2.4934 60.061 3.10204C60.061 3.71068 60.5544 4.20408 61.1631 4.20408Z" fill="#02B2EE"/>
<path opacity="0.324847" d="M61.1631 52.1428C61.7717 52.1428 62.2651 51.6494 62.2651 51.0408C62.2651 50.4321 61.7717 49.9387 61.1631 49.9387C60.5544 49.9387 60.061 50.4321 60.061 51.0408C60.061 51.6494 60.5544 52.1428 61.1631 52.1428Z" fill="#02B2EE"/>
<path opacity="0.324847" d="M36.9184 4.20408C37.5271 4.20408 38.0205 3.71068 38.0205 3.10204C38.0205 2.4934 37.5271 2 36.9184 2C36.3098 2 35.8164 2.4934 35.8164 3.10204C35.8164 3.71068 36.3098 4.20408 36.9184 4.20408Z" fill="#02B2EE"/>
<path opacity="0.324847" d="M36.9184 52.1428C37.5271 52.1428 38.0205 51.6494 38.0205 51.0408C38.0205 50.4321 37.5271 49.9387 36.9184 49.9387C36.3098 49.9387 35.8164 50.4321 35.8164 51.0408C35.8164 51.6494 36.3098 52.1428 36.9184 52.1428Z" fill="#02B2EE"/>
<path opacity="0.324847" d="M13.2246 22.3877C13.8332 22.3877 14.3266 21.8943 14.3266 21.2856C14.3266 20.677 13.8332 20.1836 13.2246 20.1836C12.616 20.1836 12.1226 20.677 12.1226 21.2856C12.1226 21.8943 12.616 22.3877 13.2246 22.3877Z" fill="#02B2EE"/>
<path opacity="0.324847" d="M13.2246 70.3264C13.8332 70.3264 14.3266 69.833 14.3266 69.2244C14.3266 68.6157 13.8332 68.1223 13.2246 68.1223C12.616 68.1223 12.1226 68.6157 12.1226 69.2244C12.1226 69.833 12.616 70.3264 13.2246 70.3264Z" fill="#02B2EE"/>
<path opacity="0.324847" d="M61.1631 22.3877C61.7717 22.3877 62.2651 21.8943 62.2651 21.2856C62.2651 20.677 61.7717 20.1836 61.1631 20.1836C60.5544 20.1836 60.061 20.677 60.061 21.2856C60.061 21.8943 60.5544 22.3877 61.1631 22.3877Z" fill="#02B2EE"/>
<path opacity="0.324847" d="M61.1631 70.3264C61.7717 70.3264 62.2651 69.833 62.2651 69.2244C62.2651 68.6157 61.7717 68.1223 61.1631 68.1223C60.5544 68.1223 60.061 68.6157 60.061 69.2244C60.061 69.833 60.5544 70.3264 61.1631 70.3264Z" fill="#02B2EE"/>
<path opacity="0.324847" d="M36.9184 22.3877C37.5271 22.3877 38.0205 21.8943 38.0205 21.2856C38.0205 20.677 37.5271 20.1836 36.9184 20.1836C36.3098 20.1836 35.8164 20.677 35.8164 21.2856C35.8164 21.8943 36.3098 22.3877 36.9184 22.3877Z" fill="#02B2EE"/>
<path opacity="0.324847" d="M36.9184 70.3264C37.5271 70.3264 38.0205 69.833 38.0205 69.2244C38.0205 68.6157 37.5271 68.1223 36.9184 68.1223C36.3098 68.1223 35.8164 68.6157 35.8164 69.2244C35.8164 69.833 36.3098 70.3264 36.9184 70.3264Z" fill="#02B2EE"/>
<path opacity="0.324847" d="M13.2246 46.6325C13.8332 46.6325 14.3266 46.1391 14.3266 45.5305C14.3266 44.9219 13.8332 44.4285 13.2246 44.4285C12.616 44.4285 12.1226 44.9219 12.1226 45.5305C12.1226 46.1391 12.616 46.6325 13.2246 46.6325Z" fill="#02B2EE"/>
<path opacity="0.324847" d="M61.1631 46.6325C61.7717 46.6325 62.2651 46.1391 62.2651 45.5305C62.2651 44.9219 61.7717 44.4285 61.1631 44.4285C60.5544 44.4285 60.061 44.9219 60.061 45.5305C60.061 46.1391 60.5544 46.6325 61.1631 46.6325Z" fill="#02B2EE"/>
<path opacity="0.324847" d="M36.9184 46.6325C37.5271 46.6325 38.0205 46.1391 38.0205 45.5305C38.0205 44.9219 37.5271 44.4285 36.9184 44.4285C36.3098 44.4285 35.8164 44.9219 35.8164 45.5305C35.8164 46.1391 36.3098 46.6325 36.9184 46.6325Z" fill="#02B2EE"/>
<path opacity="0.324847" d="M13.2246 34.5102C13.8332 34.5102 14.3266 34.0168 14.3266 33.4082C14.3266 32.7996 13.8332 32.3062 13.2246 32.3062C12.616 32.3062 12.1226 32.7996 12.1226 33.4082C12.1226 34.0168 12.616 34.5102 13.2246 34.5102Z" fill="#02B2EE"/>
<path opacity="0.324847" d="M13.2246 82.449C13.8332 82.449 14.3266 81.9556 14.3266 81.3469C14.3266 80.7383 13.8332 80.2449 13.2246 80.2449C12.616 80.2449 12.1226 80.7383 12.1226 81.3469C12.1226 81.9556 12.616 82.449 13.2246 82.449Z" fill="#02B2EE"/>
<path opacity="0.324847" d="M61.1631 34.5102C61.7717 34.5102 62.2651 34.0168 62.2651 33.4082C62.2651 32.7996 61.7717 32.3062 61.1631 32.3062C60.5544 32.3062 60.061 32.7996 60.061 33.4082C60.061 34.0168 60.5544 34.5102 61.1631 34.5102Z" fill="#02B2EE"/>
<path opacity="0.324847" d="M61.1631 82.449C61.7717 82.449 62.2651 81.9556 62.2651 81.3469C62.2651 80.7383 61.7717 80.2449 61.1631 80.2449C60.5544 80.2449 60.061 80.7383 60.061 81.3469C60.061 81.9556 60.5544 82.449 61.1631 82.449Z" fill="#02B2EE"/>
<path opacity="0.324847" d="M36.9184 34.5102C37.5271 34.5102 38.0205 34.0168 38.0205 33.4082C38.0205 32.7996 37.5271 32.3062 36.9184 32.3062C36.3098 32.3062 35.8164 32.7996 35.8164 33.4082C35.8164 34.0168 36.3098 34.5102 36.9184 34.5102Z" fill="#02B2EE"/>
<path opacity="0.324847" d="M36.9184 82.449C37.5271 82.449 38.0205 81.9556 38.0205 81.3469C38.0205 80.7383 37.5271 80.2449 36.9184 80.2449C36.3098 80.2449 35.8164 80.7383 35.8164 81.3469C35.8164 81.9556 36.3098 82.449 36.9184 82.449Z" fill="#02B2EE"/>
<path opacity="0.324847" d="M13.2246 10.2654C13.8332 10.2654 14.3266 9.77196 14.3266 9.16332C14.3266 8.55468 13.8332 8.06128 13.2246 8.06128C12.616 8.06128 12.1226 8.55468 12.1226 9.16332C12.1226 9.77196 12.616 10.2654 13.2246 10.2654Z" fill="#02B2EE"/>
<path opacity="0.324847" d="M13.2246 58.2041C13.8332 58.2041 14.3266 57.7107 14.3266 57.102C14.3266 56.4934 13.8332 56 13.2246 56C12.616 56 12.1226 56.4934 12.1226 57.102C12.1226 57.7107 12.616 58.2041 13.2246 58.2041Z" fill="#02B2EE"/>
<path opacity="0.324847" d="M61.1631 10.2654C61.7717 10.2654 62.2651 9.77196 62.2651 9.16332C62.2651 8.55468 61.7717 8.06128 61.1631 8.06128C60.5544 8.06128 60.061 8.55468 60.061 9.16332C60.061 9.77196 60.5544 10.2654 61.1631 10.2654Z" fill="#02B2EE"/>
<path opacity="0.324847" d="M61.1631 58.2041C61.7717 58.2041 62.2651 57.7107 62.2651 57.102C62.2651 56.4934 61.7717 56 61.1631 56C60.5544 56 60.061 56.4934 60.061 57.102C60.061 57.7107 60.5544 58.2041 61.1631 58.2041Z" fill="#02B2EE"/>
<path opacity="0.324847" d="M36.9184 10.2654C37.5271 10.2654 38.0205 9.77196 38.0205 9.16332C38.0205 8.55468 37.5271 8.06128 36.9184 8.06128C36.3098 8.06128 35.8164 8.55468 35.8164 9.16332C35.8164 9.77196 36.3098 10.2654 36.9184 10.2654Z" fill="#02B2EE"/>
<path opacity="0.324847" d="M36.9184 58.2041C37.5271 58.2041 38.0205 57.7107 38.0205 57.102C38.0205 56.4934 37.5271 56 36.9184 56C36.3098 56 35.8164 56.4934 35.8164 57.102C35.8164 57.7107 36.3098 58.2041 36.9184 58.2041Z" fill="#02B2EE"/>
<path opacity="0.324847" d="M19.2856 16.3264C19.8943 16.3264 20.3877 15.833 20.3877 15.2244C20.3877 14.6157 19.8943 14.1223 19.2856 14.1223C18.677 14.1223 18.1836 14.6157 18.1836 15.2244C18.1836 15.833 18.677 16.3264 19.2856 16.3264Z" fill="#02B2EE"/>
<path opacity="0.324847" d="M19.2856 64.2654C19.8943 64.2654 20.3877 63.772 20.3877 63.1633C20.3877 62.5547 19.8943 62.0613 19.2856 62.0613C18.677 62.0613 18.1836 62.5547 18.1836 63.1633C18.1836 63.772 18.677 64.2654 19.2856 64.2654Z" fill="#02B2EE"/>
<path opacity="0.324847" d="M67.2246 16.3264C67.8332 16.3264 68.3266 15.833 68.3266 15.2244C68.3266 14.6157 67.8332 14.1223 67.2246 14.1223C66.616 14.1223 66.1226 14.6157 66.1226 15.2244C66.1226 15.833 66.616 16.3264 67.2246 16.3264Z" fill="#02B2EE"/>
<path opacity="0.324847" d="M67.2246 64.2654C67.8332 64.2654 68.3266 63.772 68.3266 63.1633C68.3266 62.5547 67.8332 62.0613 67.2246 62.0613C66.616 62.0613 66.1226 62.5547 66.1226 63.1633C66.1226 63.772 66.616 64.2654 67.2246 64.2654Z" fill="#02B2EE"/>
<path opacity="0.324847" d="M42.9795 16.3264C43.5881 16.3264 44.0815 15.833 44.0815 15.2244C44.0815 14.6157 43.5881 14.1223 42.9795 14.1223C42.3708 14.1223 41.8774 14.6157 41.8774 15.2244C41.8774 15.833 42.3708 16.3264 42.9795 16.3264Z" fill="#02B2EE"/>
<path opacity="0.324847" d="M42.9795 64.2654C43.5881 64.2654 44.0815 63.772 44.0815 63.1633C44.0815 62.5547 43.5881 62.0613 42.9795 62.0613C42.3708 62.0613 41.8774 62.5547 41.8774 63.1633C41.8774 63.772 42.3708 64.2654 42.9795 64.2654Z" fill="#02B2EE"/>
<path opacity="0.324847" d="M19.2856 40.5713C19.8943 40.5713 20.3877 40.0779 20.3877 39.4692C20.3877 38.8606 19.8943 38.3672 19.2856 38.3672C18.677 38.3672 18.1836 38.8606 18.1836 39.4692C18.1836 40.0779 18.677 40.5713 19.2856 40.5713Z" fill="#02B2EE"/>
<path opacity="0.324847" d="M67.2246 40.5713C67.8332 40.5713 68.3266 40.0779 68.3266 39.4692C68.3266 38.8606 67.8332 38.3672 67.2246 38.3672C66.616 38.3672 66.1226 38.8606 66.1226 39.4692C66.1226 40.0779 66.616 40.5713 67.2246 40.5713Z" fill="#02B2EE"/>
<path opacity="0.324847" d="M42.9795 40.5713C43.5881 40.5713 44.0815 40.0779 44.0815 39.4692C44.0815 38.8606 43.5881 38.3672 42.9795 38.3672C42.3708 38.3672 41.8774 38.8606 41.8774 39.4692C41.8774 40.0779 42.3708 40.5713 42.9795 40.5713Z" fill="#02B2EE"/>
<path opacity="0.324847" d="M19.2856 28.449C19.8943 28.449 20.3877 27.9556 20.3877 27.3469C20.3877 26.7383 19.8943 26.2449 19.2856 26.2449C18.677 26.2449 18.1836 26.7383 18.1836 27.3469C18.1836 27.9556 18.677 28.449 19.2856 28.449Z" fill="#02B2EE"/>
<path opacity="0.324847" d="M19.2856 76.3877C19.8943 76.3877 20.3877 75.8943 20.3877 75.2856C20.3877 74.677 19.8943 74.1836 19.2856 74.1836C18.677 74.1836 18.1836 74.677 18.1836 75.2856C18.1836 75.8943 18.677 76.3877 19.2856 76.3877Z" fill="#02B2EE"/>
<path opacity="0.324847" d="M67.2246 28.449C67.8332 28.449 68.3266 27.9556 68.3266 27.3469C68.3266 26.7383 67.8332 26.2449 67.2246 26.2449C66.616 26.2449 66.1226 26.7383 66.1226 27.3469C66.1226 27.9556 66.616 28.449 67.2246 28.449Z" fill="#02B2EE"/>
<path opacity="0.324847" d="M67.2246 76.3877C67.8332 76.3877 68.3266 75.8943 68.3266 75.2856C68.3266 74.677 67.8332 74.1836 67.2246 74.1836C66.616 74.1836 66.1226 74.677 66.1226 75.2856C66.1226 75.8943 66.616 76.3877 67.2246 76.3877Z" fill="#02B2EE"/>
<path opacity="0.324847" d="M42.9795 28.449C43.5881 28.449 44.0815 27.9556 44.0815 27.3469C44.0815 26.7383 43.5881 26.2449 42.9795 26.2449C42.3708 26.2449 41.8774 26.7383 41.8774 27.3469C41.8774 27.9556 42.3708 28.449 42.9795 28.449Z" fill="#02B2EE"/>
<path opacity="0.324847" d="M42.9795 76.3877C43.5881 76.3877 44.0815 75.8943 44.0815 75.2856C44.0815 74.677 43.5881 74.1836 42.9795 74.1836C42.3708 74.1836 41.8774 74.677 41.8774 75.2856C41.8774 75.8943 42.3708 76.3877 42.9795 76.3877Z" fill="#02B2EE"/>
<path opacity="0.324847" d="M19.2856 4.20408C19.8943 4.20408 20.3877 3.71068 20.3877 3.10204C20.3877 2.4934 19.8943 2 19.2856 2C18.677 2 18.1836 2.4934 18.1836 3.10204C18.1836 3.71068 18.677 4.20408 19.2856 4.20408Z" fill="#02B2EE"/>
<path opacity="0.324847" d="M19.2856 52.1428C19.8943 52.1428 20.3877 51.6494 20.3877 51.0408C20.3877 50.4321 19.8943 49.9387 19.2856 49.9387C18.677 49.9387 18.1836 50.4321 18.1836 51.0408C18.1836 51.6494 18.677 52.1428 19.2856 52.1428Z" fill="#02B2EE"/>
<path opacity="0.324847" d="M67.2246 4.20408C67.8332 4.20408 68.3266 3.71068 68.3266 3.10204C68.3266 2.4934 67.8332 2 67.2246 2C66.616 2 66.1226 2.4934 66.1226 3.10204C66.1226 3.71068 66.616 4.20408 67.2246 4.20408Z" fill="#02B2EE"/>
<path opacity="0.324847" d="M67.2246 52.1428C67.8332 52.1428 68.3266 51.6494 68.3266 51.0408C68.3266 50.4321 67.8332 49.9387 67.2246 49.9387C66.616 49.9387 66.1226 50.4321 66.1226 51.0408C66.1226 51.6494 66.616 52.1428 67.2246 52.1428Z" fill="#02B2EE"/>
<path opacity="0.324847" d="M42.9795 4.20408C43.5881 4.20408 44.0815 3.71068 44.0815 3.10204C44.0815 2.4934 43.5881 2 42.9795 2C42.3708 2 41.8774 2.4934 41.8774 3.10204C41.8774 3.71068 42.3708 4.20408 42.9795 4.20408Z" fill="#02B2EE"/>
<path opacity="0.324847" d="M42.9795 52.1428C43.5881 52.1428 44.0815 51.6494 44.0815 51.0408C44.0815 50.4321 43.5881 49.9387 42.9795 49.9387C42.3708 49.9387 41.8774 50.4321 41.8774 51.0408C41.8774 51.6494 42.3708 52.1428 42.9795 52.1428Z" fill="#02B2EE"/>
<path opacity="0.324847" d="M19.2856 22.3877C19.8943 22.3877 20.3877 21.8943 20.3877 21.2856C20.3877 20.677 19.8943 20.1836 19.2856 20.1836C18.677 20.1836 18.1836 20.677 18.1836 21.2856C18.1836 21.8943 18.677 22.3877 19.2856 22.3877Z" fill="#02B2EE"/>
<path opacity="0.324847" d="M19.2856 70.3264C19.8943 70.3264 20.3877 69.833 20.3877 69.2244C20.3877 68.6157 19.8943 68.1223 19.2856 68.1223C18.677 68.1223 18.1836 68.6157 18.1836 69.2244C18.1836 69.833 18.677 70.3264 19.2856 70.3264Z" fill="#02B2EE"/>
<path opacity="0.324847" d="M67.2246 22.3877C67.8332 22.3877 68.3266 21.8943 68.3266 21.2856C68.3266 20.677 67.8332 20.1836 67.2246 20.1836C66.616 20.1836 66.1226 20.677 66.1226 21.2856C66.1226 21.8943 66.616 22.3877 67.2246 22.3877Z" fill="#02B2EE"/>
<path opacity="0.324847" d="M67.2246 70.3264C67.8332 70.3264 68.3266 69.833 68.3266 69.2244C68.3266 68.6157 67.8332 68.1223 67.2246 68.1223C66.616 68.1223 66.1226 68.6157 66.1226 69.2244C66.1226 69.833 66.616 70.3264 67.2246 70.3264Z" fill="#02B2EE"/>
<path opacity="0.324847" d="M42.9795 22.3877C43.5881 22.3877 44.0815 21.8943 44.0815 21.2856C44.0815 20.677 43.5881 20.1836 42.9795 20.1836C42.3708 20.1836 41.8774 20.677 41.8774 21.2856C41.8774 21.8943 42.3708 22.3877 42.9795 22.3877Z" fill="#02B2EE"/>
<path opacity="0.324847" d="M42.9795 70.3264C43.5881 70.3264 44.0815 69.833 44.0815 69.2244C44.0815 68.6157 43.5881 68.1223 42.9795 68.1223C42.3708 68.1223 41.8774 68.6157 41.8774 69.2244C41.8774 69.833 42.3708 70.3264 42.9795 70.3264Z" fill="#02B2EE"/>
<path opacity="0.324847" d="M19.2856 46.6325C19.8943 46.6325 20.3877 46.1391 20.3877 45.5305C20.3877 44.9219 19.8943 44.4285 19.2856 44.4285C18.677 44.4285 18.1836 44.9219 18.1836 45.5305C18.1836 46.1391 18.677 46.6325 19.2856 46.6325Z" fill="#02B2EE"/>
<path opacity="0.324847" d="M67.2246 46.6325C67.8332 46.6325 68.3266 46.1391 68.3266 45.5305C68.3266 44.9219 67.8332 44.4285 67.2246 44.4285C66.616 44.4285 66.1226 44.9219 66.1226 45.5305C66.1226 46.1391 66.616 46.6325 67.2246 46.6325Z" fill="#02B2EE"/>
<path opacity="0.324847" d="M42.9795 46.6325C43.5881 46.6325 44.0815 46.1391 44.0815 45.5305C44.0815 44.9219 43.5881 44.4285 42.9795 44.4285C42.3708 44.4285 41.8774 44.9219 41.8774 45.5305C41.8774 46.1391 42.3708 46.6325 42.9795 46.6325Z" fill="#02B2EE"/>
<path opacity="0.324847" d="M19.2856 34.5102C19.8943 34.5102 20.3877 34.0168 20.3877 33.4082C20.3877 32.7996 19.8943 32.3062 19.2856 32.3062C18.677 32.3062 18.1836 32.7996 18.1836 33.4082C18.1836 34.0168 18.677 34.5102 19.2856 34.5102Z" fill="#02B2EE"/>
<path opacity="0.324847" d="M19.2856 82.449C19.8943 82.449 20.3877 81.9556 20.3877 81.3469C20.3877 80.7383 19.8943 80.2449 19.2856 80.2449C18.677 80.2449 18.1836 80.7383 18.1836 81.3469C18.1836 81.9556 18.677 82.449 19.2856 82.449Z" fill="#02B2EE"/>
<path opacity="0.324847" d="M67.2246 34.5102C67.8332 34.5102 68.3266 34.0168 68.3266 33.4082C68.3266 32.7996 67.8332 32.3062 67.2246 32.3062C66.616 32.3062 66.1226 32.7996 66.1226 33.4082C66.1226 34.0168 66.616 34.5102 67.2246 34.5102Z" fill="#02B2EE"/>
<path opacity="0.324847" d="M67.2246 82.449C67.8332 82.449 68.3266 81.9556 68.3266 81.3469C68.3266 80.7383 67.8332 80.2449 67.2246 80.2449C66.616 80.2449 66.1226 80.7383 66.1226 81.3469C66.1226 81.9556 66.616 82.449 67.2246 82.449Z" fill="#02B2EE"/>
<path opacity="0.324847" d="M42.9795 34.5102C43.5881 34.5102 44.0815 34.0168 44.0815 33.4082C44.0815 32.7996 43.5881 32.3062 42.9795 32.3062C42.3708 32.3062 41.8774 32.7996 41.8774 33.4082C41.8774 34.0168 42.3708 34.5102 42.9795 34.5102Z" fill="#02B2EE"/>
<path opacity="0.324847" d="M42.9795 82.449C43.5881 82.449 44.0815 81.9556 44.0815 81.3469C44.0815 80.7383 43.5881 80.2449 42.9795 80.2449C42.3708 80.2449 41.8774 80.7383 41.8774 81.3469C41.8774 81.9556 42.3708 82.449 42.9795 82.449Z" fill="#02B2EE"/>
<path opacity="0.324847" d="M19.2856 10.2654C19.8943 10.2654 20.3877 9.77196 20.3877 9.16332C20.3877 8.55468 19.8943 8.06128 19.2856 8.06128C18.677 8.06128 18.1836 8.55468 18.1836 9.16332C18.1836 9.77196 18.677 10.2654 19.2856 10.2654Z" fill="#02B2EE"/>
<path opacity="0.324847" d="M19.2856 58.2041C19.8943 58.2041 20.3877 57.7107 20.3877 57.102C20.3877 56.4934 19.8943 56 19.2856 56C18.677 56 18.1836 56.4934 18.1836 57.102C18.1836 57.7107 18.677 58.2041 19.2856 58.2041Z" fill="#02B2EE"/>
<path opacity="0.324847" d="M67.2246 10.2654C67.8332 10.2654 68.3266 9.77196 68.3266 9.16332C68.3266 8.55468 67.8332 8.06128 67.2246 8.06128C66.616 8.06128 66.1226 8.55468 66.1226 9.16332C66.1226 9.77196 66.616 10.2654 67.2246 10.2654Z" fill="#02B2EE"/>
<path opacity="0.324847" d="M67.2246 58.2041C67.8332 58.2041 68.3266 57.7107 68.3266 57.102C68.3266 56.4934 67.8332 56 67.2246 56C66.616 56 66.1226 56.4934 66.1226 57.102C66.1226 57.7107 66.616 58.2041 67.2246 58.2041Z" fill="#02B2EE"/>
<path opacity="0.324847" d="M42.9795 10.2654C43.5881 10.2654 44.0815 9.77196 44.0815 9.16332C44.0815 8.55468 43.5881 8.06128 42.9795 8.06128C42.3708 8.06128 41.8774 8.55468 41.8774 9.16332C41.8774 9.77196 42.3708 10.2654 42.9795 10.2654Z" fill="#02B2EE"/>
<path opacity="0.324847" d="M42.9795 58.2041C43.5881 58.2041 44.0815 57.7107 44.0815 57.102C44.0815 56.4934 43.5881 56 42.9795 56C42.3708 56 41.8774 56.4934 41.8774 57.102C41.8774 57.7107 42.3708 58.2041 42.9795 58.2041Z" fill="#02B2EE"/>
</g>
</svg>
