<svg width="22" height="22" viewBox="0 0 22 22" fill="none" xmlns="http://www.w3.org/2000/svg">
<g id="icons_email">
<rect id="Rectangle" opacity="0.01" width="22" height="22" fill="black"/>
<path id="Combined Shape" fill-rule="evenodd" clip-rule="evenodd" d="M5.99714 10.1417C4.78846 9.30014 4.06397 8.79401 3.82362 8.6236C3.38545 8.32534 2.97182 7.91514 2.58315 7.39312C2.19445 6.87112 2 6.38626 2 5.93882C2 5.38489 2.14665 4.92323 2.43996 4.5539C2.7333 4.18463 3.15212 4 3.69635 4H19.3035C19.7628 4 20.1605 4.16683 20.4962 4.50069C20.832 4.83446 21 5.23578 21 5.7046C21 6.26562 20.8269 6.80187 20.4803 7.31304C20.134 7.82443 19.7029 8.26131 19.187 8.62337C16.5293 10.4772 14.8752 11.6313 14.225 12.0858C14.1543 12.1356 14.004 12.2437 13.7743 12.4108C13.5445 12.5778 13.3538 12.7128 13.2018 12.8157C13.0498 12.9186 12.866 13.0339 12.6505 13.1619C12.4351 13.2895 12.2316 13.3856 12.0409 13.4492C11.85 13.5133 11.6732 13.5451 11.5107 13.5451H11.5H11.4893C11.3268 13.5451 11.1501 13.5133 10.9592 13.4492C10.7684 13.3856 10.5651 13.2896 10.3495 13.1619C10.1338 13.0341 9.95006 12.9186 9.79806 12.8157C9.64617 12.7128 9.45529 12.5778 9.22556 12.4108C8.99587 12.2439 8.84573 12.1356 8.77506 12.0858C8.13182 11.6313 7.20586 10.9833 5.99714 10.1417ZM14.6596 13.4389C15.8611 12.5652 17.6214 11.34 19.9396 9.7634C20.3427 9.48649 20.696 9.17734 21 8.83659V17.2952C21 17.7643 20.834 18.1652 20.5017 18.4992C20.1695 18.8331 19.7701 19 19.3036 19H3.69647C3.22992 19 2.83048 18.8331 2.4983 18.4992C2.16604 18.1653 2 17.7643 2 17.2952V8.83659C2.31102 9.18454 2.66797 9.49369 3.07098 9.7634C5.62971 11.5105 7.38619 12.7358 8.34049 13.4389C8.74334 13.7371 9.07029 13.9699 9.32115 14.1367C9.57208 14.3036 9.90612 14.474 10.3231 14.6479C10.7401 14.8221 11.1289 14.909 11.4894 14.909H11.5H11.5108C11.8714 14.909 12.26 14.8221 12.6769 14.6479C13.0941 14.474 13.4279 14.3036 13.6789 14.1367C13.9299 13.9699 14.2567 13.7371 14.6596 13.4389Z" fill="#02B2EE"/>
</g>
</svg>
