<svg width="50" height="50" viewBox="0 0 50 50" fill="none" xmlns="http://www.w3.org/2000/svg">
<g clip-path="url(#clip0)">
<path d="M36.6646 30.8333C36.6646 30.3733 36.2913 30 35.8313 30H30.8313C30.3714 30 29.998 30.3733 29.998 30.8333C29.998 31.2933 30.3714 31.6666 30.8313 31.6666H35.8313C36.2913 31.6667 36.6646 31.2934 36.6646 30.8333Z" fill="#02B2EE"/>
<path d="M33.3316 9.16675V5.00005C33.3316 4.54009 32.9583 4.16675 32.4983 4.16675C32.0384 4.16675 31.665 4.54009 31.665 5.00005V9.16675C31.665 11.4642 33.5342 13.3334 35.8317 13.3334H43.3317V29.1667C43.3317 29.6267 43.7051 30 44.165 30C44.625 30 44.9983 29.6267 44.9983 29.1667V12.5C44.9983 12.0401 44.625 11.6667 44.165 11.6667H35.8317C34.4533 11.6667 33.3316 10.5451 33.3316 9.16675Z" fill="#02B2EE"/>
<path d="M35.8311 20H29.1644C28.7044 20 28.3311 20.3733 28.3311 20.8333C28.3311 21.2933 28.7044 21.6666 29.1644 21.6666H35.8311C36.291 21.6666 36.6644 21.2933 36.6644 20.8333C36.6645 20.3733 36.2911 20 35.8311 20Z" fill="#02B2EE"/>
<path d="M26.6646 20.8333C26.6646 20.3733 26.2913 20 25.8313 20H20.8313C20.3714 20 19.998 20.3733 19.998 20.8333C19.998 21.2933 20.3714 21.6666 20.8313 21.6666H25.8313C26.2913 21.6667 26.6646 21.2934 26.6646 20.8333Z" fill="#02B2EE"/>
<path d="M20.8313 25C20.3714 25 19.998 25.3733 19.998 25.8333C19.998 26.2933 20.3714 26.6666 20.8313 26.6666H22.498C22.958 26.6666 23.3313 26.2933 23.3313 25.8333C23.3313 25.3733 22.958 25 22.498 25H20.8313Z" fill="#02B2EE"/>
<path d="M20.8313 16.6666H29.1646C29.6246 16.6666 29.9979 16.2933 29.9979 15.8333C29.9979 15.3733 29.6246 15 29.1646 15H20.8313C20.3714 15 19.998 15.3733 19.998 15.8333C19.998 16.2933 20.3714 16.6666 20.8313 16.6666Z" fill="#02B2EE"/>
<path d="M25.8313 26.6666H34.1647C34.6246 26.6666 34.998 26.2933 34.998 25.8333C34.998 25.3733 34.6246 25 34.1647 25H25.8313C25.3714 25 24.998 25.3733 24.998 25.8333C24.998 26.2933 25.3714 26.6666 25.8313 26.6666Z" fill="#02B2EE"/>
<path d="M30.8323 35C30.3724 35 29.999 35.3733 29.999 35.8333C29.999 36.2933 30.3724 36.6666 30.8323 36.6666H32.499C32.959 36.6666 33.3323 36.2933 33.3323 35.8333C33.3323 35.3733 32.959 35 32.499 35H30.8323Z" fill="#02B2EE"/>
<path d="M27.498 30H20.8313C20.3714 30 19.998 30.3733 19.998 30.8333C19.998 31.2933 20.3714 31.6666 20.8313 31.6666H27.498C27.958 31.6666 28.3313 31.2933 28.3313 30.8333C28.3313 30.3733 27.958 30 27.498 30Z" fill="#02B2EE"/>
<path d="M27.498 35H20.8313C20.3714 35 19.998 35.3733 19.998 35.8333C19.998 36.2933 20.3714 36.6666 20.8313 36.6666H27.498C27.958 36.6666 28.3313 36.2933 28.3313 35.8333C28.3313 35.3733 27.958 35 27.498 35Z" fill="#02B2EE"/>
<path d="M47.3398 34.3259L45.6731 32.6592C44.3923 31.3783 42.4406 31.3808 41.1615 32.6592L30.2432 43.5775C30.0873 43.7334 29.999 43.9459 29.999 44.1667V49.1667C29.999 49.6266 30.3724 50 30.8323 50H35.8323C36.0531 50 36.2656 49.9117 36.4215 49.7558L47.3398 38.8375C48.6674 37.5099 48.6674 35.6542 47.3398 34.3259ZM40.084 36.0933L41.4057 37.415L34.1656 44.655L32.8439 43.3334L40.084 36.0933ZM31.6657 48.3333V44.5116L35.4874 48.3333H31.6657ZM36.6657 47.1549L35.344 45.8333L42.5841 38.5932L43.9058 39.9149L36.6657 47.1549ZM46.1615 37.6592L45.084 38.7367L41.2623 34.915L42.3398 33.8375C42.9981 33.18 43.8332 33.1766 44.4948 33.8375L46.1615 35.5042C46.8356 36.1792 46.8356 36.9849 46.1615 37.6592Z" fill="#02B2EE"/>
<path d="M27.4983 48.3333H5.83164C4.45332 48.3333 3.33164 47.2116 3.33164 45.8333V4.1667C3.33164 2.78838 4.45332 1.6667 5.83164 1.6667H32.1533L40.2425 9.75586C40.5683 10.0817 41.095 10.0817 41.4208 9.75586C41.7467 9.43008 41.7467 8.90332 41.4208 8.57754L33.0875 0.244141C32.9316 0.0875 32.7191 0 32.4983 0H5.83164C3.53418 0 1.66504 1.86914 1.66504 4.1667V45.8334C1.66504 48.1309 3.53418 50.0001 5.83174 50.0001H27.4984C27.9584 50.0001 28.3317 49.6268 28.3317 49.1668C28.3317 48.7068 27.9583 48.3333 27.4983 48.3333Z" fill="#02B2EE"/>
<path d="M27.498 40H20.8313C20.3714 40 19.998 40.3733 19.998 40.8333C19.998 41.2933 20.3714 41.6666 20.8313 41.6666H27.498C27.958 41.6666 28.3313 41.2933 28.3313 40.8333C28.3313 40.3733 27.958 40 27.498 40Z" fill="#02B2EE"/>
<path d="M16.6656 15.8333C16.6656 15.3733 16.2923 15 15.8323 15H10.8323C10.3724 15 9.99902 15.3733 9.99902 15.8333V20.8333C9.99902 21.2933 10.3724 21.6666 10.8323 21.6666H15.8323C16.2923 21.6666 16.6656 21.2933 16.6656 20.8333V15.8333ZM14.9989 20H11.6656V16.6667H14.9989V20Z" fill="#02B2EE"/>
<path d="M10.8313 41.6668H15.8313C16.2913 41.6668 16.6646 41.2935 16.6646 40.8335V35.8335C16.6646 35.3736 16.2913 35.0002 15.8313 35.0002H10.8313C10.3714 35.0002 9.99805 35.3736 9.99805 35.8335V40.8335C9.99805 41.2935 10.3714 41.6668 10.8313 41.6668ZM11.6647 36.6668H14.998V40.0001H11.6647V36.6668Z" fill="#02B2EE"/>
<path d="M11.9091 31.4224C12.0658 31.579 12.2783 31.6665 12.4983 31.6665C12.5258 31.6665 12.5525 31.6658 12.5808 31.6623C12.8291 31.6382 13.0533 31.5032 13.1916 31.2956L16.5249 26.2956C16.7799 25.9123 16.6766 25.3948 16.2941 25.1398C15.9099 24.8839 15.3941 24.9881 15.1382 25.3706L12.3691 29.5248L11.4207 28.5774C11.095 28.2515 10.5682 28.2515 10.2424 28.5774C9.91664 28.9033 9.91654 29.4299 10.2424 29.7557L11.9091 31.4224Z" fill="#02B2EE"/>
</g>
<defs>
<clipPath id="clip0">
<rect width="50" height="50" fill="white"/>
</clipPath>
</defs>
</svg>
