<svg width="19" height="10" viewBox="0 0 19 10" fill="none" xmlns="http://www.w3.org/2000/svg">
<g id="002-eye">
<path id="Shape" fill-rule="evenodd" clip-rule="evenodd" d="M9.50002 0C14.6093 0 18.6886 4.44063 18.8581 4.62944C19.0473 4.84048 19.0473 5.15952 18.8581 5.37056C18.6885 5.55937 14.6092 10 9.50002 10C4.3908 10 0.311515 5.55937 0.141888 5.37056C-0.0472959 5.15952 -0.0472959 4.84048 0.141888 4.62944C0.311515 4.44063 4.39073 0 9.50002 0ZM5.60353 5C5.60353 7.14411 7.35172 8.88889 9.50002 8.88889C11.6483 8.88889 13.3965 7.14411 13.3965 5C13.3965 2.85589 11.6483 1.11111 9.50002 1.11111C7.35172 1.11111 5.60353 2.85589 5.60353 5Z" fill="#646270"/>
<path id="Path" fill-rule="evenodd" clip-rule="evenodd" d="M10.0566 3.88883C10.0566 3.32995 10.3346 2.83828 10.7575 2.53587C10.378 2.34198 9.95478 2.22217 9.5 2.22217C7.96542 2.22217 6.7168 3.46835 6.7168 4.99995C6.7168 6.53154 7.96542 7.77772 9.5 7.77772C10.8739 7.77772 12.0111 6.77646 12.2358 5.46817C11.1149 5.82835 10.0566 4.98224 10.0566 3.88883Z" fill="#646270"/>
</g>
</svg>
