<svg width="50" height="50" viewBox="0 0 50 50" fill="none" xmlns="http://www.w3.org/2000/svg">
<g clip-path="url(#clip0)">
<path d="M0.833511 7.50008C1.29356 7.50008 1.66664 7.127 1.66664 6.66656V4.16679C1.66664 2.78587 2.78587 1.66664 4.16679 1.66664H6.66656C7.127 1.66664 7.50008 1.29356 7.50008 0.833511C7.50008 0.373077 7.127 0 6.66656 0H4.16679C1.86653 0.00267029 0.00267029 1.86653 0 4.16679V6.66656C0 7.127 0.373077 7.50008 0.833511 7.50008Z" fill="#02B2EE"/>
<path d="M6.66656 48.3333H4.16679C2.78587 48.3333 1.66664 47.2141 1.66664 45.8332V43.3334C1.66664 42.873 1.29356 42.4999 0.833511 42.4999C0.373077 42.4999 0 42.873 0 43.3334V45.8332C0.00267029 48.1334 1.86653 49.9973 4.16679 50H6.66656C7.127 50 7.50008 49.6269 7.50008 49.1664C7.50008 48.7064 7.127 48.3333 6.66656 48.3333Z" fill="#02B2EE"/>
<path d="M49.1666 42.4999C48.7065 42.4999 48.3334 42.873 48.3334 43.3334V45.8332C48.3334 47.2141 47.2142 48.3333 45.8333 48.3333H43.3335C42.8731 48.3333 42.5 48.7064 42.5 49.1664C42.5 49.6269 42.8731 50 43.3335 50H45.8333C48.1335 49.9973 49.9974 48.1334 50.0001 45.8332V43.3334C50.0001 42.873 49.627 42.4999 49.1666 42.4999Z" fill="#02B2EE"/>
<path d="M45.8333 0H43.3335C42.8731 0 42.5 0.373077 42.5 0.833511C42.5 1.29356 42.8731 1.66664 43.3335 1.66664H45.8333C47.2142 1.66664 48.3334 2.78587 48.3334 4.16679V6.66656C48.3334 7.127 48.7065 7.50008 49.1666 7.50008C49.627 7.50008 50.0001 7.127 50.0001 6.66656V4.16679C49.9974 1.86653 48.1335 0.00267029 45.8333 0Z" fill="#02B2EE"/>
<path d="M6.66629 3.33325H4.99965C4.07916 3.33325 3.33301 4.07941 3.33301 4.99989V6.66653C3.33301 7.12697 3.70609 7.50005 4.16652 7.50005C4.62657 7.50005 4.99965 7.12697 4.99965 6.66653V4.99989H6.66629C7.12672 4.99989 7.4998 4.62682 7.4998 4.16676C7.4998 3.70633 7.12672 3.33325 6.66629 3.33325Z" fill="#02B2EE"/>
<path d="M6.66629 45H4.99965V43.3334C4.99965 42.873 4.62657 42.4999 4.16652 42.4999C3.70609 42.4999 3.33301 42.873 3.33301 43.3334V45C3.33301 45.9205 4.07916 46.6667 4.99965 46.6667H6.66629C7.12672 46.6667 7.4998 46.2936 7.4998 45.8332C7.4998 45.3731 7.12672 45 6.66629 45Z" fill="#02B2EE"/>
<path d="M43.3335 46.6667H45.0002C45.9206 46.6667 46.6668 45.9205 46.6668 45V43.3334C46.6668 42.873 46.2937 42.4999 45.8333 42.4999C45.3732 42.4999 45.0002 42.873 45.0002 43.3334V45H43.3335C42.8731 45 42.5 45.3731 42.5 45.8332C42.5 46.2936 42.8731 46.6667 43.3335 46.6667Z" fill="#02B2EE"/>
<path d="M45.8333 7.50005C46.2937 7.50005 46.6668 7.12697 46.6668 6.66653V4.99989C46.6668 4.07941 45.9206 3.33325 45.0002 3.33325H43.3335C42.8731 3.33325 42.5 3.70633 42.5 4.16676C42.5 4.62682 42.8731 4.99989 43.3335 4.99989H45.0002V6.66653C45.0002 7.12697 45.3732 7.50005 45.8333 7.50005Z" fill="#02B2EE"/>
<path d="M49.1665 25C49.1497 11.9854 38.8397 1.31645 25.8335 0.854111V0.833511C25.8335 0.373077 25.4601 0 25 0C24.5399 0 24.1665 0.373077 24.1665 0.833511V0.854111C11.1603 1.31645 0.850296 11.9854 0.833511 25C0.373077 25 0 25.3731 0 25.8335C0 26.2936 0.373077 26.6666 0.833511 26.6666H0.897598C1.76506 39.0072 11.8034 48.7049 24.1665 49.1459V49.1665C24.1665 49.6269 24.5399 50 25 50C25.4601 50 25.8335 49.6269 25.8335 49.1665V49.1459C38.1966 48.7049 48.2349 39.0072 49.1024 26.6666H49.1665C49.6269 26.6666 50 26.2936 50 25.8335C50 25.3731 49.6269 25 49.1665 25ZM39.0675 42.5415C39.0823 42.432 39.0751 42.3203 39.0457 42.2134C38.8893 41.7793 38.6711 41.3704 38.3976 40.9992C38.2595 40.8039 38.1348 40.5994 38.0241 40.3873C37.7563 39.843 37.5313 39.278 37.3516 38.6982C37.009 37.55 36.7725 36.3724 36.6451 35.1807C36.4353 33.4225 36.7031 31.6402 37.4199 30.0209C37.8643 29.1172 38.409 28.2669 39.0442 27.4857C39.4127 26.9943 39.7942 26.4858 40.1409 25.9426C41.1236 24.4328 41.6531 22.673 41.6668 20.8717C41.7034 19.1231 41.4864 17.3782 41.0225 15.6918C40.3923 13.5708 39.09 11.7123 37.3116 10.3958C33.8333 7.69653 30.5935 6.57578 26.7818 6.77071C24.7948 6.90536 22.8207 7.18384 20.874 7.60422C18.0866 8.16002 16.0576 9.13582 14.6702 10.5873C13.5754 11.7424 12.7289 13.1092 12.1834 14.6042C11.953 15.258 11.7653 15.926 11.6219 16.6042L11.5742 16.8076C11.4498 17.2626 11.2823 17.7048 11.0741 18.1282C10.9474 18.4101 10.8242 18.6916 10.7101 18.9816C10.5553 19.3359 10.4946 19.7243 10.5343 20.1092C10.6617 20.7039 11.0035 21.2315 11.4941 21.5908C11.6493 21.7182 11.7912 21.8616 11.9167 22.0184C11.8935 22.081 11.8656 22.1416 11.8332 22.2C11.1122 23.7083 10.2287 25.1335 9.19838 26.45C8.66432 26.9592 8.35876 27.6623 8.35075 28.4C8.4877 28.9398 8.83827 29.401 9.32159 29.6776C9.53331 29.8229 9.75647 29.9511 9.9884 30.061C10.2024 30.1575 10.4069 30.2746 10.5984 30.4108C10.6293 30.5649 10.6125 30.7243 10.5499 30.8681C10.4668 31.0509 10.3725 31.2084 10.2951 31.3457C10.0693 31.741 9.60083 32.5626 10.3092 33.1516C10.4126 33.2424 10.5709 33.3675 10.7327 33.4927C10.6129 33.7528 10.5663 34.0408 10.5976 34.3258C10.6388 34.6256 10.8032 34.8949 11.0508 35.0693C11.1942 35.1681 11.343 35.2592 11.496 35.3424C11.8057 35.5183 11.9068 35.5873 11.9308 35.6808C11.9495 35.8902 11.9259 36.1008 11.8618 36.3007C11.8259 36.4674 11.7908 36.6299 11.7676 36.7958C11.702 37.3802 11.7756 37.9719 11.9823 38.5223C12.3489 39.7705 13.6127 40.5273 14.8857 40.2618C16.5962 39.8552 18.2835 39.357 19.9402 38.7691C21.1899 39.5733 21.9875 41.8385 22.2015 42.6991C22.2939 43.0706 22.6273 43.3315 23.0099 43.3315L38.0783 43.2907C34.4986 45.863 30.2383 47.3202 25.8335 47.4792V45.8332C25.8335 45.3732 25.4601 45.0001 25 45.0001C24.5399 45.0001 24.1665 45.3732 24.1665 45.8332V47.4792C12.7235 47.0406 3.43056 38.0859 2.56844 26.6666H4.16679C4.62685 26.6666 4.99992 26.2936 4.99992 25.8335C4.99992 25.3731 4.62685 25 4.16679 25H2.50015C2.51541 12.9051 12.0804 2.98119 24.1665 2.52075V4.16679C24.1665 4.62685 24.5399 4.99992 25 4.99992C25.4601 4.99992 25.8335 4.62685 25.8335 4.16679V2.52075C37.9196 2.98119 47.4846 12.9051 47.4998 25H45.8332C45.3732 25 45.0001 25.3731 45.0001 25.8335C45.0001 26.2936 45.3732 26.6666 45.8332 26.6666H47.4316C46.9685 32.8899 43.9384 38.6406 39.0675 42.5415ZM25.9884 33.26C25.7671 33.2649 25.5573 33.3576 25.4047 33.5175C25.2518 33.6773 25.169 33.8913 25.1743 34.1125C25.185 34.5543 24.8276 35.4118 22.3133 36.1958C22.1333 36.2518 21.7766 36.375 21.3043 36.5391C20.8691 36.6901 20.3323 36.8767 19.7449 37.0758H19.7392C18.0378 37.6865 16.3048 38.2053 14.5473 38.6299C14.3272 38.6772 14.0976 38.6345 13.9095 38.5105C13.7215 38.3869 13.591 38.1927 13.5475 37.9715C13.4281 37.6694 13.3816 37.3428 13.4117 37.0193C13.4266 36.9007 13.4541 36.7825 13.4808 36.6642C13.6135 36.2103 13.6326 35.7307 13.5368 35.2676C13.3595 34.6775 12.9375 34.1923 12.3783 33.934C12.41 33.8848 12.4443 33.8367 12.4767 33.7952C12.6171 33.6174 12.6789 33.3904 12.6488 33.1661C12.6183 32.9418 12.4977 32.7396 12.315 32.6057C12.315 32.6057 12.0117 32.3841 11.7317 32.1716C11.8267 32.0049 11.935 31.8127 12.0399 31.5941C12.2562 31.1275 12.3203 30.6049 12.2234 30.0999C12.0567 29.25 11.29 28.8609 10.7285 28.5767C10.5625 28.5007 10.4038 28.4096 10.2543 28.3051C10.1974 28.2642 10.1009 28.1925 10.03 28.1307C10.1662 27.8996 10.3241 27.6814 10.5015 27.4799C11.5978 26.0815 12.5381 24.5678 13.3068 22.966C13.4693 22.6837 13.5597 22.3656 13.5693 22.0402C13.5075 21.3665 13.1546 20.7539 12.6034 20.3625C12.4367 20.2126 12.1868 19.9848 12.1735 19.8841C12.1826 19.7784 12.2108 19.6751 12.2566 19.5793C12.3543 19.3226 12.4683 19.0716 12.5816 18.8202C12.8368 18.2995 13.0394 17.7547 13.1874 17.194L13.2359 16.9884C13.3633 16.3784 13.5303 15.7776 13.736 15.189C14.2025 13.9069 14.9269 12.7338 15.8649 11.7424C17.0082 10.5465 18.7508 9.72824 21.1899 9.24263C23.0572 8.83827 24.9508 8.56895 26.8566 8.43658C30.2341 8.26988 33.1409 9.27658 36.2732 11.7142C37.7804 12.8067 38.8851 14.3658 39.4165 16.1499C39.8365 17.6796 40.033 19.2616 40.0002 20.8473C39.9899 22.3389 39.5523 23.7957 38.739 25.0458C38.4258 25.5341 38.0791 25.9968 37.7125 26.4866C37.0003 27.3682 36.3914 28.3283 35.8974 29.3484C35.0594 31.242 34.7466 33.3263 34.9926 35.3825C35.1318 36.6741 35.3901 37.9505 35.7632 39.1949C35.968 39.8552 36.2244 40.4987 36.5292 41.119C36.6161 41.2949 36.713 41.465 36.8198 41.629L23.6324 41.6668C23.2471 40.3793 22.6048 39.1838 21.7442 38.1516L21.8517 38.1142C22.3007 37.9581 22.6391 37.8407 22.8092 37.7876C25.5226 36.9427 26.8791 35.6934 26.841 34.074C26.8421 33.8509 26.7517 33.6372 26.5903 33.4831C26.429 33.329 26.2112 33.2481 25.9884 33.26Z" fill="#02B2EE"/>
</g>
<defs>
<clipPath id="clip0">
<rect width="50" height="50" fill="white"/>
</clipPath>
</defs>
</svg>
