<svg width="80" height="70" viewBox="0 0 80 70" fill="none" xmlns="http://www.w3.org/2000/svg">
<g id="Group 11">
<path id="Combined Shape" fill-rule="evenodd" clip-rule="evenodd" d="M52.1875 0C38.4724 0 27.2156 9.44548 26.345 21.343C13.2833 21.9975 1 31.4055 1 44.1304C1 49.4482 3.10663 54.6007 6.94141 58.6833C7.70015 61.8076 6.77895 65.1191 4.49319 67.4023C4.05759 67.8375 3.92726 68.4919 4.16292 69.0608C4.39857 69.6291 4.9538 70 5.57031 70C9.91508 70 14.1022 68.2981 17.2133 65.2993C20.2441 66.3312 24.1985 66.9565 27.8125 66.9565C41.5258 66.9565 52.7814 57.5134 53.6544 45.6183C56.8441 45.4768 60.1617 44.8883 62.7867 43.9949C65.8978 46.9938 70.0849 48.6957 74.4297 48.6957C75.0462 48.6957 75.6014 48.3247 75.8371 47.7565C76.0727 47.1876 75.9424 46.5331 75.5068 46.098C73.2211 43.8148 72.2999 40.5032 73.0586 37.3789C76.8934 33.2964 79 28.1439 79 22.8261C79 9.60419 65.7705 0 52.1875 0ZM27.8125 63.913C24.2169 63.913 20.1197 63.208 17.3752 62.1173C16.7872 61.8831 16.1154 62.037 15.6875 62.5037C13.8481 64.5122 11.4564 65.9127 8.85046 66.5565C10.2864 63.8084 10.653 60.5688 9.7794 57.4992C9.71037 57.2572 9.58243 57.0361 9.40688 56.856C5.95058 53.3001 4.04688 48.7807 4.04688 44.1304C4.04688 33.4069 14.9299 24.3478 27.8125 24.3478C39.9774 24.3478 50.6641 32.7976 50.6641 44.1304C50.6641 55.0388 40.413 63.913 27.8125 63.913ZM70.2206 36.1948C70.2896 35.9535 70.4176 35.7323 70.5931 35.5516C74.0494 31.9958 75.9531 27.4763 75.9531 22.8261C75.9531 12.1026 65.0701 3.04348 52.1875 3.04348C40.1613 3.04348 30.275 11.1283 29.3996 21.3489C33.3963 21.5641 37.2792 22.5895 40.7373 24.3478H65.2891C66.1305 24.3478 66.8125 25.029 66.8125 25.8696C66.8125 26.7101 66.1305 27.3913 65.2891 27.3913H45.4177C50.3308 31.4073 53.2045 36.816 53.6496 42.5707C56.853 42.4125 60.2462 41.7581 62.6248 40.8129C63.2128 40.5787 63.8846 40.7333 64.3125 41.1993C66.1519 43.2079 68.5436 44.609 71.1495 45.2521C69.7136 42.5041 69.347 39.2644 70.2206 36.1948ZM38.4766 16.7391C38.4766 15.8992 39.1591 15.2174 40 15.2174C40.8409 15.2174 41.5234 15.8992 41.5234 16.7391C41.5234 17.5791 40.8409 18.2609 40 18.2609C39.1591 18.2609 38.4766 17.5791 38.4766 16.7391ZM16.2344 41.087C16.2344 41.9269 15.5518 42.6087 14.7109 42.6087C13.8701 42.6087 13.1875 41.9269 13.1875 41.087C13.1875 40.247 13.8701 39.5652 14.7109 39.5652C15.5518 39.5652 16.2344 40.247 16.2344 41.087ZM20.8047 39.5652H40C40.8415 39.5652 41.5234 40.2464 41.5234 41.087C41.5234 41.9275 40.8415 42.6087 40 42.6087H20.8047C19.9632 42.6087 19.2812 41.9275 19.2812 41.087C19.2812 40.2464 19.9632 39.5652 20.8047 39.5652ZM40 48.6957H14.7109C13.8695 48.6957 13.1875 49.3769 13.1875 50.2174C13.1875 51.0579 13.8695 51.7391 14.7109 51.7391H40C40.8415 51.7391 41.5234 51.0579 41.5234 50.2174C41.5234 49.3769 40.8415 48.6957 40 48.6957ZM46.0938 15.2174H65.2891C66.1305 15.2174 66.8125 15.8986 66.8125 16.7391C66.8125 17.5797 66.1305 18.2609 65.2891 18.2609H46.0938C45.2523 18.2609 44.5703 17.5797 44.5703 16.7391C44.5703 15.8986 45.2523 15.2174 46.0938 15.2174Z" fill="#02B2EE"/>
</g>
</svg>
