<svg width="16" height="16" viewBox="0 0 16 16" fill="none" xmlns="http://www.w3.org/2000/svg">
<g id="Filter">
<rect id="Rectangle" opacity="0.01" width="16" height="16" fill="black"/>
<path id="Shape" fill-rule="evenodd" clip-rule="evenodd" d="M10.4333 5.04457H3.26084C2.9478 5.04457 2.69402 4.78251 2.69401 4.45296C2.69401 4.12342 2.94779 3.86136 3.26084 3.86136H10.4444C10.6773 3.36569 11.1992 2.99487 11.806 2.99487C12.6298 2.99487 13.2976 3.67894 13.2976 4.50276C13.2976 5.32659 12.6298 5.98023 11.806 5.98023C11.1896 5.98023 10.6606 5.60419 10.4333 5.04457ZM5.53429 10.9126H12.7402C13.0527 10.9126 13.3061 11.1748 13.3061 11.5042C13.3061 11.8336 13.0528 12.0958 12.7402 12.0958H5.54537C5.31839 12.5915 4.79023 13.0052 4.17483 13.0052C3.35231 13.0052 2.68555 12.3399 2.68555 11.5163C2.68555 10.6928 3.35233 10.0268 4.17483 10.0268C4.78069 10.0268 5.30168 10.353 5.53429 10.9126ZM4.17686 11.9945C3.91366 11.9945 3.70028 11.7809 3.70028 11.5173C3.70028 11.2538 3.91366 11.0401 4.17686 11.0401C4.44005 11.0401 4.65343 11.2538 4.65343 11.5173C4.65343 11.7809 4.44005 11.9945 4.17686 11.9945ZM6.61461 8.61015H3.26084C2.9478 8.61015 2.69402 8.30812 2.69401 7.97858C2.69401 7.64905 2.94779 7.34701 3.26084 7.34701H6.62572C6.85872 6.85135 7.38052 6.46428 7.98736 6.46428C8.5942 6.46428 9.11602 6.85135 9.349 7.34701H12.7478C13.0608 7.34701 13.3146 7.64905 13.3146 7.97858C13.3146 8.3081 13.0608 8.61015 12.7478 8.61015H9.36008C9.13273 9.10582 8.60374 9.51741 7.98734 9.51741C7.37095 9.51741 6.84196 9.10582 6.61461 8.61015Z" fill="black"/>
</g>
</svg>
