<svg width="50" height="50" viewBox="0 0 50 50" fill="none" xmlns="http://www.w3.org/2000/svg">
<g clip-path="url(#clip0)">
<path d="M31.0207 18.9797C30.6389 18.5989 30.0207 18.5989 29.6399 18.9797C29.2581 19.3616 29.2581 19.9797 29.6399 20.3605C30.0207 20.7423 30.6389 20.7423 31.0207 20.3605C31.4016 19.9796 31.4016 19.3616 31.0207 18.9797Z" fill="#02B2EE"/>
<path d="M48.8548 19.0987L47.4739 17.7179C47.5248 17.6435 49.0227 16.4238 49.0227 14.1472C49.0227 12.8427 48.5145 11.6166 47.5919 10.6946L46.9014 10.0041L47.5914 9.31346C49.4997 7.4079 49.5017 4.31601 47.5921 2.40908C45.6846 0.500292 42.596 0.49912 40.688 2.40849L39.9967 3.09931L39.3064 2.40898C37.3987 0.499902 34.3092 0.499218 32.4008 2.40878L32.2828 2.52685L30.9021 1.14619C29.3756 -0.380175 26.9051 -0.381249 25.378 1.1459C23.8511 2.67158 23.8504 5.14345 25.3777 6.66962L30.9018 12.1937L12.1928 30.9027L6.66925 25.3791C5.14533 23.8528 2.67072 23.8505 1.14553 25.3783C-0.381713 26.9043 -0.381908 29.3758 1.14533 30.9032L2.526 32.2838L2.40822 32.4016C0.499144 34.3093 0.498461 37.3988 2.40803 39.3072L3.09855 39.9977L2.40852 40.6883C0.500219 42.5939 0.498266 45.6858 2.40783 47.5928C4.31535 49.5014 7.40372 49.5028 9.31211 47.5933L10.0034 46.9025L10.6938 47.5928C12.6015 49.5019 15.6909 49.5026 17.5993 47.593L17.7173 47.475L19.0979 48.8558C20.6245 50.3822 23.0951 50.3831 24.6221 48.8561C26.149 47.3304 26.1498 44.8585 24.6224 43.3323L19.0983 37.8082L37.8073 19.0993L43.3308 24.6228C44.8547 26.1492 47.3293 26.1514 48.8545 24.6237C50.3818 23.0974 50.382 20.6259 48.8548 19.0987ZM42.0691 3.78964C43.2108 2.64707 45.063 2.64091 46.2115 3.79032C47.356 4.93319 47.3573 6.78729 46.2108 7.93231L45.5205 8.62313L41.3778 4.48036L42.0691 3.78964ZM33.7822 3.78964C34.9267 2.64433 36.7799 2.64365 37.9251 3.78984L46.2112 12.0759C47.3565 13.2204 47.3572 15.0736 46.211 16.2188L46.093 16.3369L33.6639 3.9079L33.7822 3.78964ZM7.93087 46.2121C6.78917 47.3547 4.93693 47.3608 3.78849 46.2114C2.64396 45.0686 2.64269 43.2145 3.78918 42.0695L4.47941 41.3786L8.62218 45.5214L7.93087 46.2121ZM16.2178 46.2121C15.0732 47.3574 13.22 47.3581 12.0748 46.2119L3.78879 37.9259C2.64348 36.7814 2.64279 34.9282 3.78898 33.7829L3.90695 33.6649L16.3359 46.0939L16.2178 46.2121ZM23.2414 44.7135C24.0047 45.4759 24.0052 46.7112 23.2412 47.4746C22.476 48.2398 21.2411 48.2368 20.4788 47.4746C19.6624 46.6582 3.41984 30.4157 2.52629 29.5221C1.76916 28.765 1.75617 27.5292 2.52687 26.7591C3.28654 25.9982 4.52326 25.994 5.28761 26.7597L23.2414 44.7135ZM17.7171 36.4269L13.574 32.2838L32.283 13.5749L36.426 17.718L17.7171 36.4269ZM47.4731 23.2426C46.7134 24.0036 45.4767 24.0078 44.7123 23.242L26.7586 5.28837C25.9954 4.52597 25.9948 3.29062 26.7589 2.52724C27.5241 1.76201 28.7589 1.76504 29.5213 2.52724C30.4149 3.42089 46.6703 19.6763 47.4737 20.4797C48.2308 21.2368 48.2438 22.4726 47.4731 23.2426Z" fill="#02B2EE"/>
<path d="M28.2577 21.7423C27.8762 21.3608 27.2579 21.3608 26.8765 21.7423L18.9794 29.6394C18.598 30.0208 18.598 30.6391 18.9794 31.0206C19.3607 31.4019 19.9791 31.4019 20.3604 31.0206L28.2576 23.1234C28.639 22.742 28.639 22.1237 28.2577 21.7423Z" fill="#02B2EE"/>
</g>
<defs>
<clipPath id="clip0">
<rect width="50" height="50" fill="white"/>
</clipPath>
</defs>
</svg>
