<svg width="56" height="56" viewBox="0 0 56 56" fill="none" xmlns="http://www.w3.org/2000/svg">
<g clip-path="url(#clip0)">
<path d="M54.5245 10.3457H38.1386C37.6856 10.3457 37.3183 10.713 37.3183 11.166C37.3183 11.619 37.6856 11.9863 38.1386 11.9863H54.3594V21.5673C48.0971 21.8195 47.8903 24.8321 41.5896 24.8321C35.0685 24.8321 35.0096 21.5508 27.9996 21.5508C27.272 21.5508 26.5966 21.5873 25.9556 21.6603V11.9864H34.3106C34.7636 11.9864 35.1309 11.6191 35.1309 11.1661C35.1309 10.7131 34.7636 10.3458 34.3106 10.3458H33.02V5.99309C33.0199 2.68855 30.3313 0 27.0267 0C23.722 0 21.0336 2.68855 21.0336 5.99309V10.3456H19.393V5.99309C19.393 2.68855 16.7044 0 13.3997 0C10.0951 0 7.40666 2.68855 7.40666 5.99309V10.3456H1.47547C0.661937 10.3456 0 11.0075 0 11.821V54.5245C0 55.3381 0.661937 56 1.47547 56H54.5245C55.3381 56 56 55.3381 56 54.5245V11.8211C56 11.0076 55.3381 10.3457 54.5245 10.3457ZM27.9995 23.1913C34.5207 23.1913 34.5793 26.4726 41.5895 26.4726C48.3143 26.4726 48.6453 23.4612 54.3593 23.2089V29.4709C48.0725 29.724 47.914 32.7356 41.5895 32.7356C35.0683 32.7356 35.0096 29.4544 27.9993 29.4544C27.2445 29.4544 26.569 29.4935 25.9553 29.5627V23.3124C26.5886 23.2314 27.263 23.1913 27.9995 23.1913ZM14.4099 32.7355C13.6266 32.7355 12.9415 32.6901 12.3285 32.6103V27.2988H16.3457C16.7987 27.2988 17.166 26.9315 17.166 26.4785C17.166 26.0255 16.7987 25.6582 16.3457 25.6582H11.5093C11.509 25.6582 11.5087 25.6582 11.5082 25.6582C11.508 25.6582 11.5079 25.6582 11.5077 25.6582C11.0849 25.658 10.7362 25.3363 10.6926 24.925C10.6923 24.9202 10.6924 24.9154 10.692 24.9105C10.6899 24.8865 10.6878 24.8625 10.6878 24.8379C10.6878 24.3855 11.0557 24.0175 11.5081 24.0175H21.0335V25.6582H20.1737C19.7206 25.6582 19.3534 26.0255 19.3534 26.4785C19.3534 26.9315 19.7206 27.2988 20.1737 27.2988H21.0335V31.087C18.9131 32.1083 17.4828 32.7355 14.4099 32.7355ZM1.64062 23.2089C4.14367 23.3194 5.47039 23.8876 7.40666 24.8211V30.9058C5.95383 30.2203 4.33891 29.5795 1.64062 29.4709V23.2089ZM14.4711 10.3457H12.3285V5.99309C12.3285 5.40236 12.8091 4.92188 13.3997 4.92188C13.9904 4.92188 14.471 5.40247 14.471 5.99309V10.3457H14.4711ZM11.5081 16.3613H21.0335V18.0019H11.5081C11.5079 18.0019 11.5078 18.0019 11.5076 18.0019C11.0554 18.0016 10.6878 17.6339 10.6878 17.1816C10.6878 16.7293 11.0558 16.3613 11.5081 16.3613ZM10.6879 32.2785C10.6737 32.2745 10.6592 32.2705 10.645 32.2665C10.098 32.1105 9.57819 31.9144 9.04728 31.6803V24.8412C9.04925 25.8995 9.72541 26.8163 10.6879 27.1577V32.2785ZM12.3285 19.6425H21.0336V22.3769H12.3285V19.6425ZM10.6879 19.5015V22.518C9.70922 22.8652 9.04816 23.7915 9.04728 24.8358V17.1838C9.04816 18.2523 9.73372 19.1632 10.6879 19.5015ZM28.098 10.3457H25.9555V5.99309C25.9555 5.40236 26.436 4.92188 27.0267 4.92188C27.6173 4.92188 28.0979 5.40247 28.0979 5.99309V10.3457H28.098ZM22.6742 5.99309C22.6742 3.59308 24.6268 1.64062 27.0268 1.64062C29.4268 1.64062 31.3792 3.59319 31.3792 5.99309V10.3456H29.7386V5.99309C29.7386 4.49772 28.522 3.28125 27.0268 3.28125C25.5315 3.28125 24.3149 4.49783 24.3149 5.99309V29.8459C23.7103 29.99 23.1723 30.1654 22.6743 30.3581V5.99309H22.6742ZM21.0336 14.7207H12.3285V11.9863H21.0336V14.7207ZM9.04728 5.99309C9.04728 3.59319 10.9997 1.64062 13.3997 1.64062C15.7998 1.64062 17.7522 3.59319 17.7522 5.99309V10.3456H16.1116V5.99309C16.1116 4.49772 14.895 3.28125 13.3997 3.28125C11.9045 3.28125 10.6879 4.49783 10.6879 5.99309V14.8618C9.73372 15.2002 9.04827 16.111 9.04728 17.1795V5.99309ZM7.40666 11.9863V23.0021C5.95383 22.3167 4.3388 21.6759 1.64062 21.5673V11.9863H7.40666ZM54.3594 54.3594H1.64062V39.016C7.35022 39.268 7.69278 42.2798 14.4099 42.2798C21.4037 42.2798 21.4913 38.9985 27.9995 38.9985C34.5207 38.9985 34.5793 42.2798 41.5895 42.2798C44.8773 42.2798 46.478 41.6399 49.0716 40.3984C49.4803 40.2028 49.6529 39.7129 49.4573 39.3042C49.2616 38.8956 48.7715 38.723 48.3632 38.9187C46.3163 39.8992 44.8626 40.6392 41.5895 40.6392C35.0684 40.6392 35.0095 37.3579 27.9995 37.3579C21.0057 37.3579 20.9181 40.6392 14.4099 40.6392C8.1037 40.6392 7.91131 37.627 1.64062 37.3744V31.1126C7.35 31.3646 7.69289 34.3762 14.4099 34.3762C21.3962 34.3762 21.5101 31.095 27.9995 31.095C31.2093 31.095 32.7775 31.8523 34.4378 32.654C36.1912 33.5007 38.0043 34.3762 41.5896 34.3762C48.3144 34.3762 48.6454 31.3648 54.3594 31.1126V37.3748C53.5982 37.4053 52.894 37.4788 52.222 37.599C51.776 37.6787 51.4792 38.1049 51.5589 38.551C51.6387 38.9969 52.0646 39.2937 52.5109 39.214C53.0896 39.1104 53.6986 39.0451 54.3593 39.016V54.3594H54.3594Z" fill="#02B2EE"/>
</g>
<defs>
<clipPath id="clip0">
<rect width="56" height="56" fill="white"/>
</clipPath>
</defs>
</svg>
