<svg width="50" height="50" viewBox="0 0 50 50" fill="none" xmlns="http://www.w3.org/2000/svg">
<g clip-path="url(#clip0)">
<path d="M48.2909 13.9947L24.9655 0L1.64004 13.9947C0.64841 14.5901 0.0322266 15.6783 0.0322266 16.8349V16.9287C0.0322266 18.7553 1.5179 20.241 3.34367 20.241C3.87267 20.241 4.3891 20.1075 4.85802 19.8663V42.7613H16.214L17.7268 44.6523V50H31.3999V44.703L32.1633 43.9395C32.5187 43.5841 32.8164 43.1859 33.0607 42.7613H45.0729V19.8663C45.5418 20.1075 46.0583 20.241 46.5873 20.241C48.413 20.241 49.8987 18.7553 49.8987 16.9287V16.8349C49.8987 15.6783 49.2825 14.5901 48.2909 13.9947ZM31.026 42.8022L29.7913 44.0369V48.3914H19.3354V44.0876L16.9999 41.1673C16.4312 40.4576 16.1182 39.5649 16.1182 38.6562V32.3055C16.1182 30.9753 17.2009 29.8926 18.5311 29.8926H23.3569C23.8007 29.8926 24.1612 30.2527 24.1612 30.6969C24.1612 31.1406 23.8007 31.5012 23.3569 31.5012H19.3354C18.4482 31.5012 17.7268 32.2226 17.7268 33.1097V37.9355H19.3354V36.0568C20.6722 37.7144 22.7093 38.7398 24.9655 38.7398C26.0506 38.7398 27.1097 38.4865 28.079 38.0239C28.5165 38.4657 29.1221 38.7398 29.7913 38.7398H32.2042V39.9585C32.2042 41.033 31.7851 42.0423 31.026 42.8022ZM26.5741 18.1611V26.0808L27.076 26.2846C27.8127 26.5827 28.465 27.0508 29.0129 27.6195C28.0652 27.9454 27.3784 28.8357 27.3784 29.8926C27.3784 30.5127 27.6203 31.0731 28.0055 31.5012C27.6195 31.9292 27.3784 32.4896 27.3784 33.1097C27.3784 33.7299 27.6203 34.2903 28.0055 34.7183C27.6195 35.1464 27.3784 35.7068 27.3784 36.3269C27.3784 36.409 27.3945 36.486 27.4023 36.5657C26.6448 36.931 25.8157 37.1312 24.9655 37.1312C22.4497 37.1312 20.2956 35.4889 19.5871 33.1097H23.3569C24.687 33.1097 25.7698 32.027 25.7698 30.6969C25.7698 29.3667 24.687 28.284 23.3569 28.284H20.3537C20.9746 27.3992 21.8417 26.6946 22.8542 26.2846L23.3569 26.0808V13.9963L24.6584 11.3937H25.2726L26.5741 13.9963V14.2779L24.6324 16.2195L26.5741 18.1611ZM33.8127 36.3269C33.8127 36.7707 33.4522 37.1312 33.0084 37.1312H29.7913C29.3471 37.1312 28.987 36.7707 28.987 36.3269C28.987 35.8828 29.3471 35.5226 29.7913 35.5226H33.0084C33.4522 35.5226 33.8127 35.8828 33.8127 36.3269ZM33.8127 33.1097C33.8127 33.5535 33.4522 33.914 33.0084 33.914H29.7913C29.3471 33.914 28.987 33.5535 28.987 33.1097C28.987 32.6656 29.3471 32.3055 29.7913 32.3055H33.0084C33.4522 32.3055 33.8127 32.6656 33.8127 33.1097ZM33.0084 30.6969H29.7913C29.3471 30.6969 28.987 30.3363 28.987 29.8926C28.987 29.4484 29.3471 29.0883 29.7913 29.0883H33.0084C33.4522 29.0883 33.8127 29.4484 33.8127 29.8926C33.8127 30.3363 33.4522 30.6969 33.0084 30.6969ZM33.6824 41.1527C33.766 40.7643 33.8127 40.3653 33.8127 39.9585V38.5918C34.7466 38.2588 35.4213 37.3739 35.4213 36.3269C35.4213 35.7068 35.1794 35.1464 34.7942 34.7183C35.1802 34.2903 35.4213 33.7299 35.4213 33.1097C35.4213 32.4896 35.1794 31.9292 34.7942 31.5012C35.1802 31.0731 35.4213 30.5127 35.4213 29.8926C35.4213 28.5624 34.3386 27.4797 33.0084 27.4797H30.9592C30.2578 26.4389 29.3055 25.5793 28.1827 25.02V17.4951L26.9071 16.2195L28.1827 14.9439V13.6169L26.267 9.7851H23.664L21.7483 13.6169V25.0192C20.3376 25.7222 19.185 26.8796 18.4836 28.2887C16.2886 28.3154 14.5096 30.1042 14.5096 32.3055V38.6562C14.5096 39.5265 14.7283 40.3791 15.112 41.1527H6.46661V18.8963L24.9655 7.50966L43.4643 18.8963V41.1527H33.6824ZM48.2901 16.9287C48.2901 17.8681 47.5259 18.6324 46.5873 18.6324C46.2723 18.6324 45.9632 18.5448 45.6946 18.3799L24.9655 5.62105L4.23791 18.3799C3.9685 18.5448 3.65864 18.6324 3.34367 18.6324C2.40506 18.6324 1.64082 17.8681 1.64082 16.9287V16.8349C1.64082 16.2395 1.95775 15.6799 2.46751 15.3743L24.9655 1.87565L47.4634 15.3743C47.9732 15.6807 48.2901 16.2395 48.2901 16.8349V16.9287Z" fill="#02B2EE"/>
<path d="M15.3145 25.8712H16.9231V16.2196H20.1402V14.611H15.3145V25.8712Z" fill="#02B2EE"/>
<path d="M29.792 16.2196H33.0092V25.8712H34.6178V14.611H29.792V16.2196Z" fill="#02B2EE"/>
</g>
<defs>
<clipPath id="clip0">
<rect width="50" height="50" fill="white"/>
</clipPath>
</defs>
</svg>
