<svg width="50" height="50" viewBox="0 0 50 50" fill="none" xmlns="http://www.w3.org/2000/svg">
<path d="M4.88281 44.1399C4.34341 44.1399 3.90625 44.577 3.90625 45.1164V45.1172C3.90625 45.6562 4.34341 46.0934 4.88281 46.0934C5.42221 46.0934 5.85938 45.6558 5.85938 45.1164C5.85938 44.577 5.42221 44.1399 4.88281 44.1399Z" fill="#02B2EE"/>
<path d="M49.0234 0H41.2109C40.6715 0 40.2344 0.437164 40.2344 0.976562V1.99585L38.9313 1.98784C38.9294 1.98784 38.9271 1.98784 38.9252 1.98784C38.3888 1.98784 37.952 2.42081 37.9486 2.95792C37.9452 3.49731 38.3797 3.93753 38.9191 3.94096L40.2344 3.94897V14.0808C37.6774 15.6914 35.3695 14.764 32.9334 13.7829C31.3282 13.1363 29.6677 12.468 28.0109 12.6759C27.4883 12.7415 26.0777 12.9463 24.5846 13.163C23.1697 13.3682 21.7064 13.5807 21.2032 13.644C20.9473 13.6761 20.6921 13.6047 20.4845 13.4434C20.2728 13.2782 20.1378 13.0413 20.105 12.7758C20.0836 12.603 20.0268 12.1433 21.2505 11.5753C23.8411 10.3741 26.6018 9.34563 28.825 8.75397C29.3461 8.61511 29.6562 8.08029 29.5174 7.55882C29.3789 7.03773 28.8441 6.72798 28.3226 6.86646C25.9949 7.48596 23.1175 8.55675 20.4289 9.80377C19.4935 10.2375 18.9186 10.7422 18.5799 11.2511L8.78907 13.921C7.7591 14.18 7.23077 13.7699 7.07932 13.2996C6.93055 12.8365 7.11022 12.2395 7.84684 11.9488C8.61321 11.657 10.4424 10.8517 12.7571 9.83315C15.8249 8.48312 19.6423 6.80275 22.6864 5.56793C26.3039 4.10042 27.4063 3.87917 31.11 3.89252H31.1131C31.6509 3.89252 32.0877 3.45726 32.0896 2.91901C32.0911 2.37961 31.6551 1.94092 31.1157 1.93939C27.1652 1.92604 25.7946 2.19955 21.9524 3.75824C18.8816 5.00374 15.0497 6.69022 11.9705 8.0452C9.76678 9.01527 7.86324 9.85298 7.14684 10.1254C7.14379 10.1265 7.14074 10.1276 7.13769 10.1288C5.31312 10.8444 4.79203 12.5664 5.22004 13.8973C5.64156 15.2088 7.09115 16.3673 9.27735 15.8123C9.28307 15.8108 9.28841 15.8096 9.29414 15.8077L18.2324 13.3705C18.391 14.0091 18.7565 14.5733 19.2848 14.9845C19.9047 15.4671 20.6726 15.6792 21.4466 15.5819C21.9685 15.5163 23.3753 15.3118 24.865 15.0959C26.2837 14.8899 27.75 14.677 28.2543 14.6137C29.4083 14.4688 30.7663 15.0154 32.2037 15.5945C33.7269 16.2079 35.4622 16.9071 37.3402 16.9067C38.2725 16.9067 39.2403 16.7328 40.2344 16.2918V16.6016C40.2344 17.141 40.6715 17.5781 41.2109 17.5781H49.0234C49.5628 17.5781 50 17.141 50 16.6016V0.976562C50 0.437164 49.5628 0 49.0234 0ZM48.0469 15.625H42.1875V2.98576V2.985C42.1875 2.985 42.1875 2.98424 42.1875 2.98386V1.95312H48.0469V15.625Z" fill="#02B2EE"/>
<path d="M45.1172 5.86015C45.6566 5.86015 46.0938 5.42299 46.0938 4.88359V4.88283C46.0938 4.34381 45.6566 3.90665 45.1172 3.90665C44.5778 3.90665 44.1406 4.34419 44.1406 4.88359C44.1406 5.42299 44.5778 5.86015 45.1172 5.86015Z" fill="#02B2EE"/>
<path d="M18.1641 31.8359C20.4815 31.8359 22.5323 30.6755 23.769 28.9062H27.3769C27.636 28.9062 27.8843 28.8033 28.0674 28.6201L29.7344 26.9531H30.8788L32.5459 28.6201C32.729 28.8033 32.9773 28.9062 33.2363 28.9062H34.7656C35.0246 28.9062 35.273 28.8033 35.4561 28.6201L38.3858 25.6905C38.5689 25.5074 38.6719 25.259 38.6719 25V22.0703C38.6719 21.5313 38.2347 21.0938 37.6953 21.0938H23.7694C22.5323 19.3245 20.4819 18.1641 18.1641 18.1641C14.3948 18.1641 11.3281 21.2307 11.3281 25C11.3281 28.7693 14.3948 31.8359 18.1641 31.8359ZM36.7188 23.0469V24.5956L34.3613 26.9531H33.6411L31.9736 25.2861C31.7905 25.103 31.5422 25 31.2832 25H29.3301C29.071 25 28.8227 25.103 28.6396 25.2861L26.9726 26.9531H24.7143C24.8993 26.334 25 25.6786 25 25C25 24.3214 24.8993 23.666 24.7143 23.0469H36.7188ZM18.1641 20.1172C20.8565 20.1172 23.0469 22.3076 23.0469 25C23.0469 27.6924 20.8565 29.8828 18.1641 29.8828C15.4716 29.8828 13.2812 27.6924 13.2812 25C13.2812 22.3076 15.4716 20.1172 18.1641 20.1172Z" fill="#02B2EE"/>
<path d="M16.2109 25.9766C16.7503 25.9766 17.1875 25.539 17.1875 24.9996C17.1875 24.4602 16.7503 24.0231 16.2109 24.0231C15.6715 24.0231 15.2344 24.4602 15.2344 24.9996V25.0004C15.2344 25.5398 15.6715 25.9766 16.2109 25.9766Z" fill="#02B2EE"/>
<path d="M35.0186 3.91653H35.0189C35.5583 3.91653 35.9951 3.47899 35.9951 2.93997C35.9951 2.40057 35.5576 1.96341 35.0186 1.96341C34.4792 1.96341 34.042 2.40057 34.042 2.93997C34.042 3.47899 34.4792 3.91653 35.0186 3.91653Z" fill="#02B2EE"/>
<path d="M40.7227 34.1877C40.7169 34.1892 40.7116 34.1904 40.7059 34.1923L31.7677 36.6295C31.609 35.9909 31.2435 35.4267 30.7152 35.0155C30.0953 34.5329 29.3274 34.3208 28.5534 34.4181C28.0315 34.4837 26.6247 34.6882 25.135 34.9041C23.7164 35.1101 22.25 35.323 21.7457 35.3863C20.5921 35.5309 19.2337 34.9846 17.7963 34.4055C15.5167 33.4877 12.7613 32.3784 9.76562 33.707V33.3988C9.76562 32.8594 9.32846 32.4223 8.78906 32.4223H0.976562C0.437164 32.4223 0 32.8594 0 33.3988V49.0234C0 49.5628 0.437164 50 0.976562 50H8.78906C9.32846 50 9.76562 49.5628 9.76562 49.0234V48.0042L11.0687 48.0122H11.0748C11.6112 48.0122 12.048 47.5792 12.0514 47.0417C12.0548 46.5027 11.6203 46.0625 11.0809 46.059L9.76562 46.051V35.9192C12.3226 34.3086 14.6305 35.236 17.0666 36.2167C18.6722 36.8637 20.3331 37.532 21.9891 37.3238C22.5121 37.2581 23.9223 37.0537 25.4154 36.837C26.8303 36.6314 28.2936 36.4193 28.7968 36.356C29.0527 36.3239 29.3079 36.3949 29.5155 36.5566C29.7276 36.7218 29.8622 36.9587 29.895 37.2242C29.9164 37.397 29.9736 37.8567 28.7495 38.4243C26.1589 39.6259 23.3986 40.6544 21.1754 41.246C20.6543 41.3849 20.3442 41.9197 20.4826 42.4408C20.6215 42.9623 21.1567 43.2716 21.6774 43.1335C24.0051 42.514 26.8826 41.4433 29.5715 40.1962C30.5065 39.7625 31.0814 39.2578 31.4205 38.7489L41.2109 36.079C42.2405 35.8196 42.7692 36.2301 42.9207 36.7004C43.0695 37.1635 42.8898 37.7605 42.1535 38.0512C41.3876 38.343 39.5576 39.1483 37.2425 40.1672C34.1751 41.5173 30.3577 43.1973 27.3136 44.4321C23.6961 45.8996 22.5914 46.1216 18.89 46.1075C18.8892 46.1075 18.8881 46.1075 18.8869 46.1075C18.3491 46.1075 17.9123 46.5427 17.9104 47.081C17.9089 47.6204 18.3449 48.0591 18.8843 48.0606C18.964 48.061 19.0426 48.061 19.1204 48.061C22.8916 48.061 24.2832 47.7692 28.0476 46.2418C31.118 44.9963 34.9503 43.3098 38.0291 41.9548C40.2332 40.9847 42.1368 40.147 42.8528 39.8746C42.8558 39.8735 42.8589 39.8724 42.8623 39.8712C44.6869 39.1556 45.208 37.4336 44.78 36.1027C44.3584 34.7916 42.9089 33.633 40.7227 34.1877ZM1.95312 48.0469V34.375H7.8125V47.0154V47.0165V48.0469H1.95312Z" fill="#02B2EE"/>
<path d="M14.9818 46.0835H14.9811C14.4417 46.0835 14.0049 46.521 14.0049 47.06C14.0049 47.5994 14.4424 48.0366 14.9818 48.0366C15.5212 48.0366 15.9584 47.5994 15.9584 47.06C15.9584 46.521 15.5212 46.0835 14.9818 46.0835Z" fill="#02B2EE"/>
</svg>
