<svg width="17" height="19" viewBox="0 0 17 19" fill="none" xmlns="http://www.w3.org/2000/svg">
<g id="reload copy">
<path id="Path" fill-rule="evenodd" clip-rule="evenodd" d="M17 8.39401C17 3.76553 13.1869 0 8.50004 0C3.81313 0 0 3.76553 0 8.39401C0 8.66895 0.225732 8.89187 0.504149 8.89187C0.782566 8.89187 1.0083 8.66892 1.0083 8.39401C1.0083 4.31457 4.36907 0.995758 8.5 0.995758C12.6309 0.995758 15.9917 4.3146 15.9917 8.39401C15.9917 12.4734 12.6309 15.7922 8.5 15.7922H7.62533L8.87601 14.4097C9.06153 14.2047 9.04353 13.8899 8.83591 13.7067C8.62829 13.5235 8.30952 13.5413 8.12403 13.7463L6.33621 15.7226C6.04355 16.0461 6.04355 16.534 6.33621 16.8576L8.12403 18.8338C8.22365 18.944 8.3616 19 8.50019 19C8.61972 19 8.73975 18.9582 8.83591 18.8735C9.04357 18.6902 9.06153 18.3755 8.87601 18.1705L7.62533 16.7879H8.5C13.1869 16.7879 17 13.0224 17 8.39401Z" fill="#02B2EE"/>
</g>
</svg>
