<svg width="24" height="27" viewBox="0 0 24 27" fill="none" xmlns="http://www.w3.org/2000/svg">
<path fill-rule="evenodd" clip-rule="evenodd" d="M20.3094 8.34245C20.3094 11.07 17.4426 16.3763 15.1744 20.1508C17.8654 20.3547 23.9945 21.0876 24 23.5176C24 25.909 17.7776 27 12 27C6.21693 27 0 25.909 0 23.5176C0 21.0876 6.12357 20.3547 8.81465 20.1508C6.54645 16.3763 3.67963 11.07 3.67963 8.34245C3.67963 3.74143 7.4087 0 11.9945 0C16.5803 0 20.3094 3.74143 20.3094 8.34245ZM11.9945 1.14612C8.04577 1.14612 4.82746 4.3751 4.82746 8.34245C4.82746 11.8084 10.3249 20.5035 11.9945 23.0602C13.6641 20.5035 19.167 11.8084 19.167 8.34245C19.167 4.3751 15.9487 1.14612 11.9945 1.14612ZM11.9945 25.8484C4.97025 25.8484 1.14233 24.3055 1.14233 23.512C1.14233 22.9004 3.66865 21.5835 9.49016 21.2473C10.5831 23.0161 11.4124 24.2669 11.5222 24.4157C11.6705 24.6141 12.1043 24.851 12.4723 24.4157C12.5876 24.278 13.4114 23.0161 14.5043 21.2473C20.3259 21.5835 22.8522 22.8949 22.8522 23.512C22.8467 24.311 19.0188 25.8484 11.9945 25.8484ZM15.6137 8.34245C15.6137 6.33673 13.9936 4.71122 11.9945 4.71122C9.99542 4.71122 8.37529 6.33673 8.37529 8.34245C8.37529 10.3482 9.99542 11.9737 11.9945 11.9737C13.9936 11.9737 15.6137 10.3482 15.6137 8.34245ZM9.51762 8.34245C9.51762 6.97041 10.627 5.85735 11.9945 5.85735C13.362 5.85735 14.4714 6.97041 14.4714 8.34245C14.4714 9.71449 13.362 10.8276 11.9945 10.8276C10.627 10.8276 9.51762 9.71449 9.51762 8.34245Z" fill="#02B2EE"/>
</svg>
