<svg width="22" height="22" viewBox="0 0 22 22" fill="none" xmlns="http://www.w3.org/2000/svg">
<g id="pin-2">
<rect id="Rectangle" opacity="0.01" width="22" height="22" fill="black"/>
<path id="pin-contacts" fill-rule="evenodd" clip-rule="evenodd" d="M3 7.96753C3 3.57423 6.81307 0 11.5 0C16.1869 0 19.9999 3.57423 20 7.96753C20 13.4198 12.3933 21.4239 12.0695 21.762C11.7658 22.079 11.2347 22.0796 10.9305 21.762C10.6067 21.4239 3 13.4198 3 7.96753ZM7.22348 7.96753C7.22348 10.1779 9.14189 11.9762 11.5 11.9762C13.8581 11.9762 15.7765 10.178 15.7765 7.96758C15.7765 5.75717 13.8581 3.95889 11.5 3.95889C9.14194 3.95889 7.22348 5.75713 7.22348 7.96753Z" fill="#02B2EE"/>
</g>
</svg>
