<svg width="16" height="16" viewBox="0 0 16 16" fill="none" xmlns="http://www.w3.org/2000/svg">
<g id="pin-2">
<rect id="Rectangle" opacity="0.01" width="16" height="16" fill="black"/>
<path id="pin-contacts" fill-rule="evenodd" clip-rule="evenodd" d="M2.18164 5.79457C2.18164 2.59944 4.95479 0 8.36346 0C11.7721 0 14.5452 2.59944 14.5453 5.79457C14.5453 9.75982 9.01316 15.581 8.77762 15.8269C8.55679 16.0575 8.17053 16.0579 7.9493 15.8269C7.71376 15.581 2.18164 9.75982 2.18164 5.79457ZM5.25326 5.79457C5.25326 7.40213 6.64847 8.70998 8.36346 8.70998C10.0784 8.70998 11.4736 7.40217 11.4736 5.7946C11.4736 4.18704 10.0784 2.87919 8.36346 2.87919C6.6485 2.87919 5.25326 4.18701 5.25326 5.79457Z" fill="#333333"/>
</g>
</svg>
