<svg xmlns="http://www.w3.org/2000/svg" width="152" height="30" viewBox="0 0 152 30">
    <g fill="none" fill-rule="nonzero">
        <path fill="#333" d="M0 13.375V.225h3.043l3.373 5.56L9.789.226h3.043v13.15h-2.805V4.79l-3.611 5.617h-.074l-3.574-5.56v8.528H0zm15.911 0V.225h9.679V2.8h-6.874v2.667h6.05V8.04h-6.05V10.8h6.966v2.574h-9.77zm15.27 0V2.893h-3.905V.225h10.632v2.668h-3.904v10.482H31.18zm8.89 0V.225h5.866c1.626 0 2.872.445 3.74 1.334.733.752 1.1 1.766 1.1 3.043 0 2.016-.917 3.375-2.75 4.076l3.135 4.697h-3.3l-2.786-4.208h-2.182v4.208h-2.823zm2.823-6.763h2.86c.684 0 1.216-.172 1.595-.516.379-.345.568-.805.568-1.381 0-.614-.196-1.08-.587-1.4-.39-.319-.934-.479-1.631-.479h-2.805v3.776zm21.54 5.016c-1.296 1.315-2.922 1.972-4.877 1.972-1.955 0-3.577-.657-4.867-1.972-1.289-1.315-1.934-2.924-1.934-4.828 0-1.891.651-3.497 1.953-4.818C56.01.66 57.639 0 59.594 0c1.955 0 3.577.657 4.867 1.972 1.289 1.315 1.934 2.924 1.934 4.828 0 1.891-.654 3.5-1.962 4.828zM56.807 9.73c.733.802 1.662 1.203 2.786 1.203s2.047-.398 2.768-1.193c.72-.795 1.081-1.775 1.081-2.94 0-1.152-.366-2.129-1.1-2.93-.733-.802-1.662-1.203-2.786-1.203s-2.047.398-2.768 1.193c-.72.795-1.081 1.775-1.081 2.94 0 1.152.366 2.129 1.1 2.93zm12.098 3.645V.225h5.243c1.515 0 2.713.42 3.592 1.259.88.839 1.32 1.947 1.32 3.325 0 1.465-.489 2.601-1.466 3.41-.978.807-2.218 1.21-3.721 1.21h-2.145v3.946h-2.823zm2.823-6.519h2.236c.697 0 1.244-.187 1.64-.563.398-.376.597-.864.597-1.465 0-.64-.202-1.13-.605-1.475-.404-.344-.966-.517-1.687-.517H71.73v4.02zm20.53 4.772c-1.295 1.315-2.92 1.972-4.876 1.972-1.955 0-3.577-.657-4.866-1.972-1.29-1.315-1.934-2.924-1.934-4.828 0-1.891.65-3.497 1.952-4.818C83.836.66 85.465 0 87.42 0c1.955 0 3.578.657 4.867 1.972 1.29 1.315 1.934 2.924 1.934 4.828 0 1.891-.654 3.5-1.961 4.828zM84.635 9.73c.733.802 1.662 1.203 2.786 1.203s2.047-.398 2.768-1.193c.721-.795 1.082-1.775 1.082-2.94 0-1.152-.367-2.129-1.1-2.93-.733-.802-1.662-1.203-2.787-1.203-1.124 0-2.046.398-2.767 1.193-.721.795-1.082 1.775-1.082 2.94 0 1.152.367 2.129 1.1 2.93zm12.098 3.645V.225h2.823v10.52h6.398v2.63h-9.22zm11.475 0V.225h2.823v13.15h-2.823zm9.02 0V2.893h-3.905V.225h10.632v2.668h-3.905v10.482h-2.823zm7.79 0l5.5-13.244h2.602l5.5 13.244h-2.952l-1.173-2.95h-5.426l-1.173 2.95h-2.878zm5.06-5.504h3.409l-1.705-4.264-1.705 4.264zm10.521 5.504V.225h2.603l6.013 8.097V.225H152v13.15h-2.401l-6.215-8.36v8.36h-2.786z"/>
        <path fill="#02B2EE" d="M0 29.48v-6.96h2.75c.794 0 1.422.221 1.883.666.462.444.693 1.03.693 1.76 0 .776-.257 1.377-.77 1.805-.512.427-1.163.641-1.95.641H1.48v2.089H0zm1.48-3.45h1.173c.365 0 .652-.1.86-.299.209-.198.313-.457.313-.775 0-.338-.106-.599-.317-.78-.212-.183-.507-.274-.885-.274H1.48v2.128zm4.941 3.45v-6.96h3.077c.852 0 1.506.235 1.96.705.385.398.577.935.577 1.611 0 1.068-.48 1.787-1.442 2.158l1.644 2.487h-1.73l-1.461-2.228H7.902v2.228h-1.48zm1.48-3.58h1.5c.36 0 .638-.09.837-.273.198-.182.298-.426.298-.73 0-.326-.103-.573-.308-.742-.205-.169-.49-.253-.855-.253H7.902V25.9zm5.47 3.58v-6.96h5.076v1.362h-3.605v1.412h3.173v1.362h-3.173v1.462h3.653v1.363h-5.123zm6.441 0v-6.96h1.596l1.769 2.943 1.768-2.944h1.596v6.962h-1.47v-4.545l-1.894 2.973h-.039l-1.874-2.943v4.515h-1.452zm8.411 0v-6.96h1.48v6.96h-1.48zm5.97.11c-.916 0-1.63-.263-2.144-.79-.512-.528-.769-1.295-.769-2.303V22.52h1.48v3.938c0 .557.127.983.38 1.278.254.295.61.443 1.072.443.462 0 .819-.143 1.072-.428.253-.285.38-.7.38-1.243V22.52h1.48v3.929c0 1.034-.26 1.816-.783 2.346-.522.53-1.245.796-2.168.796zm4.46-.11v-6.96h1.596l1.769 2.943 1.769-2.944h1.596v6.962h-1.471v-4.545l-1.894 2.973h-.038l-1.875-2.943v4.515h-1.451zm11.228 0v-6.96h2.75c.794 0 1.422.221 1.884.666.461.444.692 1.03.692 1.76 0 .776-.256 1.377-.77 1.805-.512.427-1.162.641-1.95.641h-1.125v2.089h-1.48zm1.48-3.45h1.174c.365 0 .652-.1.86-.299.208-.198.312-.457.312-.775 0-.338-.105-.599-.317-.78-.211-.183-.506-.274-.884-.274h-1.144v2.128zm4.942 3.45v-6.96h3.076c.852 0 1.506.235 1.961.705.384.398.577.935.577 1.611 0 1.068-.48 1.787-1.442 2.158l1.644 2.487h-1.73l-1.462-2.228h-1.144v2.228h-1.48zm1.48-3.58h1.5c.359 0 .637-.09.836-.273.199-.182.298-.426.298-.73 0-.326-.102-.573-.307-.742-.206-.169-.49-.253-.856-.253h-1.47V25.9zm11.295 2.656c-.679.696-1.531 1.044-2.557 1.044-1.025 0-1.876-.348-2.552-1.044-.676-.696-1.014-1.548-1.014-2.556 0-1.001.341-1.851 1.024-2.55.682-.7 1.536-1.05 2.562-1.05 1.025 0 1.876.348 2.552 1.044.676.696 1.014 1.548 1.014 2.556 0 1.001-.343 1.853-1.029 2.556zM65.08 27.55c.385.425.872.637 1.462.637s1.073-.21 1.451-.632c.378-.42.567-.94.567-1.556 0-.61-.192-1.127-.577-1.551-.384-.425-.871-.637-1.46-.637-.59 0-1.074.21-1.452.632-.378.42-.567.94-.567 1.556 0 .61.192 1.127.576 1.551zm6.345 1.93v-6.962h2.75c.794 0 1.422.222 1.883.667.462.444.692 1.03.692 1.76 0 .776-.256 1.377-.769 1.805-.512.427-1.163.641-1.951.641h-1.125v2.089h-1.48zm1.48-3.451h1.173c.365 0 .652-.1.86-.299.209-.198.313-.457.313-.775 0-.338-.106-.599-.317-.78-.212-.183-.507-.274-.885-.274h-1.144v2.128zm4.941 3.45v-6.96h5.076v1.362h-3.605v1.412h3.172v1.362h-3.172v1.462h3.653v1.363h-5.124zm6.441 0v-6.96h3.076c.852 0 1.506.235 1.961.705.385.398.577.935.577 1.611 0 1.068-.48 1.787-1.442 2.158l1.644 2.487h-1.73l-1.462-2.228h-1.144v2.228h-1.48zm1.48-3.58h1.5c.359 0 .638-.09.836-.273.199-.182.298-.426.298-.73 0-.326-.102-.573-.307-.742-.205-.169-.49-.253-.856-.253h-1.47V25.9zm7.037 3.58v-5.549h-2.048V22.52h5.576v1.412h-2.048v5.55h-1.48zm4.73 0v-6.96h1.48v6.96h-1.48zm3.162 0v-6.96h5.076v1.362h-3.605v1.412h3.172v1.362h-3.172v1.462h3.653v1.363h-5.124zm8.834.1c-1.102 0-2.053-.371-2.855-1.114l.875-1.084c.66.564 1.33.846 2.01.846.3 0 .538-.06.71-.18a.57.57 0 0 0 .26-.497.56.56 0 0 0-.269-.482c-.18-.123-.541-.257-1.086-.403a7.67 7.67 0 0 1-.933-.293 3.078 3.078 0 0 1-.677-.383 1.398 1.398 0 0 1-.471-.602 2.288 2.288 0 0 1-.15-.87c0-.63.22-1.137.66-1.521.438-.385 1.004-.577 1.696-.577.955 0 1.788.295 2.5.885l-.77 1.154c-.634-.458-1.218-.687-1.75-.687-.275 0-.488.058-.639.174a.545.545 0 0 0-.226.453c0 .225.093.394.28.507.185.113.576.249 1.172.408.73.199 1.269.454 1.615.766.346.311.519.759.519 1.342 0 .676-.226 1.205-.678 1.586-.452.382-1.05.572-1.793.572z"/>
    </g>
</svg>
