<svg xmlns="http://www.w3.org/2000/svg" width="190" height="37" viewBox="0 0 190 37">
    <g fill="none" fill-rule="nonzero">
        <path fill="#FFF" d="M0 16.718V.282h3.804l4.216 6.95 4.216-6.95h3.804v16.436h-3.506V5.988l-4.514 7.02h-.092L3.46 6.058v10.66H0zm19.889 0V.282h12.098v3.217h-8.592v3.334h7.561v3.217h-7.561V13.5h8.707v3.217H19.889zm19.087 0V3.616h-4.88V.282h13.29v3.334h-4.881v13.102h-3.529zm11.113 0V.282h7.333c2.031 0 3.59.555 4.674 1.667.917.94 1.375 2.207 1.375 3.804 0 2.52-1.146 4.218-3.437 5.095l3.918 5.87h-4.124l-3.483-5.26h-2.727v5.26h-3.529zm3.529-8.453h3.574c.856 0 1.52-.215 1.994-.646.474-.43.71-1.005.71-1.725 0-.767-.244-1.35-.733-1.75-.489-.399-1.169-.598-2.04-.598h-3.505v4.72zm26.923 6.27C78.922 16.178 76.891 17 74.446 17c-2.444 0-4.472-.822-6.083-2.465-1.612-1.644-2.418-3.656-2.418-6.035 0-2.364.814-4.371 2.44-6.023C70.014.826 72.049 0 74.493 0c2.444 0 4.472.822 6.084 2.465 1.611 1.644 2.417 3.656 2.417 6.035 0 2.364-.817 4.375-2.452 6.035zm-9.532-2.372c.917 1.002 2.078 1.503 3.483 1.503 1.406 0 2.559-.497 3.46-1.491.902-.994 1.352-2.22 1.352-3.675 0-1.44-.458-2.661-1.375-3.663-.916-1.002-2.077-1.503-3.483-1.503-1.405 0-2.558.497-3.46 1.491-.9.994-1.351 2.22-1.351 3.675 0 1.44.458 2.661 1.374 3.663zm15.123 4.555V.282h6.554c1.894 0 3.39.524 4.49 1.573s1.65 2.434 1.65 4.156c0 1.832-.61 3.252-1.833 4.262-1.222 1.01-2.772 1.514-4.651 1.514h-2.68v4.931h-3.53zm3.53-8.148h2.795c.87 0 1.554-.234 2.05-.704.497-.47.745-1.08.745-1.831 0-.799-.252-1.413-.756-1.844-.504-.43-1.207-.645-2.108-.645H89.66V8.57zm25.662 5.965c-1.619 1.643-3.65 2.465-6.095 2.465-2.444 0-4.472-.822-6.083-2.465-1.612-1.644-2.418-3.656-2.418-6.035 0-2.364.814-4.371 2.44-6.023C104.797.826 106.832 0 109.276 0c2.444 0 4.472.822 6.084 2.465 1.611 1.644 2.417 3.656 2.417 6.035 0 2.364-.817 4.375-2.452 6.035zm-9.532-2.372c.917 1.002 2.078 1.503 3.483 1.503 1.406 0 2.559-.497 3.46-1.491.901-.994 1.352-2.22 1.352-3.675 0-1.44-.458-2.661-1.375-3.663-.916-1.002-2.077-1.503-3.483-1.503-1.405 0-2.558.497-3.46 1.491-.9.994-1.351 2.22-1.351 3.675 0 1.44.458 2.661 1.374 3.663zm15.123 4.555V.282h3.529V13.43h7.997v3.287h-11.526zm14.344 0V.282h3.529v16.436h-3.529zm11.274 0V3.616h-4.88V.282h13.29v3.334h-4.881v13.102h-3.53zm9.738 0L163.145.164h3.254l6.874 16.554h-3.69l-1.466-3.686h-6.782l-1.466 3.686h-3.598zm6.324-6.88h4.262l-2.13-5.33-2.132 5.33zm13.153 6.88V.282H179l7.516 10.12V.282H190v16.436h-3.002L179.231 6.27v10.45h-3.483z"/>
        <path fill="#02B2EE" d="M0 36.85v-8.7h3.437c.993 0 1.778.277 2.355.832.577.555.865 1.289.865 2.2 0 .97-.32 1.722-.961 2.257-.641.534-1.454.801-2.44.801H1.85v2.61H0zm1.85-4.313h1.466c.457 0 .816-.124 1.076-.373.26-.248.39-.571.39-.97 0-.422-.132-.747-.396-.975-.264-.228-.633-.342-1.106-.342H1.85v2.66zm6.177 4.314v-8.702h3.845c1.065 0 1.882.294 2.451.883.48.497.721 1.168.721 2.014 0 1.334-.6 2.233-1.802 2.697l2.055 3.108h-2.163l-1.827-2.785h-1.43v2.785h-1.85zm1.85-4.475h1.875c.448 0 .797-.114 1.045-.342.249-.228.373-.533.373-.914 0-.406-.128-.715-.385-.926-.256-.211-.613-.317-1.07-.317H9.878v2.499zm6.837 4.475v-8.702h6.345v1.703h-4.506v1.765h3.965v1.703h-3.965v1.828h4.566v1.703h-6.405zm8.051 0v-8.702h1.995l2.21 3.68 2.212-3.68h1.995v8.702h-1.839V31.17l-2.367 3.717h-.048l-2.343-3.68v5.644h-1.815zm10.514 0v-8.702h1.85v8.702h-1.85zm7.462.137c-1.145 0-2.038-.33-2.68-.989-.64-.659-.96-1.618-.96-2.877v-4.973h1.85v4.923c0 .696.158 1.228.475 1.597.316.369.763.553 1.34.553.576 0 1.023-.178 1.34-.534.316-.357.474-.874.474-1.554v-4.985h1.85v4.91c0 1.293-.326 2.271-.979 2.934-.653.663-1.556.995-2.71.995zm5.576-.137v-8.702h1.995l2.21 3.68 2.211-3.68h1.995v8.702H54.89V31.17l-2.367 3.717h-.049l-2.343-3.68v5.644h-1.814zm14.035 0v-8.702h3.436c.994 0 1.779.278 2.356.833.576.555.865 1.289.865 2.2 0 .97-.32 1.722-.962 2.257-.64.534-1.454.801-2.439.801h-1.406v2.61h-1.85zm1.85-4.314h1.466c.457 0 .815-.124 1.076-.373.26-.248.39-.571.39-.97 0-.422-.132-.747-.396-.975-.265-.228-.633-.342-1.106-.342h-1.43v2.66zm6.177 4.314v-8.702h3.845c1.065 0 1.882.294 2.451.883.48.497.72 1.168.72 2.014 0 1.334-.6 2.233-1.801 2.697l2.054 3.108h-2.163l-1.826-2.785h-1.43v2.785h-1.85zm1.85-4.475h1.875c.448 0 .797-.114 1.045-.342.248-.228.372-.533.372-.914 0-.406-.128-.715-.384-.926-.256-.211-.613-.317-1.07-.317H72.23v2.499zm14.119 3.319c-.85.87-1.915 1.305-3.196 1.305-1.282 0-2.345-.435-3.19-1.305-.846-.87-1.268-1.935-1.268-3.195 0-1.251.426-2.314 1.28-3.189.853-.874 1.92-1.311 3.202-1.311 1.281 0 2.345.435 3.19 1.305.845.87 1.268 1.935 1.268 3.195 0 1.251-.429 2.316-1.286 3.195zm-4.999-1.256c.48.53 1.09.796 1.827.796.737 0 1.341-.263 1.814-.79.473-.526.71-1.174.71-1.945 0-.762-.241-1.409-.722-1.94-.48-.53-1.09-.795-1.826-.795-.737 0-1.342.263-1.815.79-.472.526-.709 1.174-.709 1.945 0 .762.24 1.409.721 1.94zm7.93 2.412v-8.702h3.438c.993 0 1.778.278 2.355.833.576.555.865 1.289.865 2.2 0 .97-.32 1.722-.961 2.257-.641.534-1.454.801-2.44.801H91.13v2.61h-1.85zm1.851-4.314h1.466c.457 0 .815-.124 1.076-.373.26-.248.39-.571.39-.97 0-.422-.132-.747-.396-.975-.265-.228-.633-.342-1.106-.342h-1.43v2.66zm6.177 4.314v-8.702h6.344v1.703h-4.506v1.765h3.965v1.703h-3.965v1.828h4.566v1.703h-6.404zm8.05 0v-8.702h3.846c1.065 0 1.882.294 2.45.883.482.497.722 1.168.722 2.014 0 1.334-.6 2.233-1.803 2.697l2.055 3.108h-2.163l-1.826-2.785h-1.43v2.785h-1.85zm1.851-4.475h1.874c.45 0 .798-.114 1.046-.342.248-.228.372-.533.372-.914 0-.406-.128-.715-.384-.926-.256-.211-.613-.317-1.07-.317h-1.838v2.499zm8.796 4.475v-6.937h-2.56V28.15h6.97v1.765h-2.56v6.937h-1.85zm5.912 0v-8.702h1.85v8.702h-1.85zm3.953 0v-8.702h6.345v1.703h-4.507v1.765h3.966v1.703h-3.966v1.828h4.567v1.703h-6.405zm11.043.124c-1.378 0-2.568-.464-3.569-1.392l1.094-1.355c.825.704 1.662 1.057 2.51 1.057.377 0 .674-.075.89-.224a.714.714 0 0 0 .325-.622c0-.248-.113-.45-.337-.603-.224-.153-.677-.32-1.358-.503a9.588 9.588 0 0 1-1.165-.367 3.848 3.848 0 0 1-.847-.478 1.747 1.747 0 0 1-.59-.753c-.123-.302-.185-.665-.185-1.087 0-.788.274-1.421.823-1.902.548-.48 1.255-.721 2.12-.721 1.194 0 2.235.369 3.125 1.106l-.962 1.442c-.793-.572-1.522-.858-2.187-.858-.344 0-.61.073-.799.218a.681.681 0 0 0-.282.566c0 .281.116.493.348.634.233.14.721.31 1.466.51.914.248 1.587.567 2.02.956.432.39.648.95.648 1.679 0 .845-.282 1.506-.847 1.982-.565.477-1.312.715-2.241.715z"/>
    </g>
</svg>
