<svg width="21" height="21" viewBox="0 0 21 21" fill="none" xmlns="http://www.w3.org/2000/svg">
<path id="Combined Shape" fill-rule="evenodd" clip-rule="evenodd" d="M21 13.883V7.11213C21 6.96379 20.9024 6.83306 20.7602 6.79088L17.6275 5.86143C17.87 5.26829 18.0211 4.67957 18.0211 4.13299C18.0211 1.85408 16.1671 0 13.8882 0C11.6092 0 9.75519 1.85404 9.75519 4.13299C9.75519 4.67957 9.90635 5.26829 10.1488 5.86143L7.11148 6.7626L0.43041 4.78019C0.329074 4.75021 0.219427 4.76969 0.134668 4.83291C0.0499084 4.89614 0 4.99573 0 5.10149V11.8808V11.8833V18.6543C0 18.8026 0.0975381 18.9334 0.239802 18.9756L7.01113 20.9847L7.01617 20.9862L7.01944 20.9869C7.0319 20.9905 7.04468 20.9932 7.05773 20.9953L7.06823 20.9969C7.08226 20.9987 7.09647 21 7.11094 21C7.12649 21 7.14074 20.9987 7.15482 20.9969L7.16523 20.9953C7.17828 20.9932 7.1911 20.9904 7.20361 20.9869L7.20687 20.9862L7.20995 20.9853L13.7524 19.0441C13.794 19.0625 13.8398 19.073 13.8882 19.073C13.9366 19.073 13.9825 19.0625 14.024 19.0441L20.5695 20.9861C20.6009 20.9954 20.6329 21 20.6649 21C20.7363 21 20.8068 20.9772 20.8653 20.9334C20.95 20.8702 21 20.7706 21 20.6649V13.8857L21 13.883ZM20.3297 7.36226V13.4396L14.2233 11.6278V10.6746C14.6602 10.2247 16.3763 8.39613 17.3454 6.47682L20.3297 7.36226ZM17.3509 4.13299C17.3509 2.22359 15.7975 0.670214 13.8882 0.670214C11.9788 0.670214 10.4254 2.22359 10.4254 4.13294C10.4254 4.67658 10.6068 5.28165 10.8889 5.89431C10.9044 5.91857 10.917 5.94516 10.9261 5.97384C11.7339 7.6778 13.2944 9.42245 13.8881 10.0538C14.4822 9.42178 16.0441 7.67471 16.8515 5.97018C16.8601 5.944 16.8717 5.91964 16.8857 5.89721C17.1688 5.28343 17.3509 4.67725 17.3509 4.13299ZM13.5531 10.6746V11.6277L7.44658 13.4395V7.36226L10.4309 6.47682C11.4 8.39613 13.1161 10.2247 13.5531 10.6746ZM2.98548 13.0138L0.670211 12.3268V18.4042L6.77642 20.216V14.1387L4.27054 13.3951C4.09307 13.3425 3.99191 13.156 4.04459 12.9786C4.09723 12.8011 4.28377 12.6999 4.46115 12.7526L6.77637 13.4396V7.36226L0.670211 5.55045V11.6278L3.17609 12.3713C3.35356 12.4239 3.45472 12.6104 3.40204 12.7879C3.35883 12.9335 3.22546 13.0278 3.08092 13.0278C3.04937 13.0278 3.01729 13.0232 2.98548 13.0138ZM14.2233 18.4042V15.9781C14.2233 15.7931 14.0733 15.643 13.8882 15.643C13.7031 15.643 13.5531 15.7931 13.5531 15.9781V18.4042L7.44658 20.2159V14.1387L13.5531 12.3268V14.6377C13.5531 14.8228 13.7031 14.9728 13.8882 14.9728C14.0733 14.9728 14.2233 14.8228 14.2233 14.6377V12.3268L20.3297 14.1387V20.216L14.2233 18.4042ZM13.8882 6.47874C15.1816 6.47874 16.2339 5.42646 16.2339 4.13299C16.2339 2.83956 15.1816 1.78724 13.8882 1.78724C12.5947 1.78724 11.5424 2.83952 11.5424 4.13299C11.5424 5.42641 12.5947 6.47874 13.8882 6.47874ZM13.8882 2.45745C14.8121 2.45745 15.5637 3.20907 15.5637 4.13299C15.5637 5.0569 14.8121 5.80852 13.8882 5.80852C12.9643 5.80852 12.2126 5.0569 12.2126 4.13299C12.2126 3.20907 12.9643 2.45745 13.8882 2.45745Z" fill="#333333"/>
</svg>
