<svg width="41" height="41" viewBox="0 0 41 41" fill="none" xmlns="http://www.w3.org/2000/svg">
<g id="phone-call copy">
<path id="Combined Shape" fill-rule="evenodd" clip-rule="evenodd" d="M36.7355 16.5658H26.6469C26.723 16.1448 26.7616 15.7164 26.7622 15.2869V5.26158C26.7622 1.38192 24.3418 0 22.0367 0H4.7024C2.3973 0 0 1.38191 0 5.25299V15.2783C0 18.8061 2.00543 20.2652 4.08002 20.497V25.0633C4.07916 25.5373 4.42252 25.9224 4.84685 25.9233C5.07621 25.9239 5.29365 25.8099 5.44003 25.6126L9.28185 20.5313H17.1038C17.0747 20.7904 17.0592 21.0512 17.0577 21.3124V30.2133C17.0577 33.7239 19.2629 34.977 21.3221 34.977H22.8051L26.3396 39.6893C26.6103 40.0543 27.0947 40.105 27.4214 39.8026C27.598 39.6392 27.7 39.3962 27.6996 39.1399V34.977H36.7355C39.8782 34.977 41 32.5136 41 30.2133V21.3124C41.0077 17.8018 38.8025 16.5658 36.7355 16.5658ZM17.5572 18.8146L17.5264 18.8318H8.88999C8.6615 18.8314 8.44462 18.9447 8.29835 19.1408L5.61675 22.7201V19.673C5.61675 19.199 5.27272 18.8146 4.84839 18.8146H4.7024C3.51911 18.8146 1.53673 18.3511 1.53673 15.2783V5.26158C1.53673 2.18016 3.51911 1.72525 4.7024 1.72525H22.0367C23.22 1.72525 25.2024 2.18875 25.2024 5.27016V15.2783C25.2118 15.7126 25.1652 16.1463 25.0641 16.5658H21.3298C19.7932 16.4602 18.3342 17.3299 17.5572 18.8146ZM36.7432 33.2604C36.9214 33.282 37.1012 33.282 37.2795 33.2604C38.6378 33.0949 39.619 31.7307 39.4709 30.2133L39.4632 21.3296C39.4827 21.1305 39.4827 20.9297 39.4632 20.7305C39.3151 19.2131 38.0939 18.117 36.7355 18.2825H21.3298C21.1573 18.2617 20.9834 18.2611 20.8108 18.2809C19.4515 18.4367 18.4627 19.7939 18.6021 21.3124V30.2133C18.5827 30.4123 18.5827 30.6132 18.6021 30.8123C18.7502 32.3297 19.9715 33.4258 21.3298 33.2604H23.1509C23.3793 33.2599 23.5962 33.3732 23.7425 33.5694L26.1475 36.7795V34.1187C26.1475 33.6447 26.4915 33.2604 26.9158 33.2604H36.7432ZM15.9513 6.38599C15.7039 5.95811 15.3519 5.61854 14.937 5.40749C14.4773 5.1707 13.9756 5.05322 13.4694 5.06416C12.9345 5.05676 12.4063 5.19838 11.9327 5.47616C11.5169 5.71703 11.1646 6.07506 10.9108 6.51474C10.6665 6.88704 10.5275 7.33241 10.5112 7.79366C10.5158 8.00298 10.5962 8.20115 10.7341 8.34299C10.8778 8.50682 11.0743 8.59952 11.2796 8.60049C11.6433 8.60049 11.8994 8.35726 12.048 7.87091C12.1491 7.48584 12.3219 7.12899 12.5551 6.82374C12.8061 6.56324 13.1434 6.43245 13.4848 6.46324C13.8091 6.44822 14.1258 6.5744 14.3684 6.81516C14.5896 7.03167 14.7158 7.34486 14.7142 7.67349C14.7149 7.84505 14.6751 8.01371 14.5989 8.16274C14.5248 8.31413 14.4316 8.45286 14.3223 8.57474C14.2148 8.69491 14.038 8.87516 13.7922 9.11549C13.5586 9.34005 13.3355 9.57781 13.1237 9.8279C12.7554 10.2692 12.5592 10.8559 12.5781 11.4587C12.5623 11.6991 12.6375 11.9358 12.7856 12.1111C12.9201 12.2538 13.0997 12.3309 13.285 12.3257C13.6363 12.3547 13.9422 12.0602 13.9682 11.6678L13.9689 11.6562C13.9945 11.5188 14.0201 11.4044 14.0389 11.3204L14.0389 11.3202L14.039 11.3201L14.039 11.3199C14.0484 11.2782 14.056 11.244 14.0611 11.2184C14.0842 11.1321 14.1152 11.0488 14.1533 10.9695C14.2022 10.8703 14.2615 10.7782 14.33 10.6948C14.4291 10.5711 14.5343 10.4536 14.645 10.3429C15.1163 9.87372 15.4441 9.53897 15.6286 9.33865C15.8162 9.12911 15.9743 8.88889 16.0973 8.62624C16.2344 8.33237 16.3031 8.00481 16.297 7.67349C16.2995 7.21535 16.1791 6.76688 15.9513 6.38599ZM13.3466 12.9179C13.8134 12.9226 14.1883 13.3492 14.184 13.8706C14.2001 14.1379 14.1034 14.3983 13.9228 14.5745C13.7594 14.742 13.5452 14.834 13.3235 14.832C13.097 14.835 12.8777 14.743 12.7088 14.5745C12.5259 14.3964 12.429 14.1323 12.4475 13.8621C12.4439 13.6065 12.5358 13.3607 12.7011 13.184C12.8664 13.0016 13.0911 12.9023 13.3235 12.9093L13.3311 12.9179H13.3466ZM30.4887 21.9819C30.5071 21.5564 30.4415 21.1315 30.2966 20.7373C30.1509 20.4539 29.874 20.2876 29.5821 20.3081C29.2941 20.2861 29.0123 20.4089 28.8137 20.6429C28.6142 20.902 28.5123 21.2373 28.5294 21.5785C28.5294 21.8703 28.5499 22.3539 28.5909 23.0291L28.7983 26.4624C28.8148 26.8064 28.8796 27.1452 28.9904 27.4666C29.0741 27.6784 29.2677 27.8089 29.4745 27.7928C29.6866 27.8047 29.8829 27.6676 29.9663 27.4495C30.0825 27.1389 30.1475 26.8074 30.1583 26.471L30.4887 22.9518C30.5035 22.6287 30.5035 22.305 30.4887 21.9819ZM29.5283 29.0975C29.7892 29.0901 30.0417 29.2015 30.2275 29.4065C30.4136 29.6055 30.5168 29.8825 30.5118 30.1704C30.5258 30.4718 30.4187 30.7645 30.2198 30.9686C30.0355 31.1578 29.7939 31.2621 29.5437 31.2605C29.2895 31.2661 29.0427 31.1651 28.8521 30.9772C28.6523 30.7737 28.5451 30.4806 28.5601 30.179V30.1617C28.5644 29.5692 28.9978 29.0927 29.5283 29.0975Z" fill="#02B2EE"/>
</g>
</svg>
