<svg width="71" height="57" viewBox="0 0 71 57" fill="none" xmlns="http://www.w3.org/2000/svg">
<path d="M70 45.3055L65.6257 50.3466L61.254 55.3823L56.8783 50.3466L52.5066 45.3055" stroke="#02B2EE"/>
<path d="M52.8302 45.3055L48.4572 50.3466L44.0855 55.3823L39.7098 50.3466L35.3394 45.3055" stroke="#02B2EE"/>
<path d="M35.6604 45.3055L31.2874 50.3466L26.9144 55.3823L22.54 50.3466L18.1696 45.3055" stroke="#02B2EE"/>
<path d="M18.4905 45.3055L14.1175 50.3466L9.74312 55.3823L5.36747 50.3466L0.998409 45.3055" stroke="#02B2EE"/>
<path d="M70 30.7916L65.6257 35.8327L61.254 40.8684L56.8783 35.8327L52.5066 30.7916" stroke="#02B2EE"/>
<path d="M52.8302 30.7916L48.4572 35.8327L44.0855 40.8684L39.7098 35.8327L35.3394 30.7916" stroke="#02B2EE"/>
<path d="M35.6604 30.7916L31.2874 35.8327L26.9144 40.8684L22.54 35.8327L18.1696 30.7916" stroke="#02B2EE"/>
<path d="M18.4905 30.7916L14.1175 35.8327L9.74312 40.8684L5.36747 35.8327L0.998409 30.7916" stroke="#02B2EE"/>
<path d="M70 16.2777L65.6257 21.3187L61.254 26.3545L56.8783 21.3187L52.5066 16.2777" stroke="#02B2EE"/>
<path d="M52.8302 16.2777L48.4572 21.3187L44.0855 26.3545L39.7098 21.3187L35.3394 16.2777" stroke="#02B2EE"/>
<path d="M35.6604 16.2777L31.2874 21.3187L26.9144 26.3545L22.54 21.3187L18.1696 16.2777" stroke="#02B2EE"/>
<path d="M18.4905 16.2777L14.1175 21.3187L9.74312 26.3545L5.36747 21.3187L0.998409 16.2777" stroke="#02B2EE"/>
<path d="M70 0.999821L65.6257 6.04091L61.254 11.0767L56.8783 6.04092L52.5066 0.999822" stroke="#02B2EE"/>
<path d="M52.8302 0.999821L48.4572 6.04091L44.0855 11.0767L39.7098 6.04092L35.3394 0.999822" stroke="#02B2EE"/>
<path d="M35.6604 0.999821L31.2874 6.04091L26.9144 11.0767L22.54 6.04092L18.1696 0.999822" stroke="#02B2EE"/>
<path d="M18.4905 0.999821L14.1175 6.04091L9.74312 11.0767L5.36747 6.04092L0.998409 0.999822" stroke="#02B2EE"/>
</svg>
