<svg width="80" height="70" viewBox="0 0 80 70" fill="none" xmlns="http://www.w3.org/2000/svg">
<g id="Group 11">
<path id="Combined Shape" fill-rule="evenodd" clip-rule="evenodd" d="M68.332 26.25H73.6055C76.0288 26.25 78 28.2125 78 30.625V65.625C78 68.0375 76.0288 70 73.6055 70H17.0625C14.6392 70 12.668 68.0375 12.668 65.625V43.75H7.39453C4.97124 43.75 3 41.7875 3 39.375V4.375C3 1.96248 4.97124 0 7.39453 0H63.9375C66.3608 0 68.332 1.96248 68.332 4.375V26.25ZM65.4023 11.6667H5.92969V17.5H65.4023V11.6667ZM7.39453 2.91667H63.9375C64.7455 2.91667 65.4023 3.57064 65.4023 4.375V8.75H5.92969V4.375C5.92969 3.57064 6.58658 2.91667 7.39453 2.91667ZM5.92969 39.375C5.92969 40.1794 6.58658 40.8333 7.39453 40.8333H12.668V30.625C12.668 28.2125 14.6392 26.25 17.0625 26.25H65.4023V20.4167H5.92969V39.375ZM75.0703 65.625C75.0703 66.4294 74.4134 67.0833 73.6055 67.0833H17.0625C16.2545 67.0833 15.5977 66.4294 15.5977 65.625V30.625C15.5977 29.8206 16.2545 29.1667 17.0625 29.1667H73.6055C74.4134 29.1667 75.0703 29.8206 75.0703 30.625V65.625ZM39.0352 51.0417C39.0352 50.2367 39.6915 49.5833 40.5 49.5833C41.3085 49.5833 41.9648 50.2367 41.9648 51.0417C41.9648 51.8466 41.3085 52.5 40.5 52.5C39.6915 52.5 39.0352 51.8466 39.0352 51.0417ZM61.0078 35C59.4108 35 57.871 35.5218 56.6127 36.4612C55.3556 35.5218 53.8163 35 52.2188 35C48.1801 35 44.8945 38.271 44.8945 42.2917C44.8945 46.3123 48.1801 49.5833 52.2188 49.5833C53.8163 49.5833 55.3561 49.0615 56.6127 48.1222C57.871 49.0615 59.4108 49.5833 61.0078 49.5833C65.0464 49.5833 68.332 46.3123 68.332 42.2917C68.332 38.271 65.0464 35 61.0078 35ZM47.8242 42.2917C47.8242 39.8792 49.7955 37.9167 52.2188 37.9167C53.4787 37.9167 54.6792 38.4567 55.5129 39.3984C55.5129 39.3987 55.5132 39.3991 55.5135 39.3994L55.5141 39.4001C56.223 40.1982 56.6133 41.2253 56.6133 42.2917C56.6133 43.3581 56.223 44.3852 55.5129 45.185C54.6792 46.1266 53.4787 46.6667 52.2188 46.6667C49.7955 46.6667 47.8242 44.7042 47.8242 42.2917ZM58.5651 45.9272C59.282 46.4041 60.1306 46.6667 61.0078 46.6667C63.4311 46.6667 65.4023 44.7042 65.4023 42.2917C65.4023 39.8792 63.4311 37.9167 61.0078 37.9167C60.1306 37.9167 59.282 38.1793 58.5651 38.6561C59.2008 39.7544 59.543 41.0059 59.543 42.2917C59.543 43.5774 59.2008 44.8289 58.5651 45.9272ZM22.9219 58.3333H28.7812C29.5903 58.3333 30.2461 58.9862 30.2461 59.7917C30.2461 60.5972 29.5903 61.25 28.7812 61.25H22.9219C22.1128 61.25 21.457 60.5972 21.457 59.7917C21.457 58.9862 22.1128 58.3333 22.9219 58.3333ZM40.5 58.3333H34.6406C33.8315 58.3333 33.1758 58.9862 33.1758 59.7917C33.1758 60.5972 33.8315 61.25 34.6406 61.25H40.5C41.3091 61.25 41.9648 60.5972 41.9648 59.7917C41.9648 58.9862 41.3091 58.3333 40.5 58.3333ZM46.3594 58.3333H52.2188C53.0278 58.3333 53.6836 58.9862 53.6836 59.7917C53.6836 60.5972 53.0278 61.25 52.2188 61.25H46.3594C45.5503 61.25 44.8945 60.5972 44.8945 59.7917C44.8945 58.9862 45.5503 58.3333 46.3594 58.3333ZM58.0781 58.3333C57.269 58.3333 56.6133 58.9862 56.6133 59.7917C56.6133 60.5972 57.269 61.25 58.0781 61.25H63.9375C64.7466 61.25 65.4023 60.5972 65.4023 59.7917C65.4023 58.9862 64.7466 58.3333 63.9375 58.3333H58.0781ZM34.6406 52.5H22.9219C22.1128 52.5 21.457 51.8472 21.457 51.0417C21.457 50.2362 22.1128 49.5833 22.9219 49.5833H34.6406C35.4497 49.5833 36.1055 50.2362 36.1055 51.0417C36.1055 51.8472 35.4497 52.5 34.6406 52.5Z" fill="#02B2EE"/>
</g>
</svg>
