<svg width="15" height="15" viewBox="0 0 15 15" fill="none" xmlns="http://www.w3.org/2000/svg">
<path d="M13.981 11.4487L11.8852 9.34782C11.4677 8.93109 10.7764 8.94375 10.3444 9.3769L9.28843 10.435C9.22172 10.3981 9.15267 10.3596 9.08007 10.3188C8.41327 9.94849 7.50064 9.44095 6.54028 8.47771C5.57708 7.51244 5.07021 6.59633 4.69961 5.92759C4.6605 5.85674 4.62303 5.78843 4.58603 5.72356L5.29471 5.01433L5.64312 4.6647C6.07579 4.23093 6.08772 3.53823 5.67124 3.12029L3.57534 1.01918C3.15885 0.601827 2.46721 0.614488 2.03454 1.04825L1.44385 1.64369L1.45999 1.65975C1.26192 1.91305 1.09641 2.2052 0.973241 2.52025C0.859702 2.82014 0.789014 3.1063 0.756692 3.39306C0.479942 5.69257 1.52838 7.79415 4.3737 10.646C8.30679 14.5877 11.4763 14.2899 11.6131 14.2754C11.9109 14.2397 12.1963 14.1684 12.4863 14.0555C12.7979 13.9335 13.0892 13.7678 13.3418 13.5697L13.3547 13.5812L13.9531 12.9939C14.3849 12.5602 14.3973 11.8673 13.981 11.4487Z" fill="#02B2EE"/>
</svg>
