<svg width="50" height="50" viewBox="0 0 50 50" fill="none" xmlns="http://www.w3.org/2000/svg">
<path d="M37.5 3.33333H30V0.833333C30 0.373125 29.6269 0 29.1667 0H9.16667C8.70646 0 8.33333 0.373125 8.33333 0.833333V3.33333H0.833333C0.373125 3.33333 0 3.70646 0 4.16667V49.1667C0 49.6269 0.373125 50 0.833333 50H37.5C37.9602 50 38.3333 49.6269 38.3333 49.1667V4.16667C38.3333 3.70646 37.9602 3.33333 37.5 3.33333ZM10 1.66667H28.3333V3.33333H10V1.66667ZM10 5H28.3333V8.33333H21.5242C21.0647 7.03135 19.6367 6.34833 18.3347 6.80781C17.6217 7.05948 17.0608 7.62031 16.8092 8.33333H10V5ZM36.6667 48.3333H1.66667V5H8.33333V9.16667C8.33333 9.62687 8.70646 10 9.16667 10H17.5C17.9602 10 18.3333 9.62687 18.3333 9.16667C18.3333 8.70646 18.7065 8.33333 19.1667 8.33333C19.6269 8.33333 20 8.70646 20 9.16667C20 9.62687 20.3731 10 20.8333 10H29.1667C29.6269 10 30 9.62687 30 9.16667V5H36.6667V48.3333Z" fill="#02B2EE"/>
<path d="M8.33333 11.6666C6.4924 11.6666 5 13.159 5 15C5 16.8409 6.4924 18.3333 8.33333 18.3333C10.1743 18.3333 11.6667 16.8409 11.6667 15C11.6667 13.159 10.1743 11.6666 8.33333 11.6666ZM8.33333 16.6666C7.41281 16.6666 6.66667 15.9205 6.66667 15C6.66667 14.0794 7.41281 13.3333 8.33333 13.3333C9.25385 13.3333 10 14.0794 10 15C10 15.9205 9.25385 16.6666 8.33333 16.6666Z" fill="#02B2EE"/>
<path d="M8.33333 20C6.4924 20 5 21.4924 5 23.3333C5 25.1743 6.4924 26.6667 8.33333 26.6667C10.1743 26.6667 11.6667 25.1743 11.6667 23.3333C11.6667 21.4924 10.1743 20 8.33333 20ZM8.33333 25C7.41281 25 6.66667 24.2539 6.66667 23.3333C6.66667 22.4128 7.41281 21.6667 8.33333 21.6667C9.25385 21.6667 10 22.4128 10 23.3333C10 24.2539 9.25385 25 8.33333 25Z" fill="#02B2EE"/>
<path d="M32.5 12.5H20.8333C20.3731 12.5 20 12.8731 20 13.3333C20 13.7935 20.3731 14.1667 20.8333 14.1667H32.5C32.9602 14.1667 33.3333 13.7935 33.3333 13.3333C33.3333 12.8731 32.9602 12.5 32.5 12.5Z" fill="#02B2EE"/>
<path d="M17.4997 12.5H14.1663C13.7061 12.5 13.333 12.8731 13.333 13.3333C13.333 13.7935 13.7061 14.1667 14.1663 14.1667H17.4997C17.9599 14.1667 18.333 13.7935 18.333 13.3333C18.333 12.8731 17.9599 12.5 17.4997 12.5Z" fill="#02B2EE"/>
<path d="M32.5 15.8334H25.8333C25.3731 15.8334 25 16.2065 25 16.6667C25 17.1269 25.3731 17.5 25.8333 17.5H32.5C32.9602 17.5 33.3333 17.1269 33.3333 16.6667C33.3333 16.2065 32.9602 15.8334 32.5 15.8334Z" fill="#02B2EE"/>
<path d="M22.4997 15.8334H14.1663C13.7061 15.8334 13.333 16.2065 13.333 16.6667C13.333 17.1269 13.7061 17.5 14.1663 17.5H22.4997C22.9599 17.5 23.333 17.1269 23.333 16.6667C23.333 16.2065 22.9599 15.8334 22.4997 15.8334Z" fill="#02B2EE"/>
<path d="M32.4997 20.8334H29.1663C28.7061 20.8334 28.333 21.2065 28.333 21.6667C28.333 22.1269 28.7061 22.5 29.1663 22.5H32.4997C32.9599 22.5 33.333 22.1269 33.333 21.6667C33.333 21.2065 32.9599 20.8334 32.4997 20.8334Z" fill="#02B2EE"/>
<path d="M25.833 20.8334H14.1663C13.7061 20.8334 13.333 21.2065 13.333 21.6667C13.333 22.1269 13.7061 22.5 14.1663 22.5H25.833C26.2932 22.5 26.6663 22.1269 26.6663 21.6667C26.6663 21.2065 26.2932 20.8334 25.833 20.8334Z" fill="#02B2EE"/>
<path d="M32.5 24.1666H23.3333C22.8731 24.1666 22.5 24.5398 22.5 25C22.5 25.4602 22.8731 25.8333 23.3333 25.8333H32.5C32.9602 25.8333 33.3333 25.4602 33.3333 25C33.3333 24.5398 32.9602 24.1666 32.5 24.1666Z" fill="#02B2EE"/>
<path d="M19.9997 24.1666H14.1663C13.7061 24.1666 13.333 24.5398 13.333 25C13.333 25.4602 13.7061 25.8333 14.1663 25.8333H19.9997C20.4599 25.8333 20.833 25.4602 20.833 25C20.833 24.5398 20.4599 24.1666 19.9997 24.1666Z" fill="#02B2EE"/>
<path d="M46.6667 3.41667V3.33333C46.6667 1.4924 45.1743 0 43.3333 0C41.4924 0 40 1.4924 40 3.33333V43.3333C40 43.3442 40.0058 43.3533 40.0058 43.3633C40.0094 43.451 40.0268 43.5377 40.0575 43.62C40.065 43.6383 40.0692 43.6575 40.0767 43.675C40.0842 43.6925 40.0825 43.6958 40.0875 43.7058L42.5 48.53V49.1667C42.5 49.6269 42.8731 50 43.3333 50C43.7935 50 44.1667 49.6269 44.1667 49.1667V48.53L46.5833 43.7058C46.5883 43.6958 46.5892 43.685 46.5942 43.675C46.5992 43.665 46.6058 43.6383 46.6133 43.62C46.6441 43.5377 46.6615 43.451 46.665 43.3633C46.665 43.3525 46.6708 43.3442 46.6708 43.3333V5.15333C47.6645 5.50656 48.3296 6.44542 48.3333 7.5V15C48.3333 15.4602 48.7065 15.8333 49.1667 15.8333C49.6269 15.8333 50 15.4602 50 15V7.5C49.9975 5.52073 48.6053 3.81531 46.6667 3.41667ZM43.3333 46.47L42.1817 44.1667H44.485L43.3333 46.47ZM45 42.5H41.6667V19.1667H45V42.5ZM45 17.5H41.6667V5H45V17.5ZM41.6667 3.33333C41.6667 2.41281 42.4128 1.66667 43.3333 1.66667C44.2539 1.66667 45 2.41281 45 3.33333H41.6667Z" fill="#02B2EE"/>
<path d="M25 32.4999V30.8333H22.5C22.2789 30.8333 22.0671 30.9212 21.9108 31.0774L21.2708 31.7174C18.0793 27.7875 12.3061 27.1891 8.37634 30.3807C4.44655 33.5722 3.84801 39.3454 7.03957 43.2753C10.2311 47.2052 16.0043 47.8036 19.934 44.612C20.0127 44.5482 20.0902 44.4831 20.1667 44.4167C20.5622 44.0683 20.9269 43.6863 21.2567 43.2751L21.9058 43.9242C22.0635 44.0811 22.2775 44.1685 22.5 44.1667H25V42.5001H22.845L22.2092 41.8642C23.7043 39.144 23.7083 35.849 22.22 33.125L22.845 32.5H25V32.4999ZM20.9775 40.6324L19.7558 39.4108L18.5775 40.5891L20.0833 42.0941C19.9417 42.2758 19.7942 42.4533 19.6358 42.6224L15.345 38.3333H21.62C21.5304 39.1291 21.3134 39.9055 20.9775 40.6324ZM13.3333 36.6666C12.8731 36.6667 12.5001 37.0398 12.5002 37.5002C12.5002 37.7211 12.588 37.9329 12.7442 38.0891L18.3625 43.7083C14.9328 46.0309 10.2697 45.1334 7.94707 41.7037C5.62446 38.274 6.52196 33.6109 9.95165 31.2883C13.226 29.0709 17.6597 29.7768 20.0833 32.9016L18.5742 34.4108L19.7525 35.5891L20.9708 34.3716C21.3096 35.0966 21.5288 35.8716 21.62 36.6666H13.3333Z" fill="#02B2EE"/>
<path d="M30.0003 28.3334C28.1594 28.3334 26.667 29.8258 26.667 31.6667C26.667 33.5076 28.1594 35 30.0003 35C31.8413 35 33.3337 33.5076 33.3337 31.6667C33.3337 29.8258 31.8413 28.3334 30.0003 28.3334ZM30.0003 33.3334C29.0798 33.3334 28.3337 32.5872 28.3337 31.6667C28.3337 30.7462 29.0798 30 30.0003 30C30.9208 30 31.667 30.7462 31.667 31.6667C31.667 32.5872 30.9208 33.3334 30.0003 33.3334Z" fill="#02B2EE"/>
<path d="M30.0003 40C28.1594 40 26.667 41.4924 26.667 43.3333C26.667 45.1743 28.1594 46.6667 30.0003 46.6667C31.8413 46.6667 33.3337 45.1743 33.3337 43.3333C33.3337 41.4924 31.8413 40 30.0003 40ZM30.0003 45C29.0798 45 28.3337 44.2539 28.3337 43.3333C28.3337 42.4128 29.0798 41.6667 30.0003 41.6667C30.9208 41.6667 31.667 42.4128 31.667 43.3333C31.667 44.2539 30.9208 45 30.0003 45Z" fill="#02B2EE"/>
</svg>
