<svg width="22" height="22" viewBox="0 0 22 22" fill="none" xmlns="http://www.w3.org/2000/svg">
<g id="icons_email">
<rect id="Rectangle" opacity="0.01" width="22" height="22" fill="black"/>
<path id="Combined Shape" fill-rule="evenodd" clip-rule="evenodd" d="M13.7225 3.88926C13.7234 2.307 14.5208 0.836962 15.8323 0H3.79857C1.70167 0.00239954 0.00237485 1.74227 0 3.88926V11.1687H13.7225V3.88926ZM10.5034 4.83093H8.60863V7.27936C8.60863 7.47174 8.45632 7.6277 8.26843 7.6277H4.79186C4.60397 7.6277 4.45165 7.47174 4.45165 7.27936V4.56729C4.45536 4.53919 4.45536 4.5107 4.45165 4.48259C4.45165 4.29021 4.60397 4.13426 4.79186 4.13426H10.5034C10.6912 4.13426 10.8436 4.29021 10.8436 4.48259C10.8436 4.67497 10.6912 4.83093 10.5034 4.83093ZM18.2015 0C16.1046 0.00236761 14.4053 1.74225 14.4029 3.88926V11.1687H22V3.88926C21.9976 1.74229 20.2984 0.00243153 18.2015 0ZM19.7741 8.81424H16.6288C16.4409 8.81424 16.2886 8.65828 16.2886 8.4659C16.2886 8.27353 16.4409 8.11757 16.6288 8.11757H19.7741C19.962 8.11757 20.1143 8.27353 20.1143 8.4659C20.1143 8.65828 19.962 8.81424 19.7741 8.81424ZM11.4048 11.8654H8.77414V21H11.4048V11.8654ZM5.13207 4.83093H7.92822V6.93109H5.13207V4.83093Z" fill="#02B2EE"/>
</g>
</svg>
