<svg width="50" height="50" viewBox="0 0 50 50" fill="none" xmlns="http://www.w3.org/2000/svg">
<g clip-path="url(#clip0)">
<path d="M13.561 18.4417C13.1524 18.4417 12.8213 18.7728 12.8213 19.1813V25.8876C12.8213 26.2961 13.1524 26.6272 13.561 26.6272H20.2672C20.6758 26.6272 21.0069 26.2961 21.0069 25.8876V19.1813C21.0069 18.7728 20.6758 18.4417 20.2672 18.4417H13.561ZM19.5275 25.1479H14.3006V19.921H19.5275V25.1479Z" fill="#02B2EE"/>
<path d="M36.3423 18.7373H23.5219C23.1133 18.7373 22.7822 19.0688 22.7822 19.477C22.7822 19.8855 23.1133 20.2166 23.5219 20.2166H36.3423C36.7509 20.2166 37.082 19.8855 37.082 19.477C37.082 19.0688 36.7509 18.7373 36.3423 18.7373Z" fill="#02B2EE"/>
<path d="M37.082 22.7316C37.082 22.3231 36.7509 21.9919 36.3423 21.9919H23.5219C23.1133 21.9919 22.7822 22.3231 22.7822 22.7316C22.7822 23.1402 23.1133 23.4713 23.5219 23.4713H36.3423C36.7509 23.4713 37.082 23.1402 37.082 22.7316Z" fill="#02B2EE"/>
<path d="M23.5219 25.1482C23.1133 25.1482 22.7822 25.4793 22.7822 25.8879C22.7822 26.296 23.1133 26.6272 23.5219 26.6272H33.384C33.7926 26.6272 34.1237 26.296 34.1237 25.8879C34.1237 25.4793 33.7926 25.1482 33.384 25.1482H23.5219Z" fill="#02B2EE"/>
<path d="M43.2949 5.42412C44.2467 5.42412 45.0211 4.64973 45.0211 3.69797V1.72577C45.0211 0.774384 44.2467 0 43.2949 0H15.4022C14.9937 0 14.6626 0.331116 14.6626 0.73967C14.6626 1.14822 14.9937 1.47934 15.4022 1.47934H43.2949C43.4311 1.47934 43.5417 1.58997 43.5417 1.72577V3.69835C43.5417 3.83415 43.4311 3.94478 43.2949 3.94478H6.60858C6.47278 3.94478 6.36215 3.83415 6.36215 3.69835V1.72577C6.36215 1.58997 6.47278 1.47934 6.60858 1.47934H11.9915C12.4001 1.47934 12.7312 1.14822 12.7312 0.73967C12.7312 0.331116 12.4001 0 11.9915 0H6.60858C5.6572 0 4.88281 0.774384 4.88281 1.72577V3.69835C4.88281 4.64973 5.6572 5.42412 6.60858 5.42412H7.05261V13.4289C7.05261 13.8371 7.38373 14.1685 7.79228 14.1685C8.20045 14.1685 8.53195 13.8371 8.53195 13.4289V5.42412H41.3719V28.8956H8.53195V16.8804C8.53195 16.4719 8.20045 16.1407 7.79228 16.1407C7.38373 16.1407 7.05261 16.4719 7.05261 16.8804V28.8956H6.60858C5.6572 28.8956 4.88281 29.6696 4.88281 30.6213V32.5935C4.88281 33.5453 5.6572 34.3197 6.60858 34.3197H17.8944L11.3575 48.959C11.2553 49.1875 11.2759 49.4526 11.4124 49.6628C11.5486 49.873 11.7821 50 12.0327 50H15.9775C16.2693 50 16.5337 49.8283 16.6527 49.5621L22.2397 37.0502V49.2603C22.2397 49.6689 22.5708 50 22.9794 50H26.9241C27.3327 50 27.6638 49.6689 27.6638 49.2603V37.0502L33.2508 49.5621C33.3698 49.8283 33.6342 50 33.926 50H37.8708H37.8727C38.2812 50 38.6124 49.6689 38.6124 49.2603C38.6124 49.1337 38.5807 49.0147 38.5246 48.9105L32.0091 34.3197H37.6122C38.0207 34.3197 38.3518 33.9882 38.3518 33.58C38.3518 33.1715 38.0207 32.8403 37.6122 32.8403H6.60858C6.47278 32.8403 6.36215 32.7297 6.36215 32.5935V30.6213C6.36215 30.4855 6.47278 30.3745 6.60858 30.3745H43.2949C43.4311 30.3745 43.5417 30.4852 43.5417 30.6213V32.5935C43.5417 32.7297 43.4311 32.8403 43.2949 32.8403H41.0885C40.6799 32.8403 40.3488 33.1715 40.3488 33.58C40.3488 33.9882 40.6799 34.3197 41.0885 34.3197H43.2949C44.2467 34.3197 45.0207 33.5453 45.0207 32.5935V30.6213C45.0207 29.6696 44.2467 28.8956 43.2949 28.8956H42.8513V5.42412H43.2949ZM30.3894 34.3193L36.7306 48.5207H34.4059L28.0647 34.3193H30.3894ZM26.1845 34.3193V48.5207H23.719V34.3193H26.1845ZM21.8391 34.3193L15.498 48.5207H13.1729L19.5145 34.3193H21.8391Z" fill="#02B2EE"/>
<path d="M22.8298 10.5016C22.6185 10.3445 22.34 10.3109 22.0978 10.4143L10.7567 15.2467C10.3809 15.407 10.2058 15.8415 10.366 16.2172C10.4858 16.4983 10.7593 16.667 11.047 16.667C11.1435 16.667 11.2419 16.6479 11.3365 16.6074L22.2866 11.9417L26.9752 15.4356C27.1953 15.5992 27.4875 15.6282 27.7355 15.51L36.9716 11.1078L36.4727 12.7542C36.354 13.1448 36.5749 13.558 36.9659 13.6766C37.0376 13.698 37.1097 13.7083 37.1807 13.7083C37.4981 13.7083 37.7914 13.5027 37.8883 13.183L38.8748 9.92868C38.9892 9.55064 38.7863 9.14933 38.414 9.01696L35.3569 7.93245C34.972 7.79588 34.5493 7.99691 34.4124 8.3822C34.2758 8.7671 34.4772 9.18977 34.8621 9.32672L36.243 9.81652L27.5017 13.9829L22.8298 10.5016Z" fill="#02B2EE"/>
</g>
<defs>
<clipPath id="clip0">
<rect width="50" height="50" fill="white"/>
</clipPath>
</defs>
</svg>
