<svg width="26" height="26" viewBox="0 0 26 26" fill="none" xmlns="http://www.w3.org/2000/svg">
<path fill-rule="evenodd" clip-rule="evenodd" d="M24.7399 12.1119H26V18.4738H24.7399V23.5051C24.7399 24.8808 23.6094 26 22.2197 26H2.5202C1.13054 26 0 24.8808 0 23.5051V6.37345C0 4.99773 1.13054 3.87854 2.5202 3.87854H10.0072L16.71 0.188589C16.9343 0.0653735 17.1883 0 17.4444 0C17.9938 0 18.5003 0.294879 18.7665 0.769963L20.513 3.87862H22.2197C23.6094 3.87862 24.7399 4.99781 24.7399 6.37352V12.1119ZM23.7152 6.20729C23.63 5.46031 22.9959 4.87653 22.2197 4.87653H21.0739L21.821 6.20729H23.7152ZM17.2004 1.0608C17.4368 0.929592 17.7549 1.02136 17.8854 1.25444L20.6677 6.20683H7.85196L17.2004 1.0608ZM22.2196 25.0021C23.0533 25.0021 23.7318 24.3304 23.7318 23.5051V18.4744H20.0458C18.3341 18.4744 16.9409 17.0952 16.9409 15.4007V15.1861C16.9409 13.4915 18.334 12.1123 20.0458 12.1123H23.7318V7.20537H22.3815H3.96429H2.83524C2.55651 7.20537 2.33119 6.98184 2.33119 6.70637C2.33119 6.4309 2.55651 6.20737 2.83524 6.20737H5.77731L8.19469 4.87653H2.5202C1.68651 4.87653 1.00803 5.5482 1.00803 6.37352V23.5051C1.00803 24.3304 1.68651 25.0021 2.5202 25.0021H22.2196ZM24.9919 17.4759H24.7399H20.0458C18.8895 17.4759 17.9489 16.5448 17.9489 15.4001V15.1855C17.9489 14.0409 18.8894 13.1097 20.0458 13.1097H24.7399H24.9919V17.4759ZM20.4767 16.4355C21.0916 16.4355 21.5896 15.9426 21.5896 15.3338C21.5896 14.7255 21.0917 14.232 20.4767 14.2321C19.8618 14.2321 19.3638 14.7251 19.3638 15.3338C19.3638 15.9425 19.8618 16.4355 20.4767 16.4355Z" fill="#02B2EE"/>
</svg>
