<svg width="80" height="70" viewBox="0 0 80 70" fill="none" xmlns="http://www.w3.org/2000/svg">
<g id="Group 11">
<path id="Combined Shape" fill-rule="evenodd" clip-rule="evenodd" d="M40.5 70C40.2233 70 39.9471 69.9151 39.7112 69.7453C37.519 68.1678 35.192 66.7046 32.8547 65.2349C22.5282 58.7416 12 52.1215 12 34.9563V9.60995C12 8.89912 12.5407 8.30685 13.2442 8.24757L16.7712 7.95117C24.8584 7.27185 32.8146 4.59409 39.7806 0.207881C40.2206 -0.0692938 40.7794 -0.0692938 41.2194 0.207881C48.1848 4.59409 56.1411 7.27185 64.2283 7.95063L67.7558 8.24757C68.4587 8.30685 69 8.89912 69 9.60995V34.9563C69 51.6793 59.7366 57.6555 48.807 64.7065C46.3562 66.2876 43.8216 67.9227 41.2888 69.7453C41.0529 69.9151 40.7767 70 40.5 70ZM16.997 10.6759L14.7143 10.8677V34.9563C14.7143 50.6027 24.1758 56.5513 34.1837 62.8435C36.292 64.169 38.4245 65.5098 40.4979 66.9596C42.8713 65.2847 45.203 63.7815 47.435 62.3426L47.4351 62.3425C57.9711 55.5501 66.2857 50.1898 66.2857 34.9563V10.8677L64.0024 10.6759C55.7641 9.98379 47.6568 7.32419 40.5 2.97162C33.3427 7.32419 25.2359 9.98379 16.997 10.6759ZM40.4862 39.9219C41.2353 39.9219 41.8434 39.3094 41.8434 38.5547C41.8434 37.8001 41.2353 37.1876 40.4862 37.1876C39.7371 37.1876 39.1291 37.8001 39.1291 38.5547C39.1291 39.3094 39.7371 39.9219 40.4862 39.9219ZM39.709 59.8075C40.2021 60.1467 40.8228 60.1221 41.291 59.7717C42.931 58.6282 44.4819 57.587 45.9381 56.6094L45.9384 56.6092C55.3909 50.2633 60.8571 46.5935 60.8571 34.9579V17.0259C60.8571 16.3492 60.3657 15.774 59.7015 15.6736C53.2062 14.6904 46.9554 12.6541 41.1224 9.62116C40.7025 9.40273 40.2026 9.4305 39.8177 9.6516C34.0011 12.6685 27.7704 14.6947 21.2985 15.6736C20.6343 15.774 20.1429 16.3487 20.1429 17.0259V34.9579C20.1429 46.8009 26.2297 50.836 35.4988 56.9807L35.4992 56.9809C36.8389 57.8691 38.2451 58.8013 39.709 59.8075ZM22.8571 18.1917C28.5015 17.2299 33.9597 15.5001 39.1291 13.0407V33.086C39.1291 33.8412 39.7366 34.4532 40.4862 34.4532C41.2358 34.4532 41.8434 33.8412 41.8434 33.086V13.0279C47.0201 15.4931 52.4884 17.2277 58.1429 18.1917V34.9579C58.1429 45.1109 53.8299 48.0108 44.597 54.2187C43.7233 54.8061 42.8056 55.4231 41.8434 56.0787V44.0235C41.8434 43.2683 41.2358 42.6563 40.4862 42.6563C39.7366 42.6563 39.1291 43.2683 39.1291 44.0235V56.1183C38.3442 55.5919 37.5851 55.0883 36.8524 54.6022C27.8757 48.6468 22.8571 45.3174 22.8571 34.9579V18.1917Z" fill="#02B2EE"/>
</g>
</svg>
