<svg width="21" height="21" viewBox="0 0 21 21" fill="none" xmlns="http://www.w3.org/2000/svg">
<path fill-rule="evenodd" clip-rule="evenodd" d="M16.289 14.9395L20.7263 19.3951C21.1017 19.7721 21.0893 20.3731 20.6992 20.7355C20.5156 20.9062 20.2737 21 20.0187 21C19.7494 21 19.498 20.8967 19.3111 20.7093L14.8401 16.2199C13.5706 17.0812 12.0857 17.535 10.5275 17.535C6.37691 17.535 3 14.2747 3 10.2675C3 6.26026 6.37691 3 10.5275 3C14.6781 3 18.055 6.26026 18.055 10.2675C18.055 11.9826 17.4299 13.6301 16.289 14.9395ZM16.0913 10.2675C16.0913 7.30552 13.5955 4.89587 10.5275 4.89587C7.45956 4.89587 4.9637 7.30552 4.9637 10.2675C4.9637 13.2295 7.45956 15.6391 10.5275 15.6391C13.5955 15.6391 16.0913 13.2295 16.0913 10.2675Z" fill="#02B2EE"/>
<mask id="mask0" mask-type="alpha" maskUnits="userSpaceOnUse" x="3" y="3" width="18" height="18">
<path fill-rule="evenodd" clip-rule="evenodd" d="M16.289 14.9395L20.7263 19.3951C21.1017 19.7721 21.0893 20.3731 20.6992 20.7355C20.5156 20.9062 20.2737 21 20.0187 21C19.7494 21 19.498 20.8967 19.3111 20.7093L14.8401 16.2199C13.5706 17.0812 12.0857 17.535 10.5275 17.535C6.37691 17.535 3 14.2747 3 10.2675C3 6.26026 6.37691 3 10.5275 3C14.6781 3 18.055 6.26026 18.055 10.2675C18.055 11.9826 17.4299 13.6301 16.289 14.9395ZM16.0913 10.2675C16.0913 7.30552 13.5955 4.89587 10.5275 4.89587C7.45956 4.89587 4.9637 7.30552 4.9637 10.2675C4.9637 13.2295 7.45956 15.6391 10.5275 15.6391C13.5955 15.6391 16.0913 13.2295 16.0913 10.2675Z" fill="white"/>
</mask>
<g mask="url(#mask0)">
</g>
</svg>
