<svg width="50" height="50" viewBox="0 0 50 50" fill="none" xmlns="http://www.w3.org/2000/svg">
<path d="M40.4171 8.33325C39.7266 8.33325 39.167 8.89287 39.167 9.58333C39.167 10.2738 39.7266 10.8334 40.4171 10.8334C41.1075 10.8334 41.6671 10.2738 41.6671 9.58333C41.6671 8.89287 41.1075 8.33325 40.4171 8.33325Z" fill="#02B2EE"/>
<path d="M43.9225 0.244167C43.5971 -0.0812263 43.0695 -0.0812263 42.7441 0.244167L36.0771 6.91073C35.9211 7.06713 35.833 7.27885 35.833 7.5001V13.3332C35.833 13.7936 36.2061 14.1667 36.6665 14.1667H42.5C42.7208 14.1667 42.9325 14.0789 43.0889 13.9225L49.7555 7.25558C50.0809 6.93019 50.0809 6.403 49.7555 6.07722L43.9225 0.244167ZM42.1547 12.5H37.4996V7.84495L43.3331 2.01152L47.9882 6.66659L42.1547 12.5Z" fill="#02B2EE"/>
<path d="M0.833511 28.3333H3.33328V28.4401C3.33672 29.9393 4.37241 31.2389 5.83344 31.5765V39.1666C5.83344 39.6271 6.20651 40.0001 6.66656 40.0001H11.6665C12.1269 40.0001 12.5 39.6271 12.5 39.1666V35.8333H13.34C14.7156 35.8295 15.8298 34.7156 15.8333 33.3401V31.5765C16.8976 31.327 17.7631 30.5549 18.1316 29.5257L32.1617 35.7616C32.5825 35.9485 33.075 35.759 33.2615 35.3382C33.3088 35.2318 33.3336 35.1166 33.3332 34.9998V14.9998C33.3336 14.5397 32.9605 14.1666 32.5001 14.1666C32.3837 14.1666 32.2681 14.191 32.1617 14.2383L18.1316 20.4742C17.6762 19.1936 16.4658 18.3372 15.1066 18.3334H6.56013C4.77867 18.3349 3.33519 19.7788 3.33328 21.5599V21.6667H0.833511C0.373077 21.6667 0 22.0398 0 22.4998V27.4998C0 27.9602 0.373077 28.3333 0.833511 28.3333ZM28.3333 17.7631L31.6666 16.2826V33.7173L28.3333 32.2368V17.7631ZM18.3334 22.2084L26.6666 18.5039V31.4998L18.3334 27.7916V22.2084ZM10.8334 34.9998V38.3335H7.50008V31.6665H10.8334V34.9998ZM14.1666 33.3401C14.1663 33.7963 13.7966 34.1663 13.34 34.1667H12.5V31.6665H14.1666V33.3401ZM4.99992 27.4998V21.5599C5.00107 20.6989 5.69878 20.0008 6.56013 20.0001H15.1066C15.9679 20.0008 16.6656 20.6989 16.6668 21.5599V28.4401C16.6656 29.3011 15.9679 29.9991 15.1066 29.9999H6.56013C5.69878 29.9991 5.00107 29.3011 4.99992 28.4401V27.4998ZM1.66664 23.3333H3.33328V26.6666H1.66664V23.3333Z" fill="#02B2EE"/>
<path d="M41.5071 32.7683C41.1817 32.4429 40.6542 32.4429 40.3288 32.7683L34.4355 38.6616C34.1101 38.987 34.1101 39.5146 34.4355 39.84L42.6855 48.09C43.0109 48.4154 43.5381 48.4154 43.8639 48.09L49.756 42.1974C50.0814 41.8721 50.0814 41.3445 49.756 41.0191L41.5071 32.7683ZM46.9854 40.6018L42.2827 40.2409L41.921 35.5381L46.9854 40.6018ZM43.2745 46.32L36.2028 39.2498L40.2254 35.2276L40.6763 41.0809C40.7076 41.4906 41.033 41.8167 41.4427 41.8484L47.2971 42.2982L43.2745 46.32Z" fill="#02B2EE"/>
<path d="M22.5006 15.8333C25.7156 15.8405 28.3279 13.2401 28.3355 10.025C28.3382 8.75854 27.9281 7.52563 27.1671 6.51321L32.2578 1.4225L31.0779 0.244141L25.9872 5.33333C23.4096 3.40042 19.7532 3.92265 17.8203 6.49986C15.8874 9.07707 16.4096 12.7335 18.9868 14.6667C20.0004 15.4266 21.2337 15.836 22.5006 15.8333ZM22.5006 5.83305C24.8016 5.83305 26.667 7.69882 26.667 9.99985C26.667 12.3013 24.8016 14.1666 22.5006 14.1666C20.1992 14.1666 18.3338 12.3013 18.3338 9.99985C18.3364 7.69997 20.2003 5.83611 22.5006 5.83305Z" fill="#02B2EE"/>
<path d="M35.8331 29.1668H39.9999V30C39.9999 30.4604 40.373 30.8335 40.8334 30.8335H47.5C47.9601 30.8335 48.3331 30.4604 48.3331 30V25.8492C48.3289 24.434 47.434 23.1747 46.0992 22.7051C47.5992 21.6378 47.9498 19.5565 46.8824 18.0565C45.8154 16.5566 43.7341 16.2057 42.2342 17.273C40.7343 18.3404 40.3833 20.4217 41.4507 21.9216C41.6662 22.2245 41.9309 22.4896 42.2342 22.7051C41.6948 22.8974 41.2138 23.2251 40.8372 23.6565C40.547 23.322 40.1926 23.0485 39.7951 22.8524C40.9151 22.0452 41.1687 20.4827 40.3616 19.3627C39.5544 18.2427 37.9919 17.989 36.8715 18.7962C35.7515 19.6034 35.4978 21.1659 36.305 22.2859C36.4622 22.5041 36.6537 22.6952 36.8715 22.8524C35.7301 23.4074 35.0038 24.564 35 25.8332V28.3333C35 28.7934 35.3731 29.1668 35.8331 29.1668ZM44.1667 18.3335C45.0872 18.3335 45.8334 19.0796 45.8334 20.0001C45.8334 20.9206 45.0872 21.6668 44.1667 21.6668C43.2462 21.6668 42.5001 20.9202 42.5001 20.0001C42.5001 19.0796 43.2462 18.3335 44.1667 18.3335ZM41.6666 28.3333V25.8492C41.6681 24.9203 42.4203 24.1681 43.3492 24.1665H44.9842C45.9127 24.1681 46.6653 24.9203 46.6665 25.8492V29.1665H41.6666V28.3333ZM38.3333 20.0001C38.7933 20.0001 39.1664 20.3732 39.1664 20.8333C39.1664 21.2937 38.7933 21.6668 38.3333 21.6668C37.8728 21.6668 37.4998 21.2937 37.4998 20.8333C37.4998 20.3732 37.8728 20.0001 38.3333 20.0001ZM36.6666 25.8332C36.6666 24.9127 37.4128 24.1665 38.3333 24.1665C39.2538 24.1665 39.9999 24.9131 39.9999 25.8332V27.5002H36.6666V25.8332Z" fill="#02B2EE"/>
<path d="M23.3336 34.1667H20.0003C19.7795 34.1667 19.5674 34.2545 19.411 34.4109L14.411 39.4108C14.0856 39.7362 14.0856 40.2638 14.411 40.5892L23.5778 49.7559C23.9031 50.0813 24.4307 50.0813 24.7561 49.7559L31.4231 43.0893C31.7481 42.7639 31.7481 42.2364 31.4231 41.911L23.923 34.4109C23.7666 34.2545 23.5545 34.1667 23.3336 34.1667ZM24.1671 47.9885L16.1788 40.0002L20.3452 35.8334H22.9888L29.6553 42.5L24.1671 47.9885Z" fill="#02B2EE"/>
<path d="M19.4111 41.0774L22.7444 37.7441L23.9228 38.9225L20.5895 42.2558L19.4111 41.0774Z" fill="#02B2EE"/>
<path d="M21.9102 43.5772L25.2438 40.2439L26.4222 41.4223L23.0889 44.7559L21.9102 43.5772Z" fill="#02B2EE"/>
</svg>
