<svg width="50" height="50" viewBox="0 0 50 50" fill="none" xmlns="http://www.w3.org/2000/svg">
<path d="M16.667 31.6667C16.667 31.2065 16.2939 30.8333 15.8337 30.8333C15.3735 30.8333 15.0003 31.2065 15.0003 31.6667V32.5H12.5003C12.0401 32.5 11.667 32.8731 11.667 33.3333C11.667 33.7935 12.0401 34.1667 12.5003 34.1667H15.0003V35C15.0003 35.4602 15.3735 35.8333 15.8337 35.8333C16.2939 35.8333 16.667 35.4602 16.667 35V34.1667H36.667C37.1272 34.1667 37.5003 33.7935 37.5003 33.3333C37.5003 32.8731 37.1272 32.5 36.667 32.5H16.667V31.6667Z" fill="#02B2EE"/>
<path d="M22.0621 20.9575C21.8163 21.1097 21.667 21.3778 21.667 21.6667V28.3334C21.6654 28.6231 21.8143 28.8925 22.0601 29.0455C22.3062 29.1985 22.6139 29.2127 22.8727 29.0833L29.5393 25.75C29.8225 25.6092 30.0012 25.3203 30.0012 25.0041C30.0012 24.6884 29.8225 24.3995 29.5393 24.2583L22.8727 20.9249C22.6151 20.7947 22.3083 20.8069 22.0621 20.9575ZM23.3337 23.0152L27.3038 25.0001L23.3337 26.9849V23.0152Z" fill="#02B2EE"/>
<path d="M15.8337 22.5C16.2939 22.5 16.667 22.1269 16.667 21.6667C16.667 21.2065 16.2939 20.8333 15.8337 20.8333C14.453 20.8333 13.3337 21.9527 13.3337 23.3333V24.1667H12.5003C12.0401 24.1667 11.667 24.5398 11.667 25C11.667 25.4602 12.0401 25.8333 12.5003 25.8333H13.3337V28.3333C13.3337 28.7935 13.7068 29.1667 14.167 29.1667C14.6272 29.1667 15.0003 28.7935 15.0003 28.3333V25.8333H15.8337C16.2939 25.8333 16.667 25.4602 16.667 25C16.667 24.5398 16.2939 24.1667 15.8337 24.1667H15.0003V23.3333C15.0003 22.8731 15.3735 22.5 15.8337 22.5Z" fill="#02B2EE"/>
<path d="M34.167 28.3333C34.167 28.7935 34.5401 29.1666 35.0003 29.1666C35.4605 29.1666 35.8337 28.7935 35.8337 28.3333V24.1666C35.8337 23.7064 35.4605 23.3333 35.0003 23.3333C34.5401 23.3333 34.167 23.7064 34.167 24.1666V28.3333Z" fill="#02B2EE"/>
<path d="M35.8337 21.6667C35.8337 22.1269 35.4605 22.5 35.0003 22.5C34.5401 22.5 34.167 22.1269 34.167 21.6667C34.167 21.2065 34.5401 20.8333 35.0003 20.8333C35.4605 20.8333 35.8337 21.2065 35.8337 21.6667Z" fill="#02B2EE"/>
<path d="M10.8333 16.6667H8.33333C7.87313 16.6667 7.5 17.0398 7.5 17.5V37.5C7.5 37.9602 7.87313 38.3333 8.33333 38.3333H41.6667C42.1269 38.3333 42.5 37.9602 42.5 37.5V20.8333C42.5 20.3731 42.1269 20 41.6667 20C41.2065 20 40.8333 20.3731 40.8333 20.8333V36.6667H9.16667V18.3333H10.8333C11.2935 18.3333 11.6667 17.9602 11.6667 17.5C11.6667 17.0398 11.2935 16.6667 10.8333 16.6667Z" fill="#02B2EE"/>
<path d="M29.1667 18.3333C29.6269 18.3333 30 17.9602 30 17.5C30 17.0398 29.6269 16.6667 29.1667 16.6667H23.3333C22.8731 16.6667 22.5 17.0398 22.5 17.5C22.5 17.9602 22.8731 18.3333 23.3333 18.3333H29.1667Z" fill="#02B2EE"/>
<path d="M45.0003 20C44.5401 20 44.167 20.3731 44.167 20.8333V39.1667C44.167 39.6269 43.7939 40 43.3337 40H6.66699C6.20679 40 5.83366 39.6269 5.83366 39.1667V17.5C5.83366 17.0398 5.46053 16.6667 5.00033 16.6667C4.54012 16.6667 4.16699 17.0398 4.16699 17.5V39.1667C4.16699 40.5473 5.28638 41.6667 6.66699 41.6667H18.3337V45H13.3337C11.953 45 10.8337 46.1194 10.8337 47.5C10.8337 48.8806 11.953 50 13.3337 50H36.667C37.1272 50 37.5003 49.6269 37.5003 49.1667C37.5003 48.7065 37.1272 48.3333 36.667 48.3333H13.3337C12.8735 48.3333 12.5003 47.9602 12.5003 47.5C12.5003 47.0398 12.8735 46.6667 13.3337 46.6667H36.667C37.1272 46.6667 37.5003 46.2935 37.5003 45.8333C37.5003 45.3731 37.1272 45 36.667 45H31.667V41.6667H43.3337C44.7143 41.6667 45.8337 40.5473 45.8337 39.1667V20.8333C45.8337 20.3731 45.4605 20 45.0003 20ZM30.0003 45H20.0003V41.6667H30.0003V45Z" fill="#02B2EE"/>
<path d="M45.8333 0H35.8333C33.5331 0.00284831 31.6695 1.86646 31.6667 4.16667V13.3333H23.1799C23.2788 13.0664 23.3305 12.7844 23.3333 12.5V2.5C23.3333 1.11938 22.2139 0 20.8333 0H2.5C1.11938 0 0 1.11938 0 2.5V12.5C0 13.8806 1.11938 15 2.5 15H12.1549L18.5775 21.4225C18.8159 21.6606 19.1744 21.7322 19.4857 21.6032C19.797 21.4742 20 21.1702 20 20.8333V15H31.7501C32.1488 16.9389 33.8542 18.3309 35.8333 18.3333H45.8333C48.1335 18.3305 49.9972 16.4669 50 14.1667V4.16667C49.9972 1.86646 48.1335 0.00284831 45.8333 0ZM20 13.3333H19.1667C18.7065 13.3333 18.3333 13.7065 18.3333 14.1667V18.8216L13.0892 13.5775C12.9329 13.4212 12.7209 13.3333 12.5 13.3333H2.5C2.03979 13.3333 1.66667 12.9602 1.66667 12.5V2.5C1.66667 2.03979 2.03979 1.66667 2.5 1.66667H20.8333C21.2935 1.66667 21.6667 2.03979 21.6667 2.5V12.5C21.6667 12.9602 21.2935 13.3333 20.8333 13.3333H20ZM48.3333 14.1667C48.3333 15.5473 47.2139 16.6667 45.8333 16.6667H35.8333C34.4527 16.6667 33.3333 15.5473 33.3333 14.1667V4.16667C33.3333 2.78605 34.4527 1.66667 35.8333 1.66667H45.8333C47.2139 1.66667 48.3333 2.78605 48.3333 4.16667V14.1667Z" fill="#02B2EE"/>
<path d="M44.167 8.33333C43.7068 8.33333 43.3337 8.70646 43.3337 9.16667C43.3337 10.5473 42.2143 11.6667 40.8337 11.6667C39.453 11.6667 38.3337 10.5473 38.3337 9.16667C38.3337 7.78605 39.453 6.66667 40.8337 6.66667C41.2939 6.66667 41.667 6.29354 41.667 5.83333C41.667 5.37313 41.2939 5 40.8337 5C38.5326 5 36.667 6.86564 36.667 9.16667C36.667 11.4677 38.5326 13.3333 40.8337 13.3333C43.1347 13.3333 45.0003 11.4677 45.0003 9.16667C45.0003 8.70646 44.6272 8.33333 44.167 8.33333Z" fill="#02B2EE"/>
<path d="M16.6667 3.33334H8.33333C7.87313 3.33334 7.5 3.70647 7.5 4.16668C7.5 4.62688 7.87313 5.00001 8.33333 5.00001H16.6667C17.1269 5.00001 17.5 4.62688 17.5 4.16668C17.5 3.70647 17.1269 3.33334 16.6667 3.33334Z" fill="#02B2EE"/>
<path d="M5.00033 8.33332H11.667C12.1272 8.33332 12.5003 7.96019 12.5003 7.49999C12.5003 7.03978 12.1272 6.66666 11.667 6.66666H5.00033C4.54012 6.66666 4.16699 7.03978 4.16699 7.49999C4.16699 7.96019 4.54012 8.33332 5.00033 8.33332Z" fill="#02B2EE"/>
<path d="M16.6663 10H9.16634C8.70614 10 8.33301 10.3731 8.33301 10.8333C8.33301 11.2935 8.70614 11.6667 9.16634 11.6667H16.6663C17.1265 11.6667 17.4997 11.2935 17.4997 10.8333C17.4997 10.3731 17.1265 10 16.6663 10Z" fill="#02B2EE"/>
<path d="M5.83366 10H5.00033C4.54012 10 4.16699 10.3731 4.16699 10.8333C4.16699 11.2935 4.54012 11.6667 5.00033 11.6667H5.83366C6.29386 11.6667 6.66699 11.2935 6.66699 10.8333C6.66699 10.3731 6.29386 10 5.83366 10Z" fill="#02B2EE"/>
<path d="M16.667 6.66666H15.0003C14.5401 6.66666 14.167 7.03978 14.167 7.49999C14.167 7.96019 14.5401 8.33332 15.0003 8.33332H16.667C17.1272 8.33332 17.5003 7.96019 17.5003 7.49999C17.5003 7.03978 17.1272 6.66666 16.667 6.66666Z" fill="#02B2EE"/>
</svg>
