<svg width="50" height="50" viewBox="0 0 50 50" fill="none" xmlns="http://www.w3.org/2000/svg">
<g clip-path="url(#clip0)">
<path d="M10.7256 48.4577L9.25537 46.3868C8.94326 45.947 8.3336 45.8436 7.89376 46.1558C7.45401 46.468 7.3505 47.0775 7.6628 47.5174L9.13301 49.5884C9.32344 49.8567 9.62441 49.9997 9.93017 49.9997C10.1257 49.9997 10.323 49.9411 10.4946 49.8194C10.9344 49.5071 11.0379 48.8976 10.7256 48.4577Z" fill="#02B2EE"/>
<path d="M21.9926 48.8225L20.3926 41.1968C19.6146 37.4886 17.4544 34.2821 14.3103 32.168L10.8942 29.8709C9.52437 28.95 7.68317 29.1481 6.53826 30.3156V18.5484C6.53826 17.0039 5.48523 15.6916 3.97743 15.3569C3.00428 15.1407 2.00058 15.3749 1.22314 15.9986C0.445799 16.6223 0 17.5517 0 18.5484V33.6901C0 35.6738 0.607029 37.5774 1.75536 39.1951L3.49686 41.6483C3.68729 41.9166 3.98827 42.0596 4.29403 42.0596C4.48953 42.0596 4.68689 42.0011 4.85848 41.8793C5.29822 41.5671 5.40174 40.9575 5.08943 40.5177L3.34794 38.0644C2.43544 36.779 1.95312 35.2664 1.95312 33.6901V18.5484C1.95312 18.1472 2.13261 17.7731 2.4455 17.522C2.75829 17.2709 3.16229 17.1766 3.55428 17.2637C4.16121 17.3983 4.58514 17.9266 4.58514 18.5484V30.5616C4.58514 32.2622 5.20994 33.8824 6.34499 35.143C6.39363 35.2013 6.44363 35.259 6.49646 35.3149C7.14499 36.0022 7.90749 36.8119 8.62565 37.5752L9.63102 38.6452C9.63424 38.6486 9.63775 38.6516 9.64107 38.6549C10.5011 39.5696 11.1354 40.2451 11.1487 40.2592C11.5177 40.6522 12.1359 40.6718 12.529 40.3025C12.9222 39.9333 12.9416 39.3153 12.5723 38.9222C12.5545 38.9032 11.4114 37.6859 10.1059 36.2983L7.86677 33.9152C7.8611 33.9092 7.85593 33.9028 7.85026 33.8968C7.32526 33.2689 7.33181 32.3584 7.8821 31.7371C8.36891 31.1877 9.19547 31.0822 9.80455 31.4917L13.2205 33.7888C15.94 35.6174 17.8082 38.3906 18.4811 41.5978L20.0812 49.2237C20.1777 49.6839 20.5837 49.9999 21.0359 49.9999C21.1024 49.9999 21.1698 49.993 21.2374 49.9789C21.7652 49.8681 22.1033 49.3503 21.9926 48.8225Z" fill="#02B2EE"/>
<path d="M7.23485 43.5406L7.2286 43.5318C6.91512 43.0927 6.30536 42.9908 5.8664 43.304C5.42744 43.6173 5.32548 44.2272 5.63867 44.6661L5.64492 44.6749C5.83554 44.942 6.13583 45.0844 6.44071 45.0844C6.637 45.0844 6.83514 45.0254 7.00712 44.9026C7.44598 44.5894 7.54803 43.9795 7.23485 43.5406Z" fill="#02B2EE"/>
<path d="M48.7768 15.999C47.9994 15.3752 46.9952 15.1414 46.0226 15.3573C44.5148 15.6918 43.4617 17.0042 43.4617 18.5488V30.3159C42.3168 29.1484 40.4754 28.9504 39.1057 29.8713L35.6896 32.1682C32.5454 34.2823 30.3854 37.4888 29.6073 41.197L28.0073 48.8229C27.8966 49.3507 28.2347 49.8684 28.7625 49.9791C28.8301 49.9933 28.8977 50.0001 28.964 50.0001C29.4163 50.0001 29.8222 49.6841 29.9188 49.2239L31.5187 41.598C32.1917 38.3909 34.0598 35.6176 36.7794 33.789L40.1955 31.4921C40.8044 31.0825 41.6309 31.188 42.1179 31.7374C42.6675 32.3579 42.6749 33.2669 42.1518 33.8948C42.1456 33.9016 42.1396 33.9087 42.1334 33.9155C42.1334 33.9155 37.4454 38.9037 37.4277 38.9224C37.0585 39.3156 37.0779 39.9336 37.471 40.3028C37.8641 40.672 38.4821 40.6526 38.8513 40.2594C38.8646 40.2454 42.855 36.0025 43.5036 35.3153C43.5564 35.2594 43.6064 35.2016 43.655 35.1433C44.79 33.8828 45.4149 32.2626 45.4149 30.562V18.5487C45.4149 17.9269 45.8388 17.3986 46.4458 17.2639C46.8377 17.177 47.2416 17.2712 47.5546 17.5222C47.8675 17.7733 48.047 18.1474 48.047 18.5487V33.6904C48.047 35.2668 47.5647 36.7794 46.6522 38.0648L39.2742 48.458C38.962 48.8978 39.0654 49.5075 39.5051 49.8197C39.6768 49.9414 39.8741 50 40.0696 50C40.3753 50 40.6763 49.8569 40.8668 49.5887L48.2448 39.1955C49.3931 37.5778 50.0001 35.6742 50.0001 33.6905V18.5487C49.9998 17.552 49.5541 16.6227 48.7768 15.999Z" fill="#02B2EE"/>
<path d="M37.3688 18.7167L35.6314 18.3017V17.9902C36.7606 17.1991 37.5011 15.8893 37.5011 14.409V12.1503C37.5011 9.74028 35.5404 7.77965 33.1304 7.77965C32.0488 7.77965 31.0586 8.17535 30.2946 8.82847C29.4441 6.74547 27.3974 5.27341 25.0122 5.27341C22.6242 5.27341 20.5753 6.74928 19.7267 8.83628C18.9616 8.17847 17.9677 7.77945 16.8818 7.77945C14.4718 7.77945 12.5111 9.74009 12.5111 12.1501V12.3002V14.4088C12.5111 15.8891 13.2515 17.1989 14.3807 17.99V18.3015L12.6433 18.7165C10.5689 19.2121 9.12012 21.0478 9.12012 23.1806V25.0044C9.12012 25.5437 9.55742 25.9809 10.0967 25.9809H14.5842C14.5772 26.0994 14.5724 26.2184 14.5724 26.3385V29.85C14.5724 30.3893 15.0097 30.8265 15.549 30.8265H21.4191C21.9584 30.8265 22.3957 30.3893 22.3957 29.85C22.3957 29.3106 21.9584 28.8734 21.4191 28.8734H20.4101V26.8554C20.4101 26.316 19.9728 25.8788 19.4336 25.8788C18.8943 25.8788 18.457 26.316 18.457 26.8554V28.8736H16.5257V26.3387C16.5257 24.4552 17.8049 22.8332 19.6364 22.3943L22.3163 21.7522L24.1097 25.8324C24.2656 26.187 24.6163 26.416 25.0036 26.416H25.0037C25.391 26.416 25.7417 26.1871 25.8976 25.8325L27.6892 21.7583L30.3606 22.3965C32.1938 22.8345 33.4741 24.4566 33.4741 26.3415V28.8736H31.5428V26.8554C31.5428 26.316 31.1055 25.8788 30.5662 25.8788C30.027 25.8788 29.5897 26.316 29.5897 26.8554V28.8736H28.4829C27.9437 28.8736 27.5064 29.3108 27.5064 29.8502C27.5064 30.3895 27.9437 30.8267 28.4829 30.8267H34.4508C34.99 30.8267 35.4273 30.3895 35.4273 29.8502V26.3415C35.4273 26.2205 35.4225 26.1006 35.4154 25.9811H39.9156C40.4549 25.9811 40.8922 25.5439 40.8922 25.0046V23.1808C40.8922 21.048 39.4433 19.2122 37.3688 18.7167ZM33.1304 9.73257C34.4099 9.73257 35.4603 10.7317 35.5427 11.9907H34.185C33.0436 11.9907 31.9203 11.7159 30.9107 11.1926C31.282 10.3344 32.1373 9.73257 33.1304 9.73257ZM30.7128 14.2662C30.714 14.2187 30.7164 14.1713 30.7164 14.1235V13.2537C31.8122 13.7073 32.9906 13.9438 34.185 13.9438H35.5479V14.4089C35.5479 15.7419 34.4635 16.8265 33.1304 16.8265C31.7973 16.8265 30.7128 15.7419 30.7128 14.4088V14.2662ZM21.2613 10.9775C21.2613 8.90923 22.9439 7.22652 25.0122 7.22652C26.8778 7.22652 28.4294 8.59546 28.7159 10.3814L27.0719 9.41548C26.6607 9.17388 26.1351 9.2646 25.8287 9.63032C25.0253 10.5891 23.8471 11.139 22.5961 11.139H21.2613V10.9775ZM16.8819 9.73257C17.875 9.73257 18.7301 10.3345 19.1016 11.1925C18.0919 11.7158 16.9687 11.9906 15.8273 11.9906H14.4696C14.552 10.7317 15.6025 9.73257 16.8819 9.73257ZM14.4643 13.9437H15.8273C17.0229 13.9437 18.2026 13.7067 19.2995 13.2522V14.4087C19.2995 15.7417 18.215 16.8263 16.8819 16.8263C15.5488 16.8263 14.4643 15.7419 14.4643 14.4088V13.9437ZM19.1813 20.4949C17.26 20.9553 15.7501 22.2948 15.0314 24.0279H11.0732V23.1807C11.0732 21.9555 11.9055 20.9009 13.0972 20.6162L15.5843 20.0221C16.0238 19.9171 16.334 19.5242 16.334 19.0723V18.744C16.5136 18.7665 16.6963 18.7795 16.8819 18.7795C17.0662 18.7795 17.2475 18.7667 17.4258 18.7444V19.0231C17.4252 19.0376 17.4249 19.0522 17.4248 19.0667C17.4246 19.3871 17.5821 19.701 17.8714 19.8881C17.9803 19.9587 18.0981 20.0046 18.2183 20.0275L19.6751 20.3766L19.1813 20.4949ZM21.9053 18.9789C21.6544 18.8683 21.3929 18.7798 21.1234 18.7153L19.3789 18.2972V17.9929C19.6937 17.7729 19.9784 17.5128 20.2253 17.2196C20.6614 17.8915 21.2344 18.466 21.9053 18.9036V18.9789ZM26.1467 20.4138L25.0039 23.0129L23.8585 20.4071V19.7103C24.2313 19.7871 24.6171 19.8276 25.0122 19.8276C25.4006 19.8276 25.7799 19.7883 26.1467 19.714V20.4138ZM25.0122 17.8744C22.9439 17.8745 21.2613 16.1918 21.2613 14.1235V13.092H22.5961C24.1448 13.092 25.6172 12.5162 26.7457 11.489L28.7596 12.6722V14.2663C28.6842 16.2686 27.0327 17.8744 25.0122 17.8744ZM28.0998 18.982V18.9159C28.7762 18.4786 29.3543 17.9027 29.7939 17.2279C30.0391 17.5177 30.3213 17.7749 30.6331 17.9929V18.2972L28.8885 18.7153C28.6166 18.7805 28.3529 18.87 28.0998 18.982ZM38.939 24.0279H34.9673C34.248 22.2948 32.7369 20.9561 30.8145 20.4968L30.3241 20.3797L31.7887 20.0287C31.9106 20.0061 32.0303 19.9596 32.1407 19.8881C32.4295 19.7013 32.5865 19.3874 32.5865 19.067C32.5865 19.0594 32.5864 19.0517 32.5862 19.0441V18.7444C32.7647 18.7667 32.9459 18.7795 33.1302 18.7795C33.3158 18.7795 33.4984 18.7665 33.6781 18.744V19.0723C33.6781 19.5242 33.9883 19.9171 34.4278 20.0221L36.9149 20.6162C38.1066 20.901 38.939 21.9555 38.939 23.1807V24.0279Z" fill="#02B2EE"/>
<path d="M25.6903 29.1591C25.5078 28.9775 25.2568 28.874 25 28.874C24.7421 28.874 24.4912 28.9775 24.3096 29.1591C24.127 29.3418 24.0234 29.5927 24.0234 29.8506C24.0234 30.1074 24.127 30.3584 24.3096 30.541C24.4912 30.7226 24.7422 30.8271 25 30.8271C25.2568 30.8271 25.5078 30.7226 25.6903 30.541C25.872 30.3584 25.9766 30.1074 25.9766 29.8506C25.9766 29.5927 25.8721 29.3418 25.6903 29.1591Z" fill="#02B2EE"/>
<path d="M24.999 0C24.4598 0 24.0225 0.437205 24.0225 0.976559V2.43778C24.0225 2.97714 24.4598 3.41434 24.999 3.41434C25.5383 3.41434 25.9756 2.97714 25.9756 2.43778V0.976559C25.9756 0.437205 25.5384 0 24.999 0Z" fill="#02B2EE"/>
<path d="M21.4021 3.18541L20.3777 2.16197C19.9962 1.78073 19.3779 1.78102 18.9966 2.16256C18.6154 2.5441 18.6158 3.16246 18.9973 3.54361L20.0218 4.56704C20.2125 4.75757 20.4623 4.85279 20.712 4.85279C20.9621 4.85279 21.2121 4.75728 21.4028 4.56646C21.7838 4.18492 21.7836 3.56656 21.4021 3.18541Z" fill="#02B2EE"/>
<path d="M30.9782 2.18689C30.5966 1.80574 29.9782 1.80593 29.5971 2.18757L28.5806 3.20505C28.1994 3.58659 28.1997 4.20495 28.5813 4.5861C28.772 4.77663 29.0217 4.87184 29.2715 4.87184C29.5216 4.87184 29.7717 4.77633 29.9623 4.58542L30.9788 3.56794C31.36 3.1864 31.3597 2.56804 30.9782 2.18689Z" fill="#02B2EE"/>
</g>
<defs>
<clipPath id="clip0">
<rect width="50" height="50" fill="white"/>
</clipPath>
</defs>
</svg>
