<svg width="50" height="50" viewBox="0 0 50 50" fill="none" xmlns="http://www.w3.org/2000/svg">
<g clip-path="url(#clip0)">
<path d="M21.2084 5.42809C21.2084 5.97004 20.7691 6.40944 20.227 6.40944C19.6851 6.40944 19.2457 5.97014 19.2457 5.42809C19.2457 4.88604 19.685 4.44674 20.227 4.44674C20.7691 4.44674 21.2084 4.88604 21.2084 5.42809ZM49.999 17.5535C49.998 20.4845 49.2226 23.5073 47.6921 26.5398C46.2456 29.4034 44.1683 32.2005 41.5157 34.8541C39.7558 36.6141 37.7038 37.9824 35.4165 38.9209C34.3177 39.3712 33.1682 39.7189 32.0002 39.9513C30.8438 40.1828 29.6582 40.3049 28.4783 40.3137C26.2095 40.3431 23.9835 39.965 21.8612 39.1925C19.6503 38.3876 17.147 38.974 15.6325 40.6514C15.6324 40.6514 15.6323 40.6515 15.6323 40.6516L7.9331 49.2819C7.54137 49.721 6.97939 49.9823 6.39125 49.9991C6.37113 49.9997 6.35101 50 6.33099 50C5.76384 50 5.213 49.7726 4.81111 49.3708L0.628164 45.188C0.212106 44.7718 -0.0168235 44.1959 -0.000122603 43.6078C0.016676 43.0197 0.278128 42.4577 0.717138 42.066L9.34809 34.3662C11.0252 32.8514 11.6113 30.3486 10.8066 28.1379C10.0341 26.0157 9.65564 23.8164 9.68533 21.5481C9.6952 20.3321 9.81728 19.1484 10.0487 17.993C10.2822 16.8259 10.6288 15.6774 11.0801 14.5786C12.0177 12.2932 13.386 10.2423 15.145 8.48328C15.4848 8.1434 15.8277 7.81232 16.1645 7.49881C16.3462 7.32985 16.5825 7.23706 16.8297 7.23706C17.1002 7.23706 17.3609 7.35036 17.5446 7.54764C17.7223 7.73907 17.8152 7.98714 17.8064 8.24791C17.7976 8.50868 17.6872 8.74991 17.4958 8.92766C17.1706 9.23141 16.8444 9.54589 16.5269 9.86428C13.4093 12.9818 11.6729 17.1287 11.6387 21.5413V21.5588C11.6416 21.8186 11.7432 22.0618 11.9249 22.2444L27.7546 38.0742C27.9392 38.2588 28.1863 38.3603 28.4499 38.3603H28.4577C32.8693 38.3262 37.0162 36.5897 40.1348 33.4721C42.6409 30.966 44.5971 28.3378 45.9479 25.6598C47.3396 22.9017 48.0458 20.1739 48.0458 17.5535C48.038 13.5805 46.4216 9.94828 43.2416 6.75752C40.0498 3.57751 36.4176 1.96114 32.4456 1.95332H32.4446C29.8457 1.95332 27.1433 2.64675 24.4096 4.01506C24.2729 4.08342 24.1264 4.11858 23.974 4.11858C23.6009 4.11858 23.2659 3.91153 23.0999 3.57849C22.9827 3.34507 22.964 3.08039 23.0462 2.8333C23.1292 2.58522 23.303 2.38501 23.5355 2.26781C26.5415 0.762773 29.5399 0 32.4455 0H32.4728C34.6429 0 36.7603 0.439498 38.7664 1.3058C40.8603 2.21019 42.8302 3.57946 44.6225 5.37652C46.4233 7.1726 47.7946 9.14644 48.699 11.2463C49.5654 13.2572 50.0029 15.3785 49.999 17.5535ZM13.0635 31.0517L15.6566 28.7383L11.9617 25.0433C12.1262 25.8657 12.3532 26.6759 12.6422 27.4697C13.0666 28.6359 13.1986 29.8653 13.0635 31.0517ZM19.8774 32.9588L17.0402 30.1216L2.01756 43.5236C1.9658 43.5698 1.95359 43.6252 1.95252 43.6635C1.95135 43.7018 1.96043 43.7578 2.00946 43.8068L6.1923 47.9895C6.24143 48.0387 6.29651 48.0476 6.33558 48.0465C6.37396 48.0454 6.42924 48.0332 6.47553 47.9814L19.8774 32.9588ZM22.5294 37.3569C23.323 37.6458 24.1333 37.8729 24.9557 38.0374L21.2608 34.3424L18.9474 36.9356C20.1338 36.8001 21.363 36.9324 22.5294 37.3569ZM31.7515 30.5665C28.4668 30.5665 25.7945 27.8941 25.7945 24.6093C25.7945 21.3245 28.4668 18.6522 31.7515 18.6522C35.0363 18.6522 37.7087 21.3245 37.7087 24.6093C37.7087 27.8941 35.0363 30.5665 31.7515 30.5665ZM31.7515 28.6132C33.9592 28.6132 35.7554 26.8171 35.7554 24.6093C35.7554 22.4016 33.9592 20.6055 31.7515 20.6055C29.5439 20.6055 27.7478 22.4016 27.7478 24.6093C27.7478 26.8171 29.5439 28.6132 31.7515 28.6132Z" fill="#02B2EE"/>
</g>
<defs>
<clipPath id="clip0">
<rect width="50" height="50" fill="white"/>
</clipPath>
</defs>
</svg>
