<svg width="50" height="50" viewBox="0 0 50 50" fill="none" xmlns="http://www.w3.org/2000/svg">
<g clip-path="url(#clip0)">
<path d="M8.86133 17.6499C8.32231 17.6499 7.88477 18.0871 7.88477 18.6261C7.88477 19.1651 8.32231 19.6026 8.86133 19.6026C9.40034 19.6026 9.83789 19.1651 9.83789 18.6261C9.83789 18.0871 9.40034 17.6499 8.86133 17.6499Z" fill="#02B2EE"/>
<path d="M36.2237 29.3186C36.041 29.1355 35.7922 29.0325 35.5332 29.0325C35.5233 29.0344 35.1479 29.0134 34.8428 29.3186L34.1527 30.0087L31.9089 27.7652C36.8604 20.8244 36.1073 11.2499 30.0095 5.15247C23.1408 -1.71627 12.0225 -1.71741 5.15296 5.15247C-1.71578 12.0208 -1.71692 23.1395 5.15296 30.009C11.2355 36.092 20.8062 36.8724 27.7653 31.9084L30.0092 34.1522L29.3191 34.8423C28.938 35.2234 28.9376 35.8421 29.3191 36.2236L41.665 48.5683C43.5727 50.4772 46.6607 50.4783 48.5688 48.5687C50.4777 46.6613 50.4784 43.573 48.5688 41.6648L36.2237 29.3186ZM31.3901 32.7713L29.2992 30.6804C29.5422 30.4626 29.7799 30.2391 30.0095 30.009C30.2396 29.7794 30.4631 29.5417 30.6809 29.2991L32.7718 31.39L31.3901 32.7713ZM6.53389 28.6281C0.42808 22.5227 0.427317 12.6396 6.53389 6.5334C12.6393 0.427591 22.5224 0.426828 28.6286 6.5334C34.7207 12.6251 34.7516 22.5059 28.6286 28.6281C22.4366 34.8209 12.5561 34.6508 6.53389 28.6281ZM35.5332 31.39L38.2947 34.1518L34.1523 38.2942L31.3905 35.5327L35.5332 31.39ZM47.1879 47.1878C46.0435 48.3333 44.1914 48.3337 43.0463 47.1878L35.5332 39.6751L39.6756 35.5327L47.1883 43.0462C48.3334 44.1902 48.3346 46.0422 47.1879 47.1878Z" fill="#02B2EE"/>
<path d="M27.2469 7.91434C21.9067 2.57415 13.2553 2.5711 7.91286 7.91358C2.58373 13.2439 2.58373 21.917 7.91286 27.2476C13.2561 32.5905 21.9025 32.5909 27.2461 27.2476C32.5764 21.917 32.5768 13.2442 27.2469 7.91434ZM25.8652 25.8663C21.2857 30.4459 13.8745 30.447 9.29379 25.8667C4.72607 21.2974 4.72607 13.8634 9.29379 9.29412C13.871 4.71725 21.2872 4.7161 25.866 9.29527C30.4345 13.8637 30.4341 21.2974 25.8652 25.8663Z" fill="#02B2EE"/>
<path d="M17.5802 7.81665C14.9702 7.81665 12.5181 8.83212 10.6756 10.6758C9.60754 11.7439 8.82133 13.0058 8.33915 14.4271C8.16596 14.9376 8.43909 15.4922 8.94988 15.6654C9.46143 15.839 10.0153 15.5643 10.1885 15.0547C10.5734 13.9198 11.2021 12.9112 12.0566 12.0563C13.5306 10.5819 15.4921 9.76978 17.5802 9.76978C18.1196 9.76978 18.5568 9.33261 18.5568 8.79321C18.5568 8.25382 18.1196 7.81665 17.5802 7.81665Z" fill="#02B2EE"/>
</g>
<defs>
<clipPath id="clip0">
<rect width="50" height="50" fill="white"/>
</clipPath>
</defs>
</svg>
