<svg width="20" height="27" viewBox="0 0 20 27" fill="none" xmlns="http://www.w3.org/2000/svg">
<path fill-rule="evenodd" clip-rule="evenodd" d="M19.0009 0.505577V25.9995C19.277 26.0024 19.5 26.225 19.5 26.4996C19.5 26.776 19.2742 27 18.9956 27H11.4711H8.44603H0.879396C0.600843 27 0.375 26.776 0.375 26.4996C0.375 26.2233 0.600843 25.9992 0.879396 25.9992H0.910921V0.50564L0.911047 0.503013L0.910921 0.500386C0.910921 0.224048 1.13676 0 1.41532 0H18.4597C18.4887 0 18.5169 0.00300231 18.5446 0.00763088C18.8006 0.0316494 19.0009 0.245314 19.0009 0.505577ZM17.9921 1.00077H1.91971V25.9992H7.94157V22.4992C7.94157 22.2228 8.16742 21.9988 8.44597 21.9988H11.471C11.7496 21.9988 11.9754 22.2228 11.9754 22.4992V25.9992H17.9921V1.00077ZM8.95043 25.9992V22.9995H10.9667V25.9992H8.95043ZM6.42643 21.9987H3.40138C3.12282 21.9987 2.89698 22.2228 2.89698 22.4991V24.4824C2.89698 24.7587 3.12282 24.9828 3.40138 24.9828H6.42643C6.70498 24.9828 6.93083 24.7587 6.93083 24.4824V22.4991C6.93083 22.2228 6.70498 21.9987 6.42643 21.9987ZM5.92203 23.982H3.90577V22.9995H5.92203V23.982ZM16.5144 24.9828H13.4893C13.2107 24.9828 12.9849 24.7588 12.9849 24.4824V22.4992C12.9849 22.2228 13.2107 21.9988 13.4893 21.9988H16.5144C16.7929 21.9988 17.0187 22.2228 17.0187 22.4992V24.4824C17.0187 24.7588 16.7929 24.9828 16.5144 24.9828ZM16.01 22.9995H13.9937V23.982H16.01V22.9995ZM6.42643 18.0113H3.40138C3.12282 18.0113 2.89698 18.2353 2.89698 18.5116V20.4949C2.89698 20.7713 3.12282 20.9953 3.40138 20.9953H6.42643C6.70498 20.9953 6.93083 20.7713 6.93083 20.4949V18.5116C6.93083 18.2353 6.70498 18.0113 6.42643 18.0113ZM5.92203 19.9946H3.90577V19.0121H5.92203V19.9946ZM11.4711 20.9954H8.44603C8.16748 20.9954 7.94164 20.7713 7.94164 20.495V18.5117C7.94164 18.2354 8.16748 18.0113 8.44603 18.0113H11.4711C11.7496 18.0113 11.9755 18.2354 11.9755 18.5117V20.495C11.9755 20.7713 11.7496 20.9954 11.4711 20.9954ZM10.9667 19.012H8.95043V19.9945H10.9667V19.012ZM13.4893 20.9954H16.5144C16.7929 20.9954 17.0187 20.7713 17.0187 20.495V18.5117C17.0187 18.2354 16.7929 18.0113 16.5144 18.0113H13.4893C13.2107 18.0113 12.9849 18.2354 12.9849 18.5117V20.495C12.9849 20.7713 13.2107 20.9954 13.4893 20.9954ZM13.9937 19.012H16.01V19.9945H13.9937V19.012ZM3.40138 14.0082H6.42643C6.70498 14.0082 6.93083 14.2322 6.93083 14.5086V16.4918C6.93083 16.7682 6.70498 16.9922 6.42643 16.9922H3.40138C3.12282 16.9922 2.89698 16.7682 2.89698 16.4918V14.5086C2.89698 14.2322 3.12282 14.0082 3.40138 14.0082ZM3.90577 15.9915H5.92203V15.009H3.90577V15.9915ZM8.44603 16.9923H11.4711C11.7496 16.9923 11.9755 16.7682 11.9755 16.4919V14.5086C11.9755 14.2323 11.7496 14.0082 11.4711 14.0082H8.44603C8.16748 14.0082 7.94164 14.2323 7.94164 14.5086V16.4919C7.94164 16.7682 8.16748 16.9923 8.44603 16.9923ZM8.95043 15.0089H10.9667V15.9915H8.95043V15.0089ZM16.5144 16.9923H13.4893C13.2107 16.9923 12.9849 16.7682 12.9849 16.4919V14.5086C12.9849 14.2323 13.2107 14.0082 13.4893 14.0082H16.5144C16.7929 14.0082 17.0187 14.2323 17.0187 14.5086V16.4919C17.0187 16.7682 16.7929 16.9923 16.5144 16.9923ZM16.01 15.0089H13.9937V15.9915H16.01V15.0089ZM6.42643 10.0207H3.40138C3.12282 10.0207 2.89698 10.2448 2.89698 10.5211V12.5044C2.89698 12.7807 3.12282 13.0048 3.40138 13.0048H6.42643C6.70498 13.0048 6.93083 12.7807 6.93083 12.5044V10.5211C6.93083 10.2448 6.70498 10.0207 6.42643 10.0207ZM5.92203 12.0041H3.90577V11.0216H5.92203V12.0041ZM11.4711 13.0048H8.44603C8.16748 13.0048 7.94164 12.7808 7.94164 12.5045V10.5212C7.94164 10.2448 8.16748 10.0208 8.44603 10.0208H11.4711C11.7496 10.0208 11.9755 10.2448 11.9755 10.5212V12.5045C11.9755 12.7808 11.7496 13.0048 11.4711 13.0048ZM10.9667 11.0215H8.95043V12.004H10.9667V11.0215ZM13.4893 13.0048H16.5144C16.7929 13.0048 17.0187 12.7808 17.0187 12.5045V10.5212C17.0187 10.2448 16.7929 10.0208 16.5144 10.0208H13.4893C13.2107 10.0208 12.9849 10.2448 12.9849 10.5212V12.5045C12.9849 12.7808 13.2107 13.0048 13.4893 13.0048ZM13.9937 11.0215H16.01V12.004H13.9937V11.0215ZM3.40138 6.00726H6.42643C6.70498 6.00726 6.93083 6.2313 6.93083 6.50764V8.49092C6.93083 8.76726 6.70498 8.99131 6.42643 8.99131H3.40138C3.12282 8.99131 2.89698 8.76726 2.89698 8.49092V6.50764C2.89698 6.2313 3.12282 6.00726 3.40138 6.00726ZM3.90577 7.99053H5.92203V7.00803H3.90577V7.99053ZM8.44603 8.99131H11.4711C11.7496 8.99131 11.9755 8.76726 11.9755 8.49092V6.50764C11.9755 6.2313 11.7496 6.00726 11.4711 6.00726H8.44603C8.16748 6.00726 7.94164 6.2313 7.94164 6.50764V8.49092C7.94164 8.76732 8.16748 8.99131 8.44603 8.99131ZM8.95043 7.00803H10.9667V7.99053H8.95043V7.00803ZM16.5144 8.99131H13.4893C13.2107 8.99131 12.9849 8.76732 12.9849 8.49092V6.50764C12.9849 6.2313 13.2107 6.00726 13.4893 6.00726H16.5144C16.7929 6.00726 17.0187 6.2313 17.0187 6.50764V8.49092C17.0187 8.76726 16.7929 8.99131 16.5144 8.99131ZM16.01 7.00803H13.9937V7.99053H16.01V7.00803ZM6.42643 2.01981H3.40138C3.12282 2.01981 2.89698 2.24385 2.89698 2.52019V4.50347C2.89698 4.77981 3.12282 5.00386 3.40138 5.00386H6.42643C6.70498 5.00386 6.93083 4.77981 6.93083 4.50347V2.52019C6.93083 2.24385 6.70498 2.01981 6.42643 2.01981ZM5.92203 4.00309H3.90577V3.02058H5.92203V4.00309ZM11.4711 5.00386H8.44603C8.16748 5.00386 7.94164 4.77981 7.94164 4.50347V2.52019C7.94164 2.24385 8.16748 2.01981 8.44603 2.01981H11.4711C11.7496 2.01981 11.9755 2.24385 11.9755 2.52019V4.50347C11.9755 4.77981 11.7496 5.00386 11.4711 5.00386ZM10.9667 3.02058H8.95043V4.00309H10.9667V3.02058ZM13.4893 5.00386H16.5144C16.7929 5.00386 17.0187 4.77981 17.0187 4.50347V2.52019C17.0187 2.24385 16.7929 2.01981 16.5144 2.01981H13.4893C13.2107 2.01981 12.9849 2.24385 12.9849 2.52019V4.50347C12.9849 4.77981 13.2107 5.00386 13.4893 5.00386ZM13.9937 3.02058H16.01V4.00309H13.9937V3.02058Z" fill="#02B2EE"/>
</svg>
