<svg width="73" height="93" viewBox="0 0 73 93" fill="none" xmlns="http://www.w3.org/2000/svg">
<path d="M14.0001 92L7.40084 86.2509L0.808594 80.5052L7.40084 74.7543L14.0001 69.0087" stroke="#02B2EE"/>
<path d="M14.0001 69.4341L7.40084 63.6867L0.808594 57.941L7.40084 52.1902L14.0001 46.4462" stroke="#02B2EE"/>
<path d="M14.0001 46.8679L7.40084 41.1205L0.808594 35.3731L7.40084 29.624L14.0001 23.8801" stroke="#02B2EE"/>
<path d="M14.0001 24.302L7.40084 18.5546L0.808594 12.8055L7.40084 7.05461L14.0001 1.31242" stroke="#02B2EE"/>
<path d="M33.0001 92L26.4008 86.2509L19.8086 80.5052L26.4008 74.7543L33.0001 69.0087" stroke="#02B2EE"/>
<path d="M33.0001 69.4341L26.4008 63.6867L19.8086 57.941L26.4008 52.1902L33.0001 46.4462" stroke="#02B2EE"/>
<path d="M33.0001 46.8679L26.4008 41.1205L19.8086 35.3731L26.4008 29.624L33.0001 23.8801" stroke="#02B2EE"/>
<path d="M33.0001 24.302L26.4008 18.5546L19.8086 12.8055L26.4008 7.05461L33.0001 1.31242" stroke="#02B2EE"/>
<path d="M52.0001 92L45.4008 86.2509L38.8086 80.5052L45.4008 74.7543L52.0001 69.0087" stroke="#02B2EE"/>
<path d="M52.0001 69.4341L45.4008 63.6867L38.8086 57.941L45.4008 52.1902L52.0001 46.4462" stroke="#02B2EE"/>
<path d="M52.0001 46.8679L45.4008 41.1205L38.8086 35.3731L45.4008 29.624L52.0001 23.8801" stroke="#02B2EE"/>
<path d="M52.0001 24.302L45.4008 18.5546L38.8086 12.8055L45.4008 7.05461L52.0001 1.31242" stroke="#02B2EE"/>
<path d="M72.0001 92L65.4008 86.2509L58.8086 80.5052L65.4008 74.7543L72.0001 69.0087" stroke="#02B2EE"/>
<path d="M72.0001 69.4341L65.4008 63.6867L58.8086 57.941L65.4008 52.1902L72.0001 46.4462" stroke="#02B2EE"/>
<path d="M72.0001 46.8679L65.4008 41.1205L58.8086 35.3731L65.4008 29.624L72.0001 23.8801" stroke="#02B2EE"/>
<path d="M72.0001 24.302L65.4008 18.5546L58.8086 12.8055L65.4008 7.05461L72.0001 1.31242" stroke="#02B2EE"/>
</svg>
