<svg width="58" height="50" viewBox="0 0 58 50" fill="none" xmlns="http://www.w3.org/2000/svg">
<g filter="url(#filter0_d)">
<rect x="7" y="5" width="44" height="36" rx="4" fill="#37DF5B"/>
</g>
<path fill-rule="evenodd" clip-rule="evenodd" d="M28.9975 13H29.0025C34.5162 13 39 17.4862 39 23C39 28.5138 34.5162 33 29.0025 33C26.9687 33 25.0825 32.395 23.5012 31.3475L19.6575 32.5763L20.9037 28.8612C19.705 27.215 19 25.1875 19 23C19 17.485 23.4838 13 28.9975 13ZM32.8587 28.5325C33.6225 28.3675 34.58 27.8025 34.8213 27.1213C35.0625 26.4387 35.0625 25.8575 34.9925 25.7337C34.936 25.6356 34.8023 25.5712 34.6028 25.4751C34.5508 25.4501 34.4944 25.423 34.4338 25.3925C34.14 25.2463 32.7113 24.54 32.4412 24.4462C32.1763 24.3462 31.9237 24.3813 31.7237 24.6637C31.6857 24.717 31.6478 24.7704 31.61 24.8235C31.3687 25.1628 31.136 25.4901 30.9425 25.6987C30.7662 25.8862 30.4788 25.91 30.2375 25.81C30.2112 25.799 30.1811 25.7869 30.1473 25.7732C29.7653 25.6189 28.9181 25.2768 27.8925 24.3638C27.0275 23.5938 26.44 22.635 26.27 22.3475C26.1031 22.0591 26.2471 21.89 26.3801 21.7337C26.3826 21.7308 26.385 21.7279 26.3875 21.725C26.4733 21.6189 26.5565 21.5305 26.6402 21.4416C26.7004 21.3777 26.7608 21.3136 26.8225 21.2425C26.8317 21.2319 26.8406 21.2217 26.8493 21.2117C26.9803 21.061 27.0583 20.9713 27.1462 20.7838C27.2463 20.59 27.175 20.39 27.1038 20.2425C27.0547 20.1392 26.7519 19.4045 26.4919 18.7737C26.3807 18.5038 26.2773 18.2529 26.205 18.0788C26.0113 17.615 25.8637 17.5975 25.57 17.585C25.561 17.5846 25.5519 17.5841 25.5427 17.5836C25.4499 17.5789 25.3476 17.5738 25.235 17.5738C24.8525 17.5738 24.4538 17.6863 24.2125 17.9325C24.2041 17.9411 24.1953 17.95 24.1862 17.9593C23.8775 18.2732 23.19 18.9724 23.19 20.3663C23.19 21.7628 24.1809 23.1143 24.3642 23.3644C24.3693 23.3712 24.3737 23.3773 24.3775 23.3825C24.3885 23.397 24.4093 23.4271 24.4396 23.4709C24.8139 24.013 26.6373 26.6536 29.3563 27.78C31.6538 28.7325 32.3363 28.6438 32.8587 28.5325Z" fill="white"/>
<defs>
<filter id="filter0_d" x="0" y="0" width="58" height="50" filterUnits="userSpaceOnUse" color-interpolation-filters="sRGB">
<feFlood flood-opacity="0" result="BackgroundImageFix"/>
<feColorMatrix in="SourceAlpha" type="matrix" values="0 0 0 0 0 0 0 0 0 0 0 0 0 0 0 0 0 0 127 0"/>
<feOffset dy="2"/>
<feGaussianBlur stdDeviation="3.5"/>
<feColorMatrix type="matrix" values="0 0 0 0 0.661386 0 0 0 0 0.660388 0 0 0 0 0.66327 0 0 0 0.5 0"/>
<feBlend mode="normal" in2="BackgroundImageFix" result="effect1_dropShadow"/>
<feBlend mode="normal" in="SourceGraphic" in2="effect1_dropShadow" result="shape"/>
</filter>
</defs>
</svg>
