<svg width="50" height="50" viewBox="0 0 50 50" fill="none" xmlns="http://www.w3.org/2000/svg">
<g clip-path="url(#clip0)">
<path d="M44.759 9.40667L40.5924 5.24C40.3134 4.96073 39.8769 4.91552 39.5465 5.13167L34.9165 8.16667L29.924 6.08333L29.1582 0.715C29.0994 0.304583 28.7478 -0.00010414 28.3332 2.67013e-08H21.6665C21.252 -0.00010414 20.9004 0.304583 20.8415 0.715L20.0749 6.08333L15.0874 8.16667L10.4565 5.13333C10.1262 4.91719 9.68967 4.9624 9.41071 5.24167L5.24404 9.40833C4.96446 9.68802 4.91988 10.1256 5.13738 10.4558L8.22071 15.1392L7.70404 16.3333L9.23404 16.995L9.92988 15.3883C10.0416 15.1302 10.0156 14.8331 9.86071 14.5983L6.90071 10.1067L10.1082 6.89917L14.5432 9.80417C14.7754 9.95448 15.0666 9.98135 15.3224 9.87583L21.1557 7.43333C21.4251 7.31917 21.6149 7.07219 21.6557 6.7825L22.389 1.66667H27.6107L28.3415 6.785C28.3824 7.07469 28.5722 7.32167 28.8415 7.43583L34.6749 9.87667C34.9303 9.98219 35.2213 9.95531 35.4532 9.805L39.8899 6.90167L43.1199 10.1317L40.9532 13.7983C40.8243 14.0157 40.8009 14.28 40.8899 14.5167L41.814 16.9575L43.3732 16.3675L42.5907 14.3017L44.8865 10.42C45.0803 10.0927 45.0278 9.67573 44.759 9.40667Z" fill="#02B2EE"/>
<path d="M33.9222 31.9109L31.4222 29.4109C31.2659 29.2546 31.054 29.1667 30.833 29.1667H19.1663C18.9453 29.1667 18.7334 29.2546 18.5772 29.4109L16.0772 31.9109C15.9209 32.0671 15.833 32.279 15.833 32.5V49.1667C15.833 49.6269 16.2061 50 16.6663 50H33.333C33.7932 50 34.1663 49.6269 34.1663 49.1667V32.5C34.1663 32.279 34.0784 32.0671 33.9222 31.9109ZM27.8447 30.8334H30.488L27.4997 33.8217L26.178 32.5L27.8447 30.8334ZM26.3213 35L25.2438 36.0775C25.0871 36.2335 24.9992 36.4455 24.9997 36.6667C24.9981 36.4477 24.9104 36.2381 24.7555 36.0834L23.678 35L24.9997 33.6784L26.3213 35ZM25.488 30.8334L24.9997 31.3217L24.5113 30.8334H25.488ZM22.1547 30.8334L23.8213 32.5L22.4997 33.8217L19.5113 30.8334H22.1547ZM21.7705 48.3334H17.4997V32.845L18.333 32.0117L21.9105 35.5892L23.2855 36.9642L21.7705 48.3334ZM23.4522 48.3334L24.9922 36.7767C24.9972 36.7416 24.9997 36.7063 24.9997 36.6709C24.9999 36.7243 25.0054 36.7776 25.0163 36.83L27.3163 48.3334H23.4522ZM32.4997 48.3334H29.0163L26.738 36.9409L28.0888 35.5892L31.6663 32.0117L32.4997 32.845V48.3334Z" fill="#02B2EE"/>
<path d="M30.833 10.8334H23.333C20.5727 10.8361 18.3357 13.0731 18.333 15.8334V20.8334C18.3372 24.5136 21.3195 27.4959 24.9997 27.5C28.6799 27.4959 31.6622 24.5136 31.6663 20.8334V11.6667C31.6663 11.2065 31.2932 10.8334 30.833 10.8334ZM29.9997 20.8334C29.9997 23.5948 27.7611 25.8334 24.9997 25.8334C22.2382 25.8334 19.9997 23.5948 19.9997 20.8334V17.5H26.6663C27.898 17.4997 29.0858 17.0424 29.9997 16.2167V20.8334ZM26.6663 15.8334H19.9997C19.9997 13.9924 21.4921 12.5 23.333 12.5H29.9997C29.9997 14.341 28.5073 15.8334 26.6663 15.8334Z" fill="#02B2EE"/>
<path d="M49.7562 35.2442L47.2562 32.7442C47.0999 32.5879 46.888 32.5 46.667 32.5H40.0003C39.7793 32.5 39.5674 32.5879 39.4112 32.7442L36.9112 35.2442C36.7549 35.4004 36.667 35.6123 36.667 35.8333V49.1667C36.667 49.6269 37.0401 50 37.5003 50H49.167C49.6272 50 50.0003 49.6269 50.0003 49.1667V35.8333C50.0003 35.6123 49.9124 35.4004 49.7562 35.2442ZM48.3337 48.3333H44.167V35.8333H42.5003V48.3333H38.3337V36.1783L40.0003 34.5117L41.9112 36.4225L42.5003 35.8333L43.0895 35.2442L42.012 34.1667H44.7212L43.5953 35.2258L44.167 35.8333L44.7387 36.4408L46.7253 34.57L48.3337 36.1783V48.3333Z" fill="#02B2EE"/>
<path d="M44.1669 18.3333H42.5277C40.2339 18.3379 38.3734 20.1921 38.361 22.4858L38.3477 26.6583C38.3385 29.4151 40.5658 31.6574 43.3227 31.6666C43.3282 31.6666 43.3338 31.6666 43.3394 31.6666C46.0953 31.6634 48.329 29.4309 48.3335 26.675V22.5C48.3308 20.2 46.4669 18.336 44.1669 18.3333ZM40.0277 22.4916C40.0322 21.1249 41.1335 20.015 42.5002 20C42.5003 21.37 41.3977 22.4849 40.0277 22.5V22.4916ZM46.6669 26.6725C46.6636 28.5079 45.1773 29.9954 43.3419 30C41.5055 30 40.0169 28.5113 40.0169 26.675C40.0169 26.6722 40.0169 26.6695 40.0169 26.6666L40.0252 24.1666C41.3279 24.1588 42.552 23.5422 43.3335 22.5C44.1204 23.5491 45.3554 24.1666 46.6669 24.1666V26.6725ZM44.1669 20C45.5476 20 46.6669 21.1193 46.6669 22.5C45.2861 22.5 44.1669 21.3807 44.1669 20Z" fill="#02B2EE"/>
<path d="M13.0892 35.2442L10.5892 32.7442C10.4329 32.5879 10.221 32.5 10 32.5H3.33333C3.11229 32.5 2.90042 32.5879 2.74417 32.7442L0.244167 35.2442C0.0879167 35.4004 0 35.6123 0 35.8333V49.1667C0 49.6269 0.373125 50 0.833333 50H12.5C12.9602 50 13.3333 49.6269 13.3333 49.1667V35.8333C13.3333 35.6123 13.2454 35.4004 13.0892 35.2442ZM11.6667 48.3333H7.5V35.8333H5.83333V48.3333H1.66667V36.1783L3.33333 34.5117L5.24417 36.4225L5.83333 35.8333L6.4225 35.2442L5.345 34.1667H8.05417L6.92833 35.2258L7.5 35.8333L8.07167 36.4408L10.0583 34.57L11.6667 36.1783V48.3333Z" fill="#02B2EE"/>
<path d="M7.49986 18.3333H5.86069C3.56694 18.3379 1.70642 20.1921 1.69403 22.4858L1.68069 26.6583C1.67153 29.4151 3.89882 31.6574 6.65569 31.6666C6.66121 31.6666 6.66684 31.6666 6.67236 31.6666C9.4283 31.6634 11.6619 29.4309 11.6665 26.675V22.5C11.6638 20.2 9.79986 18.336 7.49986 18.3333ZM7.49986 20C8.55548 20.0044 9.49465 20.6713 9.84653 21.6666H8.33319C7.27757 21.6623 6.3384 20.9953 5.98653 20H7.49986ZM4.16653 20.6733V20.8258C4.16757 21.0476 4.07892 21.2604 3.92069 21.4158C3.81236 21.5212 3.67621 21.5935 3.52819 21.6241C3.66455 21.2621 3.88309 20.9366 4.16653 20.6733ZM9.99986 26.675C9.99528 28.5095 8.50934 29.9954 6.67486 30C4.8385 30 3.34986 28.5113 3.34986 26.675C3.34986 26.6722 3.34986 26.6695 3.34986 26.6666L3.36069 23.3266C4.01309 23.323 4.63778 23.0622 5.09903 22.6008C5.2308 22.4674 5.34725 22.3199 5.44652 22.1608C6.21975 22.912 7.25517 23.3325 8.33319 23.3333H9.99986V26.675Z" fill="#02B2EE"/>
</g>
<defs>
<clipPath id="clip0">
<rect width="50" height="50" fill="white"/>
</clipPath>
</defs>
</svg>
